<?xml version="1.0" encoding="utf-8" standalone="no"?>
<!DOCTYPE svg PUBLIC "-//W3C//DTD SVG 1.1//EN"
  "http://www.w3.org/Graphics/SVG/1.1/DTD/svg11.dtd">
<svg xmlns:xlink="http://www.w3.org/1999/xlink" width="576pt" height="432pt" viewBox="0 0 576 432" xmlns="http://www.w3.org/2000/svg" version="1.1">
 <metadata>
  <rdf:RDF xmlns:dc="http://purl.org/dc/elements/1.1/" xmlns:cc="http://creativecommons.org/ns#" xmlns:rdf="http://www.w3.org/1999/02/22-rdf-syntax-ns#">
   <cc:Work>
    <dc:type rdf:resource="http://purl.org/dc/dcmitype/StillImage"/>
    <dc:date>2025-05-05T13:02:08.569271</dc:date>
    <dc:format>image/svg+xml</dc:format>
    <dc:creator>
     <cc:Agent>
      <dc:title>Matplotlib v3.10.0, https://matplotlib.org/</dc:title>
     </cc:Agent>
    </dc:creator>
   </cc:Work>
  </rdf:RDF>
 </metadata>
 <defs>
  <style type="text/css">*{stroke-linejoin: round; stroke-linecap: butt}</style>
 </defs>
 <g id="figure_1">
  <g id="patch_1">
   <path d="M 0 432 
L 576 432 
L 576 0 
L 0 0 
z
" style="fill: #ffffff"/>
  </g>
  <g id="axes_1">
   <g id="patch_2">
    <path d="M 56.9 387.16 
L 558.27 387.16 
L 558.27 25.44 
L 56.9 25.44 
z
" style="fill: #ffffff"/>
   </g>
   <g id="matplotlib.axis_1">
    <g id="xtick_1">
     <g id="line2d_1">
      <path d="M 90.324667 387.16 
L 90.324667 25.44 
" clip-path="url(#p1e6861ab36)" style="fill: none; stroke: #b0b0b0; stroke-opacity: 0.3; stroke-width: 0.8; stroke-linecap: square"/>
     </g>
     <g id="line2d_2">
      <defs>
       <path id="mfc434ea0b2" d="M 0 0 
L 0 3.5 
" style="stroke: #000000; stroke-width: 0.8"/>
      </defs>
      <g>
       <use xlink:href="#mfc434ea0b2" x="90.324667" y="387.16" style="stroke: #000000; stroke-width: 0.8"/>
      </g>
     </g>
     <g id="text_1">
      <!-- 0.2 -->
      <g transform="translate(83.374667 401.333438) scale(0.1 -0.1)">
       <defs>
        <path id="Helvetica-30" d="M 1731 4475 
Q 2600 4475 2988 3759 
Q 3288 3206 3288 2244 
Q 3288 1331 3016 734 
Q 2622 -122 1728 -122 
Q 922 -122 528 578 
Q 200 1163 200 2147 
Q 200 2909 397 3456 
Q 766 4475 1731 4475 
z
M 1725 391 
Q 2163 391 2422 778 
Q 2681 1166 2681 2222 
Q 2681 2984 2493 3476 
Q 2306 3969 1766 3969 
Q 1269 3969 1039 3501 
Q 809 3034 809 2125 
Q 809 1441 956 1025 
Q 1181 391 1725 391 
z
" transform="scale(0.015625)"/>
        <path id="Helvetica-2e" d="M 547 681 
L 1200 681 
L 1200 0 
L 547 0 
L 547 681 
z
" transform="scale(0.015625)"/>
        <path id="Helvetica-32" d="M 200 0 
Q 231 578 439 1006 
Q 647 1434 1250 1784 
L 1850 2131 
Q 2253 2366 2416 2531 
Q 2672 2791 2672 3125 
Q 2672 3516 2437 3745 
Q 2203 3975 1813 3975 
Q 1234 3975 1013 3538 
Q 894 3303 881 2888 
L 309 2888 
Q 319 3472 525 3841 
Q 891 4491 1816 4491 
Q 2584 4491 2939 4075 
Q 3294 3659 3294 3150 
Q 3294 2613 2916 2231 
Q 2697 2009 2131 1694 
L 1703 1456 
Q 1397 1288 1222 1134 
Q 909 863 828 531 
L 3272 531 
L 3272 0 
L 200 0 
z
" transform="scale(0.015625)"/>
       </defs>
       <use xlink:href="#Helvetica-30"/>
       <use xlink:href="#Helvetica-2e" transform="translate(55.615234 0)"/>
       <use xlink:href="#Helvetica-32" transform="translate(83.398438 0)"/>
      </g>
     </g>
    </g>
    <g id="xtick_2">
     <g id="line2d_3">
      <path d="M 157.174 387.16 
L 157.174 25.44 
" clip-path="url(#p1e6861ab36)" style="fill: none; stroke: #b0b0b0; stroke-opacity: 0.3; stroke-width: 0.8; stroke-linecap: square"/>
     </g>
     <g id="line2d_4">
      <g>
       <use xlink:href="#mfc434ea0b2" x="157.174" y="387.16" style="stroke: #000000; stroke-width: 0.8"/>
      </g>
     </g>
     <g id="text_2">
      <!-- 0.4 -->
      <g transform="translate(150.224 401.333438) scale(0.1 -0.1)">
       <defs>
        <path id="Helvetica-34" d="M 2116 1584 
L 2116 3613 
L 681 1584 
L 2116 1584 
z
M 2125 0 
L 2125 1094 
L 163 1094 
L 163 1644 
L 2213 4488 
L 2688 4488 
L 2688 1584 
L 3347 1584 
L 3347 1094 
L 2688 1094 
L 2688 0 
L 2125 0 
z
" transform="scale(0.015625)"/>
       </defs>
       <use xlink:href="#Helvetica-30"/>
       <use xlink:href="#Helvetica-2e" transform="translate(55.615234 0)"/>
       <use xlink:href="#Helvetica-34" transform="translate(83.398438 0)"/>
      </g>
     </g>
    </g>
    <g id="xtick_3">
     <g id="line2d_5">
      <path d="M 224.023333 387.16 
L 224.023333 25.44 
" clip-path="url(#p1e6861ab36)" style="fill: none; stroke: #b0b0b0; stroke-opacity: 0.3; stroke-width: 0.8; stroke-linecap: square"/>
     </g>
     <g id="line2d_6">
      <g>
       <use xlink:href="#mfc434ea0b2" x="224.023333" y="387.16" style="stroke: #000000; stroke-width: 0.8"/>
      </g>
     </g>
     <g id="text_3">
      <!-- 0.6 -->
      <g transform="translate(217.073333 401.333438) scale(0.1 -0.1)">
       <defs>
        <path id="Helvetica-36" d="M 1872 4494 
Q 2622 4494 2917 4105 
Q 3213 3716 3213 3303 
L 2656 3303 
Q 2606 3569 2497 3719 
Q 2294 4000 1881 4000 
Q 1409 4000 1131 3564 
Q 853 3128 822 2316 
Q 1016 2600 1309 2741 
Q 1578 2866 1909 2866 
Q 2472 2866 2890 2506 
Q 3309 2147 3309 1434 
Q 3309 825 2912 354 
Q 2516 -116 1781 -116 
Q 1153 -116 697 361 
Q 241 838 241 1966 
Q 241 2800 444 3381 
Q 834 4494 1872 4494 
z
M 1831 384 
Q 2275 384 2495 682 
Q 2716 981 2716 1388 
Q 2716 1731 2519 2042 
Q 2322 2353 1803 2353 
Q 1441 2353 1167 2112 
Q 894 1872 894 1388 
Q 894 963 1142 673 
Q 1391 384 1831 384 
z
" transform="scale(0.015625)"/>
       </defs>
       <use xlink:href="#Helvetica-30"/>
       <use xlink:href="#Helvetica-2e" transform="translate(55.615234 0)"/>
       <use xlink:href="#Helvetica-36" transform="translate(83.398438 0)"/>
      </g>
     </g>
    </g>
    <g id="xtick_4">
     <g id="line2d_7">
      <path d="M 290.872667 387.16 
L 290.872667 25.44 
" clip-path="url(#p1e6861ab36)" style="fill: none; stroke: #b0b0b0; stroke-opacity: 0.3; stroke-width: 0.8; stroke-linecap: square"/>
     </g>
     <g id="line2d_8">
      <g>
       <use xlink:href="#mfc434ea0b2" x="290.872667" y="387.16" style="stroke: #000000; stroke-width: 0.8"/>
      </g>
     </g>
     <g id="text_4">
      <!-- 0.8 -->
      <g transform="translate(283.922667 401.333438) scale(0.1 -0.1)">
       <defs>
        <path id="Helvetica-38" d="M 1741 2600 
Q 2113 2600 2322 2808 
Q 2531 3016 2531 3303 
Q 2531 3553 2331 3762 
Q 2131 3972 1722 3972 
Q 1316 3972 1134 3762 
Q 953 3553 953 3272 
Q 953 2956 1187 2778 
Q 1422 2600 1741 2600 
z
M 1775 384 
Q 2166 384 2423 595 
Q 2681 806 2681 1225 
Q 2681 1659 2415 1884 
Q 2150 2109 1734 2109 
Q 1331 2109 1076 1879 
Q 822 1650 822 1244 
Q 822 894 1055 639 
Q 1288 384 1775 384 
z
M 975 2384 
Q 741 2484 609 2619 
Q 363 2869 363 3269 
Q 363 3769 725 4128 
Q 1088 4488 1753 4488 
Q 2397 4488 2762 4148 
Q 3128 3809 3128 3356 
Q 3128 2938 2916 2678 
Q 2797 2531 2547 2391 
Q 2825 2263 2984 2097 
Q 3281 1784 3281 1284 
Q 3281 694 2884 283 
Q 2488 -128 1763 -128 
Q 1109 -128 657 226 
Q 206 581 206 1256 
Q 206 1653 400 1942 
Q 594 2231 975 2384 
z
" transform="scale(0.015625)"/>
       </defs>
       <use xlink:href="#Helvetica-30"/>
       <use xlink:href="#Helvetica-2e" transform="translate(55.615234 0)"/>
       <use xlink:href="#Helvetica-38" transform="translate(83.398438 0)"/>
      </g>
     </g>
    </g>
    <g id="xtick_5">
     <g id="line2d_9">
      <path d="M 357.722 387.16 
L 357.722 25.44 
" clip-path="url(#p1e6861ab36)" style="fill: none; stroke: #b0b0b0; stroke-opacity: 0.3; stroke-width: 0.8; stroke-linecap: square"/>
     </g>
     <g id="line2d_10">
      <g>
       <use xlink:href="#mfc434ea0b2" x="357.722" y="387.16" style="stroke: #000000; stroke-width: 0.8"/>
      </g>
     </g>
     <g id="text_5">
      <!-- 1.0 -->
      <g transform="translate(350.772 401.333438) scale(0.1 -0.1)">
       <defs>
        <path id="Helvetica-31" d="M 613 3169 
L 613 3600 
Q 1222 3659 1462 3798 
Q 1703 3938 1822 4456 
L 2266 4456 
L 2266 0 
L 1666 0 
L 1666 3169 
L 613 3169 
z
" transform="scale(0.015625)"/>
       </defs>
       <use xlink:href="#Helvetica-31"/>
       <use xlink:href="#Helvetica-2e" transform="translate(55.615234 0)"/>
       <use xlink:href="#Helvetica-30" transform="translate(83.398438 0)"/>
      </g>
     </g>
    </g>
    <g id="xtick_6">
     <g id="line2d_11">
      <path d="M 424.571333 387.16 
L 424.571333 25.44 
" clip-path="url(#p1e6861ab36)" style="fill: none; stroke: #b0b0b0; stroke-opacity: 0.3; stroke-width: 0.8; stroke-linecap: square"/>
     </g>
     <g id="line2d_12">
      <g>
       <use xlink:href="#mfc434ea0b2" x="424.571333" y="387.16" style="stroke: #000000; stroke-width: 0.8"/>
      </g>
     </g>
     <g id="text_6">
      <!-- 1.2 -->
      <g transform="translate(417.621333 401.333438) scale(0.1 -0.1)">
       <use xlink:href="#Helvetica-31"/>
       <use xlink:href="#Helvetica-2e" transform="translate(55.615234 0)"/>
       <use xlink:href="#Helvetica-32" transform="translate(83.398438 0)"/>
      </g>
     </g>
    </g>
    <g id="xtick_7">
     <g id="line2d_13">
      <path d="M 491.420667 387.16 
L 491.420667 25.44 
" clip-path="url(#p1e6861ab36)" style="fill: none; stroke: #b0b0b0; stroke-opacity: 0.3; stroke-width: 0.8; stroke-linecap: square"/>
     </g>
     <g id="line2d_14">
      <g>
       <use xlink:href="#mfc434ea0b2" x="491.420667" y="387.16" style="stroke: #000000; stroke-width: 0.8"/>
      </g>
     </g>
     <g id="text_7">
      <!-- 1.4 -->
      <g transform="translate(484.470667 401.333438) scale(0.1 -0.1)">
       <use xlink:href="#Helvetica-31"/>
       <use xlink:href="#Helvetica-2e" transform="translate(55.615234 0)"/>
       <use xlink:href="#Helvetica-34" transform="translate(83.398438 0)"/>
      </g>
     </g>
    </g>
    <g id="xtick_8">
     <g id="line2d_15">
      <path d="M 558.27 387.16 
L 558.27 25.44 
" clip-path="url(#p1e6861ab36)" style="fill: none; stroke: #b0b0b0; stroke-opacity: 0.3; stroke-width: 0.8; stroke-linecap: square"/>
     </g>
     <g id="line2d_16">
      <g>
       <use xlink:href="#mfc434ea0b2" x="558.27" y="387.16" style="stroke: #000000; stroke-width: 0.8"/>
      </g>
     </g>
     <g id="text_8">
      <!-- 1.6 -->
      <g transform="translate(551.32 401.333438) scale(0.1 -0.1)">
       <use xlink:href="#Helvetica-31"/>
       <use xlink:href="#Helvetica-2e" transform="translate(55.615234 0)"/>
       <use xlink:href="#Helvetica-36" transform="translate(83.398438 0)"/>
      </g>
     </g>
    </g>
    <g id="text_9">
     <!-- $g_{co} L_{co}$ (a.u.) -->
     <g transform="translate(280.135 414.717813) scale(0.1 -0.1)">
      <defs>
       <path id="DejaVuSans-Oblique-67" d="M 3816 3500 
L 3219 434 
Q 3047 -456 2561 -893 
Q 2075 -1331 1253 -1331 
Q 950 -1331 690 -1286 
Q 431 -1241 206 -1147 
L 313 -588 
Q 525 -725 762 -790 
Q 1000 -856 1269 -856 
Q 1816 -856 2167 -557 
Q 2519 -259 2631 300 
L 2681 563 
Q 2441 288 2122 144 
Q 1803 0 1434 0 
Q 903 0 598 351 
Q 294 703 294 1319 
Q 294 1803 478 2267 
Q 663 2731 997 3091 
Q 1219 3328 1514 3456 
Q 1809 3584 2131 3584 
Q 2484 3584 2746 3420 
Q 3009 3256 3138 2956 
L 3238 3500 
L 3816 3500 
z
M 2950 2216 
Q 2950 2641 2750 2872 
Q 2550 3103 2181 3103 
Q 1953 3103 1747 3012 
Q 1541 2922 1394 2759 
Q 1156 2491 1023 2127 
Q 891 1763 891 1375 
Q 891 944 1092 712 
Q 1294 481 1672 481 
Q 2219 481 2584 976 
Q 2950 1472 2950 2216 
z
" transform="scale(0.015625)"/>
       <path id="DejaVuSans-Oblique-63" d="M 3431 3366 
L 3316 2797 
Q 3109 2947 2876 3022 
Q 2644 3097 2394 3097 
Q 2119 3097 1870 3000 
Q 1622 2903 1453 2725 
Q 1184 2453 1037 2087 
Q 891 1722 891 1331 
Q 891 859 1127 628 
Q 1363 397 1844 397 
Q 2081 397 2348 469 
Q 2616 541 2906 684 
L 2797 116 
Q 2547 13 2283 -39 
Q 2019 -91 1741 -91 
Q 1044 -91 669 257 
Q 294 606 294 1253 
Q 294 1797 489 2255 
Q 684 2713 1069 3078 
Q 1331 3328 1684 3456 
Q 2038 3584 2456 3584 
Q 2700 3584 2940 3529 
Q 3181 3475 3431 3366 
z
" transform="scale(0.015625)"/>
       <path id="DejaVuSans-Oblique-6f" d="M 1625 -91 
Q 1009 -91 651 289 
Q 294 669 294 1325 
Q 294 1706 417 2101 
Q 541 2497 738 2766 
Q 1047 3184 1428 3384 
Q 1809 3584 2291 3584 
Q 2888 3584 3255 3212 
Q 3622 2841 3622 2241 
Q 3622 1825 3500 1412 
Q 3378 1000 3181 728 
Q 2875 309 2494 109 
Q 2113 -91 1625 -91 
z
M 891 1344 
Q 891 869 1089 633 
Q 1288 397 1691 397 
Q 2269 397 2648 901 
Q 3028 1406 3028 2181 
Q 3028 2634 2825 2865 
Q 2622 3097 2228 3097 
Q 1903 3097 1650 2945 
Q 1397 2794 1197 2484 
Q 1050 2253 970 1956 
Q 891 1659 891 1344 
z
" transform="scale(0.015625)"/>
       <path id="DejaVuSans-Oblique-4c" d="M 1075 4666 
L 1709 4666 
L 909 525 
L 3181 525 
L 3078 0 
L 172 0 
L 1075 4666 
z
" transform="scale(0.015625)"/>
       <path id="Helvetica-20" transform="scale(0.015625)"/>
       <path id="Helvetica-28" d="M 1894 4666 
Q 1403 3713 1256 3263 
Q 1034 2578 1034 1681 
Q 1034 775 1288 25 
Q 1444 -438 1903 -1306 
L 1525 -1306 
Q 1069 -594 959 -397 
Q 850 -200 722 138 
Q 547 600 478 1125 
Q 444 1397 444 1644 
Q 444 2569 734 3291 
Q 919 3750 1503 4666 
L 1894 4666 
z
" transform="scale(0.015625)"/>
       <path id="Helvetica-61" d="M 844 891 
Q 844 647 1022 506 
Q 1200 366 1444 366 
Q 1741 366 2019 503 
Q 2488 731 2488 1250 
L 2488 1703 
Q 2384 1638 2221 1594 
Q 2059 1550 1903 1531 
L 1563 1488 
Q 1256 1447 1103 1359 
Q 844 1213 844 891 
z
M 2206 2028 
Q 2400 2053 2466 2191 
Q 2503 2266 2503 2406 
Q 2503 2694 2298 2823 
Q 2094 2953 1713 2953 
Q 1272 2953 1088 2716 
Q 984 2584 953 2325 
L 428 2325 
Q 444 2944 830 3186 
Q 1216 3428 1725 3428 
Q 2316 3428 2684 3203 
Q 3050 2978 3050 2503 
L 3050 575 
Q 3050 488 3086 434 
Q 3122 381 3238 381 
Q 3275 381 3322 386 
Q 3369 391 3422 400 
L 3422 -16 
Q 3291 -53 3222 -62 
Q 3153 -72 3034 -72 
Q 2744 -72 2613 134 
Q 2544 244 2516 444 
Q 2344 219 2022 53 
Q 1700 -113 1313 -113 
Q 847 -113 551 170 
Q 256 453 256 878 
Q 256 1344 547 1600 
Q 838 1856 1309 1916 
L 2206 2028 
z
M 1741 3428 
L 1741 3428 
z
" transform="scale(0.015625)"/>
       <path id="Helvetica-75" d="M 975 3347 
L 975 1125 
Q 975 869 1056 706 
Q 1206 406 1616 406 
Q 2203 406 2416 931 
Q 2531 1213 2531 1703 
L 2531 3347 
L 3094 3347 
L 3094 0 
L 2563 0 
L 2569 494 
Q 2459 303 2297 172 
Q 1975 -91 1516 -91 
Q 800 -91 541 388 
Q 400 644 400 1072 
L 400 3347 
L 975 3347 
z
M 1747 3428 
L 1747 3428 
z
" transform="scale(0.015625)"/>
       <path id="Helvetica-29" d="M 222 -1306 
Q 719 -338 863 106 
Q 1081 778 1081 1681 
Q 1081 2584 828 3334 
Q 672 3797 213 4666 
L 591 4666 
Q 1072 3897 1173 3717 
Q 1275 3538 1394 3222 
Q 1544 2831 1608 2450 
Q 1672 2069 1672 1716 
Q 1672 791 1378 66 
Q 1194 -400 613 -1306 
L 222 -1306 
z
" transform="scale(0.015625)"/>
      </defs>
      <use xlink:href="#DejaVuSans-Oblique-67" transform="translate(0 0.09375)"/>
      <use xlink:href="#DejaVuSans-Oblique-63" transform="translate(63.476562 -16.3125) scale(0.7)"/>
      <use xlink:href="#DejaVuSans-Oblique-6f" transform="translate(101.962891 -16.3125) scale(0.7)"/>
      <use xlink:href="#DejaVuSans-Oblique-4c" transform="translate(147.524414 0.09375)"/>
      <use xlink:href="#DejaVuSans-Oblique-63" transform="translate(203.237305 -16.3125) scale(0.7)"/>
      <use xlink:href="#DejaVuSans-Oblique-6f" transform="translate(241.723633 -16.3125) scale(0.7)"/>
      <use xlink:href="#Helvetica-20" transform="translate(287.285156 0.09375)"/>
      <use xlink:href="#Helvetica-28" transform="translate(315.068359 0.09375)"/>
      <use xlink:href="#Helvetica-61" transform="translate(348.369141 0.09375)"/>
      <use xlink:href="#Helvetica-2e" transform="translate(403.984375 0.09375)"/>
      <use xlink:href="#Helvetica-75" transform="translate(431.767578 0.09375)"/>
      <use xlink:href="#Helvetica-2e" transform="translate(487.382812 0.09375)"/>
      <use xlink:href="#Helvetica-29" transform="translate(515.166016 0.09375)"/>
     </g>
    </g>
   </g>
   <g id="matplotlib.axis_2">
    <g id="ytick_1">
     <g id="line2d_17">
      <path d="M 56.9 370.718182 
L 558.27 370.718182 
" clip-path="url(#p1e6861ab36)" style="fill: none; stroke: #b0b0b0; stroke-opacity: 0.3; stroke-width: 0.8; stroke-linecap: square"/>
     </g>
     <g id="line2d_18">
      <defs>
       <path id="m81cbbaeec9" d="M 0 0 
L -3.5 0 
" style="stroke: #000000; stroke-width: 0.8"/>
      </defs>
      <g>
       <use xlink:href="#m81cbbaeec9" x="56.9" y="370.718182" style="stroke: #000000; stroke-width: 0.8"/>
      </g>
     </g>
     <g id="text_10">
      <!-- 0.00 -->
      <g transform="translate(30.439063 374.304901) scale(0.1 -0.1)">
       <use xlink:href="#Helvetica-30"/>
       <use xlink:href="#Helvetica-2e" transform="translate(55.615234 0)"/>
       <use xlink:href="#Helvetica-30" transform="translate(83.398438 0)"/>
       <use xlink:href="#Helvetica-30" transform="translate(139.013672 0)"/>
      </g>
     </g>
    </g>
    <g id="ytick_2">
     <g id="line2d_19">
      <path d="M 56.9 173.391035 
L 558.27 173.391035 
" clip-path="url(#p1e6861ab36)" style="fill: none; stroke: #b0b0b0; stroke-opacity: 0.3; stroke-width: 0.8; stroke-linecap: square"/>
     </g>
     <g id="line2d_20">
      <g>
       <use xlink:href="#m81cbbaeec9" x="56.9" y="173.391035" style="stroke: #000000; stroke-width: 0.8"/>
      </g>
     </g>
     <g id="text_11">
      <!-- 10.00 -->
      <g transform="translate(24.878125 176.977754) scale(0.1 -0.1)">
       <use xlink:href="#Helvetica-31"/>
       <use xlink:href="#Helvetica-30" transform="translate(55.615234 0)"/>
       <use xlink:href="#Helvetica-2e" transform="translate(111.230469 0)"/>
       <use xlink:href="#Helvetica-30" transform="translate(139.013672 0)"/>
       <use xlink:href="#Helvetica-30" transform="translate(194.628906 0)"/>
      </g>
     </g>
    </g>
    <g id="text_12">
     <!-- Anomalous Dispersion range (nm) -->
     <g transform="translate(18.665625 282.161719) rotate(-90) scale(0.1 -0.1)">
      <defs>
       <path id="Helvetica-41" d="M 2844 1881 
L 2147 3909 
L 1406 1881 
L 2844 1881 
z
M 1822 4591 
L 2525 4591 
L 4191 0 
L 3509 0 
L 3044 1375 
L 1228 1375 
L 731 0 
L 94 0 
L 1822 4591 
z
" transform="scale(0.015625)"/>
       <path id="Helvetica-6e" d="M 413 3347 
L 947 3347 
L 947 2872 
Q 1184 3166 1450 3294 
Q 1716 3422 2041 3422 
Q 2753 3422 3003 2925 
Q 3141 2653 3141 2147 
L 3141 0 
L 2569 0 
L 2569 2109 
Q 2569 2416 2478 2603 
Q 2328 2916 1934 2916 
Q 1734 2916 1606 2875 
Q 1375 2806 1200 2600 
Q 1059 2434 1017 2257 
Q 975 2081 975 1753 
L 975 0 
L 413 0 
L 413 3347 
z
M 1734 3428 
L 1734 3428 
z
" transform="scale(0.015625)"/>
       <path id="Helvetica-6f" d="M 1741 363 
Q 2300 363 2508 786 
Q 2716 1209 2716 1728 
Q 2716 2197 2566 2491 
Q 2328 2953 1747 2953 
Q 1231 2953 997 2559 
Q 763 2166 763 1609 
Q 763 1075 997 719 
Q 1231 363 1741 363 
z
M 1763 3444 
Q 2409 3444 2856 3012 
Q 3303 2581 3303 1744 
Q 3303 934 2909 406 
Q 2516 -122 1688 -122 
Q 997 -122 590 345 
Q 184 813 184 1600 
Q 184 2444 612 2944 
Q 1041 3444 1763 3444 
z
M 1744 3428 
L 1744 3428 
z
" transform="scale(0.015625)"/>
       <path id="Helvetica-6d" d="M 413 3347 
L 969 3347 
L 969 2872 
Q 1169 3119 1331 3231 
Q 1609 3422 1963 3422 
Q 2363 3422 2606 3225 
Q 2744 3113 2856 2894 
Q 3044 3163 3297 3292 
Q 3550 3422 3866 3422 
Q 4541 3422 4784 2934 
Q 4916 2672 4916 2228 
L 4916 0 
L 4331 0 
L 4331 2325 
Q 4331 2659 4164 2784 
Q 3997 2909 3756 2909 
Q 3425 2909 3186 2687 
Q 2947 2466 2947 1947 
L 2947 0 
L 2375 0 
L 2375 2184 
Q 2375 2525 2294 2681 
Q 2166 2916 1816 2916 
Q 1497 2916 1236 2669 
Q 975 2422 975 1775 
L 975 0 
L 413 0 
L 413 3347 
z
" transform="scale(0.015625)"/>
       <path id="Helvetica-6c" d="M 428 4591 
L 991 4591 
L 991 0 
L 428 0 
L 428 4591 
z
" transform="scale(0.015625)"/>
       <path id="Helvetica-73" d="M 747 1050 
Q 772 769 888 619 
Q 1100 347 1625 347 
Q 1938 347 2175 483 
Q 2413 619 2413 903 
Q 2413 1119 2222 1231 
Q 2100 1300 1741 1391 
L 1294 1503 
Q 866 1609 663 1741 
Q 300 1969 300 2372 
Q 300 2847 642 3140 
Q 984 3434 1563 3434 
Q 2319 3434 2653 2991 
Q 2863 2709 2856 2384 
L 2325 2384 
Q 2309 2575 2191 2731 
Q 1997 2953 1519 2953 
Q 1200 2953 1036 2831 
Q 872 2709 872 2509 
Q 872 2291 1088 2159 
Q 1213 2081 1456 2022 
L 1828 1931 
Q 2434 1784 2641 1647 
Q 2969 1431 2969 969 
Q 2969 522 2630 197 
Q 2291 -128 1597 -128 
Q 850 -128 539 211 
Q 228 550 206 1050 
L 747 1050 
z
M 1578 3428 
L 1578 3428 
z
" transform="scale(0.015625)"/>
       <path id="Helvetica-44" d="M 2250 531 
Q 2566 531 2769 597 
Q 3131 719 3363 1066 
Q 3547 1344 3628 1778 
Q 3675 2038 3675 2259 
Q 3675 3113 3336 3584 
Q 2997 4056 2244 4056 
L 1141 4056 
L 1141 531 
L 2250 531 
z
M 516 4591 
L 2375 4591 
Q 3322 4591 3844 3919 
Q 4309 3313 4309 2366 
Q 4309 1634 4034 1044 
Q 3550 0 2369 0 
L 516 0 
L 516 4591 
z
" transform="scale(0.015625)"/>
       <path id="Helvetica-69" d="M 413 3331 
L 984 3331 
L 984 0 
L 413 0 
L 413 3331 
z
M 413 4591 
L 984 4591 
L 984 3953 
L 413 3953 
L 413 4591 
z
" transform="scale(0.015625)"/>
       <path id="Helvetica-70" d="M 1825 378 
Q 2219 378 2480 708 
Q 2741 1038 2741 1694 
Q 2741 2094 2625 2381 
Q 2406 2934 1825 2934 
Q 1241 2934 1025 2350 
Q 909 2038 909 1556 
Q 909 1169 1025 897 
Q 1244 378 1825 378 
z
M 369 3331 
L 916 3331 
L 916 2888 
Q 1084 3116 1284 3241 
Q 1569 3428 1953 3428 
Q 2522 3428 2919 2992 
Q 3316 2556 3316 1747 
Q 3316 653 2744 184 
Q 2381 -113 1900 -113 
Q 1522 -113 1266 53 
Q 1116 147 931 375 
L 931 -1334 
L 369 -1334 
L 369 3331 
z
" transform="scale(0.015625)"/>
       <path id="Helvetica-65" d="M 1806 3422 
Q 2163 3422 2497 3255 
Q 2831 3088 3006 2822 
Q 3175 2569 3231 2231 
Q 3281 2000 3281 1494 
L 828 1494 
Q 844 984 1069 676 
Q 1294 369 1766 369 
Q 2206 369 2469 659 
Q 2619 828 2681 1050 
L 3234 1050 
Q 3213 866 3089 639 
Q 2966 413 2813 269 
Q 2556 19 2178 -69 
Q 1975 -119 1719 -119 
Q 1094 -119 659 336 
Q 225 791 225 1609 
Q 225 2416 662 2919 
Q 1100 3422 1806 3422 
z
M 2703 1941 
Q 2669 2306 2544 2525 
Q 2313 2931 1772 2931 
Q 1384 2931 1121 2651 
Q 859 2372 844 1941 
L 2703 1941 
z
M 1753 3428 
L 1753 3428 
z
" transform="scale(0.015625)"/>
       <path id="Helvetica-72" d="M 428 3347 
L 963 3347 
L 963 2769 
Q 1028 2938 1284 3180 
Q 1541 3422 1875 3422 
Q 1891 3422 1928 3419 
Q 1966 3416 2056 3406 
L 2056 2813 
Q 2006 2822 1964 2825 
Q 1922 2828 1872 2828 
Q 1447 2828 1219 2554 
Q 991 2281 991 1925 
L 991 0 
L 428 0 
L 428 3347 
z
" transform="scale(0.015625)"/>
       <path id="Helvetica-67" d="M 1594 3406 
Q 1988 3406 2281 3213 
Q 2441 3103 2606 2894 
L 2606 3316 
L 3125 3316 
L 3125 272 
Q 3125 -366 2938 -734 
Q 2588 -1416 1616 -1416 
Q 1075 -1416 706 -1173 
Q 338 -931 294 -416 
L 866 -416 
Q 906 -641 1028 -763 
Q 1219 -950 1628 -950 
Q 2275 -950 2475 -494 
Q 2594 -225 2584 466 
Q 2416 209 2178 84 
Q 1941 -41 1550 -41 
Q 1006 -41 598 345 
Q 191 731 191 1622 
Q 191 2463 602 2934 
Q 1013 3406 1594 3406 
z
M 2606 1688 
Q 2606 2309 2350 2609 
Q 2094 2909 1697 2909 
Q 1103 2909 884 2353 
Q 769 2056 769 1575 
Q 769 1009 998 714 
Q 1228 419 1616 419 
Q 2222 419 2469 966 
Q 2606 1275 2606 1688 
z
M 1659 3428 
L 1659 3428 
z
" transform="scale(0.015625)"/>
      </defs>
      <use xlink:href="#Helvetica-41"/>
      <use xlink:href="#Helvetica-6e" transform="translate(66.699219 0)"/>
      <use xlink:href="#Helvetica-6f" transform="translate(122.314453 0)"/>
      <use xlink:href="#Helvetica-6d" transform="translate(177.929688 0)"/>
      <use xlink:href="#Helvetica-61" transform="translate(261.230469 0)"/>
      <use xlink:href="#Helvetica-6c" transform="translate(316.845703 0)"/>
      <use xlink:href="#Helvetica-6f" transform="translate(339.0625 0)"/>
      <use xlink:href="#Helvetica-75" transform="translate(394.677734 0)"/>
      <use xlink:href="#Helvetica-73" transform="translate(450.292969 0)"/>
      <use xlink:href="#Helvetica-20" transform="translate(500.292969 0)"/>
      <use xlink:href="#Helvetica-44" transform="translate(528.076172 0)"/>
      <use xlink:href="#Helvetica-69" transform="translate(600.292969 0)"/>
      <use xlink:href="#Helvetica-73" transform="translate(622.509766 0)"/>
      <use xlink:href="#Helvetica-70" transform="translate(672.509766 0)"/>
      <use xlink:href="#Helvetica-65" transform="translate(728.125 0)"/>
      <use xlink:href="#Helvetica-72" transform="translate(783.740234 0)"/>
      <use xlink:href="#Helvetica-73" transform="translate(817.041016 0)"/>
      <use xlink:href="#Helvetica-69" transform="translate(867.041016 0)"/>
      <use xlink:href="#Helvetica-6f" transform="translate(889.257812 0)"/>
      <use xlink:href="#Helvetica-6e" transform="translate(944.873047 0)"/>
      <use xlink:href="#Helvetica-20" transform="translate(1000.488281 0)"/>
      <use xlink:href="#Helvetica-72" transform="translate(1028.271484 0)"/>
      <use xlink:href="#Helvetica-61" transform="translate(1061.572266 0)"/>
      <use xlink:href="#Helvetica-6e" transform="translate(1117.1875 0)"/>
      <use xlink:href="#Helvetica-67" transform="translate(1172.802734 0)"/>
      <use xlink:href="#Helvetica-65" transform="translate(1228.417969 0)"/>
      <use xlink:href="#Helvetica-20" transform="translate(1284.033203 0)"/>
      <use xlink:href="#Helvetica-28" transform="translate(1311.816406 0)"/>
      <use xlink:href="#Helvetica-6e" transform="translate(1345.117188 0)"/>
      <use xlink:href="#Helvetica-6d" transform="translate(1400.732422 0)"/>
      <use xlink:href="#Helvetica-29" transform="translate(1484.033203 0)"/>
     </g>
    </g>
   </g>
   <g id="line2d_21">
    <path d="M 56.9 254.65543 
L 60.242467 247.619632 
L 63.584933 240.860122 
L 66.9274 234.365647 
L 73.612333 222.07202 
L 80.297267 210.327387 
L 86.9822 199.383651 
L 93.667133 188.918162 
L 100.352067 178.995764 
L 107.037 169.53835 
L 113.721933 160.500576 
L 123.749333 147.734295 
L 130.434267 139.666272 
L 137.1192 131.964534 
L 143.804133 124.613382 
L 150.489067 117.581612 
L 157.174 110.848431 
L 167.2014 101.383997 
L 173.886333 95.427431 
L 180.571267 89.809511 
L 187.2562 84.450747 
L 193.941133 79.435025 
L 200.626067 74.699957 
L 207.311 70.277123 
L 213.995933 66.113796 
L 220.680867 62.293103 
L 227.3658 58.793921 
L 234.050733 55.569485 
L 240.735667 52.68124 
L 247.4206 50.10785 
L 254.105533 47.869074 
L 260.790467 45.974955 
L 267.4754 44.419444 
L 274.160333 43.231883 
L 280.845267 42.408685 
L 287.5302 41.952985 
L 294.215133 41.917237 
L 300.900067 42.278727 
L 304.242533 42.617673 
L 307.585 43.074372 
L 314.269933 44.339275 
L 317.6124 45.145185 
L 320.954867 46.076711 
L 324.297333 47.130344 
L 327.6398 48.317588 
L 330.982267 49.645539 
L 334.324733 51.106399 
L 337.6672 52.720967 
L 341.009667 54.476445 
L 344.352133 56.39524 
L 347.6946 58.46932 
L 351.037067 60.715195 
L 354.379533 63.134687 
L 357.722 65.73562 
L 361.064467 68.528126 
L 364.406933 71.518879 
L 367.7494 74.71756 
L 371.091867 78.135189 
L 374.434333 81.782268 
L 377.7768 85.670641 
L 381.119267 89.813497 
L 384.461733 94.22573 
L 387.8042 98.924563 
L 391.146667 103.927148 
L 394.489133 109.252159 
L 397.8316 114.919475 
L 401.174067 120.959827 
L 404.516533 127.408541 
L 407.859 134.277618 
L 411.201467 141.634184 
L 414.543933 149.494799 
L 417.8864 157.9475 
L 421.228867 167.039413 
L 424.571333 176.865836 
L 427.9138 187.526616 
L 431.256267 199.171583 
L 434.598733 370.718182 
L 554.927533 370.718182 
L 554.927533 370.718182 
" clip-path="url(#p1e6861ab36)" style="fill: none; stroke: #ff7f0e; stroke-width: 1.5; stroke-linecap: square"/>
   </g>
   <g id="line2d_22">
    <path d="M 56.9 41.881818 
L 60.242467 41.881818 
L 63.584933 41.881818 
L 66.9274 41.881818 
L 70.269867 41.881818 
L 73.612333 41.881818 
L 76.9548 41.881818 
L 80.297267 41.881818 
L 83.639733 41.881818 
L 86.9822 41.881818 
L 90.324667 41.881818 
L 93.667133 41.881818 
L 97.0096 41.881818 
L 100.352067 41.881818 
L 103.694533 41.881818 
L 107.037 41.881818 
L 110.379467 41.881818 
L 113.721933 41.881818 
L 117.0644 41.881818 
L 120.406867 41.881818 
L 123.749333 41.881818 
L 127.0918 41.881818 
L 130.434267 41.881818 
L 133.776733 41.881818 
L 137.1192 41.881818 
L 140.461667 41.881818 
L 143.804133 41.881818 
L 147.1466 41.881818 
L 150.489067 41.881818 
L 153.831533 41.881818 
L 157.174 41.881818 
L 160.516467 41.881818 
L 163.858933 41.881818 
L 167.2014 41.881818 
L 170.543867 41.881818 
L 173.886333 41.881818 
L 177.2288 41.881818 
L 180.571267 41.881818 
L 183.913733 41.881818 
L 187.2562 41.881818 
L 190.598667 41.881818 
L 193.941133 41.881818 
L 197.2836 41.881818 
L 200.626067 41.881818 
L 203.968533 41.881818 
L 207.311 41.881818 
L 210.653467 41.881818 
L 213.995933 41.881818 
L 217.3384 41.881818 
L 220.680867 41.881818 
L 224.023333 41.881818 
L 227.3658 41.881818 
L 230.708267 41.881818 
L 234.050733 41.881818 
L 237.3932 41.881818 
L 240.735667 41.881818 
L 244.078133 41.881818 
L 247.4206 41.881818 
L 250.763067 41.881818 
L 254.105533 41.881818 
L 257.448 41.881818 
L 260.790467 41.881818 
L 264.132933 41.881818 
L 267.4754 41.881818 
L 270.817867 41.881818 
L 274.160333 41.881818 
L 277.5028 41.881818 
L 280.845267 41.881818 
L 284.187733 41.881818 
L 287.5302 41.881818 
" clip-path="url(#p1e6861ab36)" style="fill: none; stroke-dasharray: 5.55,2.4; stroke-dashoffset: 0; stroke: #1f77b4; stroke-width: 1.5"/>
   </g>
   <g id="line2d_23">
    <path d="M 290.872667 370.718182 
L 290.872667 41.881818 
L 290.872667 41.881818 
" clip-path="url(#p1e6861ab36)" style="fill: none; stroke-dasharray: 5.55,2.4; stroke-dashoffset: 0; stroke: #1f77b4; stroke-width: 1.5"/>
   </g>
   <g id="patch_3">
    <path d="M 56.9 387.16 
L 56.9 25.44 
" style="fill: none; stroke: #000000; stroke-width: 0.8; stroke-linejoin: miter; stroke-linecap: square"/>
   </g>
   <g id="patch_4">
    <path d="M 558.27 387.16 
L 558.27 25.44 
" style="fill: none; stroke: #000000; stroke-width: 0.8; stroke-linejoin: miter; stroke-linecap: square"/>
   </g>
   <g id="patch_5">
    <path d="M 56.9 387.16 
L 558.27 387.16 
" style="fill: none; stroke: #000000; stroke-width: 0.8; stroke-linejoin: miter; stroke-linecap: square"/>
   </g>
   <g id="patch_6">
    <path d="M 56.9 25.44 
L 558.27 25.44 
" style="fill: none; stroke: #000000; stroke-width: 0.8; stroke-linejoin: miter; stroke-linecap: square"/>
   </g>
   <g id="text_13">
    <g id="patch_7">
     <path d="M 407.859 108.884 
L 524.859 108.884 
Q 533.859 108.884 533.859 99.884 
L 533.859 79.525563 
Q 533.859 70.525563 524.859 70.525563 
L 407.859 70.525563 
Q 398.859 70.525563 398.859 79.525563 
L 398.859 99.884 
Q 398.859 108.884 407.859 108.884 
z
" style="fill: #ffffff; opacity: 0.9; stroke: #000000; stroke-linejoin: miter"/>
    </g>
    <!-- Max AD range = 16.66 nm -->
    <g transform="translate(407.859 86.8115) scale(0.1 -0.1)">
     <defs>
      <path id="Helvetica-4d" d="M 472 4591 
L 1363 4591 
L 2681 709 
L 3991 4591 
L 4872 4591 
L 4872 0 
L 4281 0 
L 4281 2709 
Q 4281 2850 4287 3175 
Q 4294 3500 4294 3872 
L 2984 0 
L 2369 0 
L 1050 3872 
L 1050 3731 
Q 1050 3563 1058 3217 
Q 1066 2872 1066 2709 
L 1066 0 
L 472 0 
L 472 4591 
z
" transform="scale(0.015625)"/>
      <path id="Helvetica-78" d="M 94 3347 
L 822 3347 
L 1591 2169 
L 2369 3347 
L 3053 3331 
L 1925 1716 
L 3103 0 
L 2384 0 
L 1553 1256 
L 747 0 
L 34 0 
L 1213 1716 
L 94 3347 
z
" transform="scale(0.015625)"/>
      <path id="Helvetica-3d" d="M 3547 2569 
L 3547 2044 
L 288 2044 
L 288 2569 
L 3547 2569 
z
M 3547 1228 
L 3547 694 
L 288 694 
L 288 1228 
L 3547 1228 
z
" transform="scale(0.015625)"/>
     </defs>
     <use xlink:href="#Helvetica-4d"/>
     <use xlink:href="#Helvetica-61" transform="translate(83.300781 0)"/>
     <use xlink:href="#Helvetica-78" transform="translate(138.916016 0)"/>
     <use xlink:href="#Helvetica-20" transform="translate(188.916016 0)"/>
     <use xlink:href="#Helvetica-41" transform="translate(216.699219 0)"/>
     <use xlink:href="#Helvetica-44" transform="translate(283.398438 0)"/>
     <use xlink:href="#Helvetica-20" transform="translate(355.615234 0)"/>
     <use xlink:href="#Helvetica-72" transform="translate(383.398438 0)"/>
     <use xlink:href="#Helvetica-61" transform="translate(416.699219 0)"/>
     <use xlink:href="#Helvetica-6e" transform="translate(472.314453 0)"/>
     <use xlink:href="#Helvetica-67" transform="translate(527.929688 0)"/>
     <use xlink:href="#Helvetica-65" transform="translate(583.544922 0)"/>
     <use xlink:href="#Helvetica-20" transform="translate(639.160156 0)"/>
     <use xlink:href="#Helvetica-3d" transform="translate(666.943359 0)"/>
     <use xlink:href="#Helvetica-20" transform="translate(725.341797 0)"/>
     <use xlink:href="#Helvetica-31" transform="translate(753.125 0)"/>
     <use xlink:href="#Helvetica-36" transform="translate(808.740234 0)"/>
     <use xlink:href="#Helvetica-2e" transform="translate(864.355469 0)"/>
     <use xlink:href="#Helvetica-36" transform="translate(892.138672 0)"/>
     <use xlink:href="#Helvetica-36" transform="translate(947.753906 0)"/>
     <use xlink:href="#Helvetica-20" transform="translate(1003.369141 0)"/>
     <use xlink:href="#Helvetica-6e" transform="translate(1031.152344 0)"/>
     <use xlink:href="#Helvetica-6d" transform="translate(1086.767578 0)"/>
    </g>
    <!-- $g_{co}$ $L_{co}$= 0.8000 -->
    <g transform="translate(407.859 97.784) scale(0.1 -0.1)">
     <use xlink:href="#DejaVuSans-Oblique-67" transform="translate(0 0.09375)"/>
     <use xlink:href="#DejaVuSans-Oblique-63" transform="translate(63.476562 -16.3125) scale(0.7)"/>
     <use xlink:href="#DejaVuSans-Oblique-6f" transform="translate(101.962891 -16.3125) scale(0.7)"/>
     <use xlink:href="#Helvetica-20" transform="translate(147.524414 0.09375)"/>
     <use xlink:href="#DejaVuSans-Oblique-4c" transform="translate(175.307617 0.09375)"/>
     <use xlink:href="#DejaVuSans-Oblique-63" transform="translate(231.020508 -16.3125) scale(0.7)"/>
     <use xlink:href="#DejaVuSans-Oblique-6f" transform="translate(269.506836 -16.3125) scale(0.7)"/>
     <use xlink:href="#Helvetica-3d" transform="translate(315.068359 0.09375)"/>
     <use xlink:href="#Helvetica-20" transform="translate(373.466797 0.09375)"/>
     <use xlink:href="#Helvetica-30" transform="translate(401.25 0.09375)"/>
     <use xlink:href="#Helvetica-2e" transform="translate(456.865234 0.09375)"/>
     <use xlink:href="#Helvetica-38" transform="translate(484.648438 0.09375)"/>
     <use xlink:href="#Helvetica-30" transform="translate(540.263672 0.09375)"/>
     <use xlink:href="#Helvetica-30" transform="translate(595.878906 0.09375)"/>
     <use xlink:href="#Helvetica-30" transform="translate(651.494141 0.09375)"/>
    </g>
   </g>
   <g id="text_14">
    <!-- Anomalous Dispersion range of Mode number non-conservation coupling -->
    <g transform="translate(113.486875 19.44) scale(0.12 -0.12)">
     <defs>
      <path id="Helvetica-66" d="M 553 3856 
Q 566 4206 675 4369 
Q 872 4656 1434 4656 
Q 1488 4656 1544 4653 
Q 1600 4650 1672 4644 
L 1672 4131 
Q 1584 4138 1545 4139 
Q 1506 4141 1472 4141 
Q 1216 4141 1166 4008 
Q 1116 3875 1116 3331 
L 1672 3331 
L 1672 2888 
L 1109 2888 
L 1109 0 
L 553 0 
L 553 2888 
L 88 2888 
L 88 3331 
L 553 3331 
L 553 3856 
z
" transform="scale(0.015625)"/>
      <path id="Helvetica-64" d="M 769 1634 
Q 769 1097 997 734 
Q 1225 372 1728 372 
Q 2119 372 2370 708 
Q 2622 1044 2622 1672 
Q 2622 2306 2362 2611 
Q 2103 2916 1722 2916 
Q 1297 2916 1033 2591 
Q 769 2266 769 1634 
z
M 1616 3406 
Q 2000 3406 2259 3244 
Q 2409 3150 2600 2916 
L 2600 4606 
L 3141 4606 
L 3141 0 
L 2634 0 
L 2634 466 
Q 2438 156 2169 18 
Q 1900 -119 1553 -119 
Q 994 -119 584 351 
Q 175 822 175 1603 
Q 175 2334 548 2870 
Q 922 3406 1616 3406 
z
" transform="scale(0.015625)"/>
      <path id="Helvetica-62" d="M 369 4606 
L 916 4606 
L 916 2941 
Q 1100 3181 1356 3307 
Q 1613 3434 1913 3434 
Q 2538 3434 2927 3004 
Q 3316 2575 3316 1738 
Q 3316 944 2931 419 
Q 2547 -106 1866 -106 
Q 1484 -106 1222 78 
Q 1066 188 888 428 
L 888 0 
L 369 0 
L 369 4606 
z
M 1831 391 
Q 2288 391 2514 753 
Q 2741 1116 2741 1709 
Q 2741 2238 2514 2584 
Q 2288 2931 1847 2931 
Q 1463 2931 1173 2647 
Q 884 2363 884 1709 
Q 884 1238 1003 944 
Q 1225 391 1831 391 
z
" transform="scale(0.015625)"/>
      <path id="Helvetica-2d" d="M 266 2072 
L 1834 2072 
L 1834 1494 
L 266 1494 
L 266 2072 
z
" transform="scale(0.015625)"/>
      <path id="Helvetica-63" d="M 1703 3444 
Q 2269 3444 2623 3169 
Q 2978 2894 3050 2222 
L 2503 2222 
Q 2453 2531 2275 2736 
Q 2097 2941 1703 2941 
Q 1166 2941 934 2416 
Q 784 2075 784 1575 
Q 784 1072 996 728 
Q 1209 384 1666 384 
Q 2016 384 2220 598 
Q 2425 813 2503 1184 
L 3050 1184 
Q 2956 519 2581 211 
Q 2206 -97 1622 -97 
Q 966 -97 575 383 
Q 184 863 184 1581 
Q 184 2463 612 2953 
Q 1041 3444 1703 3444 
z
M 1616 3428 
L 1616 3428 
z
" transform="scale(0.015625)"/>
      <path id="Helvetica-76" d="M 688 3347 
L 1581 622 
L 2516 3347 
L 3131 3347 
L 1869 0 
L 1269 0 
L 34 3347 
L 688 3347 
z
" transform="scale(0.015625)"/>
      <path id="Helvetica-74" d="M 525 4281 
L 1094 4281 
L 1094 3347 
L 1628 3347 
L 1628 2888 
L 1094 2888 
L 1094 703 
Q 1094 528 1213 469 
Q 1278 434 1431 434 
Q 1472 434 1519 436 
Q 1566 438 1628 444 
L 1628 0 
Q 1531 -28 1426 -40 
Q 1322 -53 1200 -53 
Q 806 -53 665 148 
Q 525 350 525 672 
L 525 2888 
L 72 2888 
L 72 3347 
L 525 3347 
L 525 4281 
z
" transform="scale(0.015625)"/>
     </defs>
     <use xlink:href="#Helvetica-41"/>
     <use xlink:href="#Helvetica-6e" transform="translate(66.699219 0)"/>
     <use xlink:href="#Helvetica-6f" transform="translate(122.314453 0)"/>
     <use xlink:href="#Helvetica-6d" transform="translate(177.929688 0)"/>
     <use xlink:href="#Helvetica-61" transform="translate(261.230469 0)"/>
     <use xlink:href="#Helvetica-6c" transform="translate(316.845703 0)"/>
     <use xlink:href="#Helvetica-6f" transform="translate(339.0625 0)"/>
     <use xlink:href="#Helvetica-75" transform="translate(394.677734 0)"/>
     <use xlink:href="#Helvetica-73" transform="translate(450.292969 0)"/>
     <use xlink:href="#Helvetica-20" transform="translate(500.292969 0)"/>
     <use xlink:href="#Helvetica-44" transform="translate(528.076172 0)"/>
     <use xlink:href="#Helvetica-69" transform="translate(600.292969 0)"/>
     <use xlink:href="#Helvetica-73" transform="translate(622.509766 0)"/>
     <use xlink:href="#Helvetica-70" transform="translate(672.509766 0)"/>
     <use xlink:href="#Helvetica-65" transform="translate(728.125 0)"/>
     <use xlink:href="#Helvetica-72" transform="translate(783.740234 0)"/>
     <use xlink:href="#Helvetica-73" transform="translate(817.041016 0)"/>
     <use xlink:href="#Helvetica-69" transform="translate(867.041016 0)"/>
     <use xlink:href="#Helvetica-6f" transform="translate(889.257812 0)"/>
     <use xlink:href="#Helvetica-6e" transform="translate(944.873047 0)"/>
     <use xlink:href="#Helvetica-20" transform="translate(1000.488281 0)"/>
     <use xlink:href="#Helvetica-72" transform="translate(1028.271484 0)"/>
     <use xlink:href="#Helvetica-61" transform="translate(1061.572266 0)"/>
     <use xlink:href="#Helvetica-6e" transform="translate(1117.1875 0)"/>
     <use xlink:href="#Helvetica-67" transform="translate(1172.802734 0)"/>
     <use xlink:href="#Helvetica-65" transform="translate(1228.417969 0)"/>
     <use xlink:href="#Helvetica-20" transform="translate(1284.033203 0)"/>
     <use xlink:href="#Helvetica-6f" transform="translate(1311.816406 0)"/>
     <use xlink:href="#Helvetica-66" transform="translate(1367.431641 0)"/>
     <use xlink:href="#Helvetica-20" transform="translate(1395.214844 0)"/>
     <use xlink:href="#Helvetica-4d" transform="translate(1422.998047 0)"/>
     <use xlink:href="#Helvetica-6f" transform="translate(1506.298828 0)"/>
     <use xlink:href="#Helvetica-64" transform="translate(1561.914062 0)"/>
     <use xlink:href="#Helvetica-65" transform="translate(1617.529297 0)"/>
     <use xlink:href="#Helvetica-20" transform="translate(1673.144531 0)"/>
     <use xlink:href="#Helvetica-6e" transform="translate(1700.927734 0)"/>
     <use xlink:href="#Helvetica-75" transform="translate(1756.542969 0)"/>
     <use xlink:href="#Helvetica-6d" transform="translate(1812.158203 0)"/>
     <use xlink:href="#Helvetica-62" transform="translate(1895.458984 0)"/>
     <use xlink:href="#Helvetica-65" transform="translate(1951.074219 0)"/>
     <use xlink:href="#Helvetica-72" transform="translate(2006.689453 0)"/>
     <use xlink:href="#Helvetica-20" transform="translate(2039.990234 0)"/>
     <use xlink:href="#Helvetica-6e" transform="translate(2067.773438 0)"/>
     <use xlink:href="#Helvetica-6f" transform="translate(2123.388672 0)"/>
     <use xlink:href="#Helvetica-6e" transform="translate(2179.003906 0)"/>
     <use xlink:href="#Helvetica-2d" transform="translate(2234.619141 0)"/>
     <use xlink:href="#Helvetica-63" transform="translate(2267.919922 0)"/>
     <use xlink:href="#Helvetica-6f" transform="translate(2317.919922 0)"/>
     <use xlink:href="#Helvetica-6e" transform="translate(2373.535156 0)"/>
     <use xlink:href="#Helvetica-73" transform="translate(2429.150391 0)"/>
     <use xlink:href="#Helvetica-65" transform="translate(2479.150391 0)"/>
     <use xlink:href="#Helvetica-72" transform="translate(2534.765625 0)"/>
     <use xlink:href="#Helvetica-76" transform="translate(2568.066406 0)"/>
     <use xlink:href="#Helvetica-61" transform="translate(2618.066406 0)"/>
     <use xlink:href="#Helvetica-74" transform="translate(2673.681641 0)"/>
     <use xlink:href="#Helvetica-69" transform="translate(2701.464844 0)"/>
     <use xlink:href="#Helvetica-6f" transform="translate(2723.681641 0)"/>
     <use xlink:href="#Helvetica-6e" transform="translate(2779.296875 0)"/>
     <use xlink:href="#Helvetica-20" transform="translate(2834.912109 0)"/>
     <use xlink:href="#Helvetica-63" transform="translate(2862.695312 0)"/>
     <use xlink:href="#Helvetica-6f" transform="translate(2912.695312 0)"/>
     <use xlink:href="#Helvetica-75" transform="translate(2968.310547 0)"/>
     <use xlink:href="#Helvetica-70" transform="translate(3023.925781 0)"/>
     <use xlink:href="#Helvetica-6c" transform="translate(3079.541016 0)"/>
     <use xlink:href="#Helvetica-69" transform="translate(3101.757812 0)"/>
     <use xlink:href="#Helvetica-6e" transform="translate(3123.974609 0)"/>
     <use xlink:href="#Helvetica-67" transform="translate(3179.589844 0)"/>
    </g>
   </g>
   <g id="legend_1">
    <g id="patch_8">
     <path d="M 440.891875 47.825938 
L 551.27 47.825938 
Q 553.27 47.825938 553.27 45.825938 
L 553.27 32.44 
Q 553.27 30.44 551.27 30.44 
L 440.891875 30.44 
Q 438.891875 30.44 438.891875 32.44 
L 438.891875 45.825938 
Q 438.891875 47.825938 440.891875 47.825938 
z
" style="fill: #ffffff; opacity: 0.8; stroke: #cccccc; stroke-linejoin: miter"/>
    </g>
    <g id="line2d_24">
     <path d="M 442.891875 38.113438 
L 452.891875 38.113438 
L 462.891875 38.113438 
" style="fill: none; stroke: #ff7f0e; stroke-width: 1.5; stroke-linecap: square"/>
    </g>
    <g id="text_15">
     <!-- Anomalous range -->
     <g transform="translate(470.891875 41.613438) scale(0.1 -0.1)">
      <use xlink:href="#Helvetica-41"/>
      <use xlink:href="#Helvetica-6e" transform="translate(66.699219 0)"/>
      <use xlink:href="#Helvetica-6f" transform="translate(122.314453 0)"/>
      <use xlink:href="#Helvetica-6d" transform="translate(177.929688 0)"/>
      <use xlink:href="#Helvetica-61" transform="translate(261.230469 0)"/>
      <use xlink:href="#Helvetica-6c" transform="translate(316.845703 0)"/>
      <use xlink:href="#Helvetica-6f" transform="translate(339.0625 0)"/>
      <use xlink:href="#Helvetica-75" transform="translate(394.677734 0)"/>
      <use xlink:href="#Helvetica-73" transform="translate(450.292969 0)"/>
      <use xlink:href="#Helvetica-20" transform="translate(500.292969 0)"/>
      <use xlink:href="#Helvetica-72" transform="translate(528.076172 0)"/>
      <use xlink:href="#Helvetica-61" transform="translate(561.376953 0)"/>
      <use xlink:href="#Helvetica-6e" transform="translate(616.992188 0)"/>
      <use xlink:href="#Helvetica-67" transform="translate(672.607422 0)"/>
      <use xlink:href="#Helvetica-65" transform="translate(728.222656 0)"/>
     </g>
    </g>
   </g>
  </g>
 </g>
 <defs>
  <clipPath id="p1e6861ab36">
   <rect x="56.9" y="25.44" width="501.37" height="361.72"/>
  </clipPath>
 </defs>
</svg>
