<?xml version="1.0" encoding="utf-8" standalone="no"?>
<!DOCTYPE svg PUBLIC "-//W3C//DTD SVG 1.1//EN"
  "http://www.w3.org/Graphics/SVG/1.1/DTD/svg11.dtd">
<svg xmlns:xlink="http://www.w3.org/1999/xlink" width="576pt" height="432pt" viewBox="0 0 576 432" xmlns="http://www.w3.org/2000/svg" version="1.1">
 <metadata>
  <rdf:RDF xmlns:dc="http://purl.org/dc/elements/1.1/" xmlns:cc="http://creativecommons.org/ns#" xmlns:rdf="http://www.w3.org/1999/02/22-rdf-syntax-ns#">
   <cc:Work>
    <dc:type rdf:resource="http://purl.org/dc/dcmitype/StillImage"/>
    <dc:date>2025-05-05T13:02:08.129569</dc:date>
    <dc:format>image/svg+xml</dc:format>
    <dc:creator>
     <cc:Agent>
      <dc:title>Matplotlib v3.10.0, https://matplotlib.org/</dc:title>
     </cc:Agent>
    </dc:creator>
   </cc:Work>
  </rdf:RDF>
 </metadata>
 <defs>
  <style type="text/css">*{stroke-linejoin: round; stroke-linecap: butt}</style>
 </defs>
 <g id="figure_1">
  <g id="patch_1">
   <path d="M 0 432 
L 576 432 
L 576 0 
L 0 0 
z
" style="fill: #ffffff"/>
  </g>
  <g id="axes_1">
   <g id="patch_2">
    <path d="M 74.27 387.592 
L 548.309115 387.592 
L 548.309115 25.44 
L 74.27 25.44 
z
" style="fill: #ffffff"/>
   </g>
   <g id="patch_3">
    <path d="M 74.27 183.776484 
L 548.309115 183.776484 
L 548.309115 25.44 
L 74.27 25.44 
z
" clip-path="url(#p2572f953d2)" style="fill: #008000; opacity: 0.1; stroke: #008000; stroke-linejoin: miter"/>
   </g>
   <g id="matplotlib.axis_1">
    <g id="xtick_1">
     <g id="line2d_1">
      <path d="M 74.27 387.592 
L 74.27 25.44 
" clip-path="url(#p2572f953d2)" style="fill: none; stroke: #b0b0b0; stroke-opacity: 0.3; stroke-width: 0.8; stroke-linecap: square"/>
     </g>
     <g id="line2d_2">
      <defs>
       <path id="m44425505e7" d="M 0 0 
L 0 3.5 
" style="stroke: #000000; stroke-width: 0.8"/>
      </defs>
      <g>
       <use xlink:href="#m44425505e7" x="74.27" y="387.592" style="stroke: #000000; stroke-width: 0.8"/>
      </g>
     </g>
     <g id="text_1">
      <!-- $M_0$-3M -->
      <g transform="translate(58.97 401.765438) scale(0.1 -0.1)">
       <defs>
        <path id="DejaVuSans-Oblique-4d" d="M 1081 4666 
L 2028 4666 
L 2572 1522 
L 4378 4666 
L 5350 4666 
L 4441 0 
L 3828 0 
L 4622 4091 
L 2791 897 
L 2175 897 
L 1581 4103 
L 788 0 
L 172 0 
L 1081 4666 
z
" transform="scale(0.015625)"/>
        <path id="DejaVuSans-30" d="M 2034 4250 
Q 1547 4250 1301 3770 
Q 1056 3291 1056 2328 
Q 1056 1369 1301 889 
Q 1547 409 2034 409 
Q 2525 409 2770 889 
Q 3016 1369 3016 2328 
Q 3016 3291 2770 3770 
Q 2525 4250 2034 4250 
z
M 2034 4750 
Q 2819 4750 3233 4129 
Q 3647 3509 3647 2328 
Q 3647 1150 3233 529 
Q 2819 -91 2034 -91 
Q 1250 -91 836 529 
Q 422 1150 422 2328 
Q 422 3509 836 4129 
Q 1250 4750 2034 4750 
z
" transform="scale(0.015625)"/>
        <path id="Helvetica-2d" d="M 266 2072 
L 1834 2072 
L 1834 1494 
L 266 1494 
L 266 2072 
z
" transform="scale(0.015625)"/>
        <path id="Helvetica-33" d="M 1663 -122 
Q 869 -122 511 314 
Q 153 750 153 1375 
L 741 1375 
Q 778 941 903 744 
Q 1122 391 1694 391 
Q 2138 391 2406 628 
Q 2675 866 2675 1241 
Q 2675 1703 2392 1887 
Q 2109 2072 1606 2072 
Q 1550 2072 1492 2070 
Q 1434 2069 1375 2066 
L 1375 2563 
Q 1463 2553 1522 2550 
Q 1581 2547 1650 2547 
Q 1966 2547 2169 2647 
Q 2525 2822 2525 3272 
Q 2525 3606 2287 3787 
Q 2050 3969 1734 3969 
Q 1172 3969 956 3594 
Q 838 3388 822 3006 
L 266 3006 
Q 266 3506 466 3856 
Q 809 4481 1675 4481 
Q 2359 4481 2734 4176 
Q 3109 3872 3109 3294 
Q 3109 2881 2888 2625 
Q 2750 2466 2531 2375 
Q 2884 2278 3082 2001 
Q 3281 1725 3281 1325 
Q 3281 684 2859 281 
Q 2438 -122 1663 -122 
z
" transform="scale(0.015625)"/>
        <path id="Helvetica-4d" d="M 472 4591 
L 1363 4591 
L 2681 709 
L 3991 4591 
L 4872 4591 
L 4872 0 
L 4281 0 
L 4281 2709 
Q 4281 2850 4287 3175 
Q 4294 3500 4294 3872 
L 2984 0 
L 2369 0 
L 1050 3872 
L 1050 3731 
Q 1050 3563 1058 3217 
Q 1066 2872 1066 2709 
L 1066 0 
L 472 0 
L 472 4591 
z
" transform="scale(0.015625)"/>
       </defs>
       <use xlink:href="#DejaVuSans-Oblique-4d" transform="translate(0 0.09375)"/>
       <use xlink:href="#DejaVuSans-30" transform="translate(86.279297 -16.3125) scale(0.7)"/>
       <use xlink:href="#Helvetica-2d" transform="translate(133.549805 0.09375)"/>
       <use xlink:href="#Helvetica-33" transform="translate(166.850586 0.09375)"/>
       <use xlink:href="#Helvetica-4d" transform="translate(222.46582 0.09375)"/>
      </g>
     </g>
    </g>
    <g id="xtick_2">
     <g id="line2d_3">
      <path d="M 153.276519 387.592 
L 153.276519 25.44 
" clip-path="url(#p2572f953d2)" style="fill: none; stroke: #b0b0b0; stroke-opacity: 0.3; stroke-width: 0.8; stroke-linecap: square"/>
     </g>
     <g id="line2d_4">
      <g>
       <use xlink:href="#m44425505e7" x="153.276519" y="387.592" style="stroke: #000000; stroke-width: 0.8"/>
      </g>
     </g>
     <g id="text_2">
      <!-- $M_0$-2M -->
      <g transform="translate(137.976519 401.765438) scale(0.1 -0.1)">
       <defs>
        <path id="Helvetica-32" d="M 200 0 
Q 231 578 439 1006 
Q 647 1434 1250 1784 
L 1850 2131 
Q 2253 2366 2416 2531 
Q 2672 2791 2672 3125 
Q 2672 3516 2437 3745 
Q 2203 3975 1813 3975 
Q 1234 3975 1013 3538 
Q 894 3303 881 2888 
L 309 2888 
Q 319 3472 525 3841 
Q 891 4491 1816 4491 
Q 2584 4491 2939 4075 
Q 3294 3659 3294 3150 
Q 3294 2613 2916 2231 
Q 2697 2009 2131 1694 
L 1703 1456 
Q 1397 1288 1222 1134 
Q 909 863 828 531 
L 3272 531 
L 3272 0 
L 200 0 
z
" transform="scale(0.015625)"/>
       </defs>
       <use xlink:href="#DejaVuSans-Oblique-4d" transform="translate(0 0.09375)"/>
       <use xlink:href="#DejaVuSans-30" transform="translate(86.279297 -16.3125) scale(0.7)"/>
       <use xlink:href="#Helvetica-2d" transform="translate(133.549805 0.09375)"/>
       <use xlink:href="#Helvetica-32" transform="translate(166.850586 0.09375)"/>
       <use xlink:href="#Helvetica-4d" transform="translate(222.46582 0.09375)"/>
      </g>
     </g>
    </g>
    <g id="xtick_3">
     <g id="line2d_5">
      <path d="M 232.283038 387.592 
L 232.283038 25.44 
" clip-path="url(#p2572f953d2)" style="fill: none; stroke: #b0b0b0; stroke-opacity: 0.3; stroke-width: 0.8; stroke-linecap: square"/>
     </g>
     <g id="line2d_6">
      <g>
       <use xlink:href="#m44425505e7" x="232.283038" y="387.592" style="stroke: #000000; stroke-width: 0.8"/>
      </g>
     </g>
     <g id="text_3">
      <!-- $M_0$-1M -->
      <g transform="translate(216.983038 401.765438) scale(0.1 -0.1)">
       <defs>
        <path id="Helvetica-31" d="M 613 3169 
L 613 3600 
Q 1222 3659 1462 3798 
Q 1703 3938 1822 4456 
L 2266 4456 
L 2266 0 
L 1666 0 
L 1666 3169 
L 613 3169 
z
" transform="scale(0.015625)"/>
       </defs>
       <use xlink:href="#DejaVuSans-Oblique-4d" transform="translate(0 0.09375)"/>
       <use xlink:href="#DejaVuSans-30" transform="translate(86.279297 -16.3125) scale(0.7)"/>
       <use xlink:href="#Helvetica-2d" transform="translate(133.549805 0.09375)"/>
       <use xlink:href="#Helvetica-31" transform="translate(166.850586 0.09375)"/>
       <use xlink:href="#Helvetica-4d" transform="translate(222.46582 0.09375)"/>
      </g>
     </g>
    </g>
    <g id="xtick_4">
     <g id="line2d_7">
      <path d="M 311.289557 387.592 
L 311.289557 25.44 
" clip-path="url(#p2572f953d2)" style="fill: none; stroke: #b0b0b0; stroke-opacity: 0.3; stroke-width: 0.8; stroke-linecap: square"/>
     </g>
     <g id="line2d_8">
      <g>
       <use xlink:href="#m44425505e7" x="311.289557" y="387.592" style="stroke: #000000; stroke-width: 0.8"/>
      </g>
     </g>
     <g id="text_4">
      <!-- $M_0$ -->
      <g transform="translate(304.589557 401.765438) scale(0.1 -0.1)">
       <use xlink:href="#DejaVuSans-Oblique-4d" transform="translate(0 0.09375)"/>
       <use xlink:href="#DejaVuSans-30" transform="translate(86.279297 -16.3125) scale(0.7)"/>
      </g>
     </g>
    </g>
    <g id="xtick_5">
     <g id="line2d_9">
      <path d="M 390.296077 387.592 
L 390.296077 25.44 
" clip-path="url(#p2572f953d2)" style="fill: none; stroke: #b0b0b0; stroke-opacity: 0.3; stroke-width: 0.8; stroke-linecap: square"/>
     </g>
     <g id="line2d_10">
      <g>
       <use xlink:href="#m44425505e7" x="390.296077" y="387.592" style="stroke: #000000; stroke-width: 0.8"/>
      </g>
     </g>
     <g id="text_5">
      <!-- $M_0$+1M -->
      <g transform="translate(373.746077 401.765438) scale(0.1 -0.1)">
       <defs>
        <path id="Helvetica-2b" d="M 288 1369 
L 288 1894 
L 1650 1894 
L 1650 3266 
L 2184 3266 
L 2184 1894 
L 3547 1894 
L 3547 1369 
L 2184 1369 
L 2184 0 
L 1650 0 
L 1650 1369 
L 288 1369 
z
" transform="scale(0.015625)"/>
       </defs>
       <use xlink:href="#DejaVuSans-Oblique-4d" transform="translate(0 0.09375)"/>
       <use xlink:href="#DejaVuSans-30" transform="translate(86.279297 -16.3125) scale(0.7)"/>
       <use xlink:href="#Helvetica-2b" transform="translate(133.549805 0.09375)"/>
       <use xlink:href="#Helvetica-31" transform="translate(191.948242 0.09375)"/>
       <use xlink:href="#Helvetica-4d" transform="translate(247.563477 0.09375)"/>
      </g>
     </g>
    </g>
    <g id="xtick_6">
     <g id="line2d_11">
      <path d="M 469.302596 387.592 
L 469.302596 25.44 
" clip-path="url(#p2572f953d2)" style="fill: none; stroke: #b0b0b0; stroke-opacity: 0.3; stroke-width: 0.8; stroke-linecap: square"/>
     </g>
     <g id="line2d_12">
      <g>
       <use xlink:href="#m44425505e7" x="469.302596" y="387.592" style="stroke: #000000; stroke-width: 0.8"/>
      </g>
     </g>
     <g id="text_6">
      <!-- $M_0$+2M -->
      <g transform="translate(452.752596 401.765438) scale(0.1 -0.1)">
       <use xlink:href="#DejaVuSans-Oblique-4d" transform="translate(0 0.09375)"/>
       <use xlink:href="#DejaVuSans-30" transform="translate(86.279297 -16.3125) scale(0.7)"/>
       <use xlink:href="#Helvetica-2b" transform="translate(133.549805 0.09375)"/>
       <use xlink:href="#Helvetica-32" transform="translate(191.948242 0.09375)"/>
       <use xlink:href="#Helvetica-4d" transform="translate(247.563477 0.09375)"/>
      </g>
     </g>
    </g>
    <g id="xtick_7">
     <g id="line2d_13">
      <path d="M 548.309115 387.592 
L 548.309115 25.44 
" clip-path="url(#p2572f953d2)" style="fill: none; stroke: #b0b0b0; stroke-opacity: 0.3; stroke-width: 0.8; stroke-linecap: square"/>
     </g>
     <g id="line2d_14">
      <g>
       <use xlink:href="#m44425505e7" x="548.309115" y="387.592" style="stroke: #000000; stroke-width: 0.8"/>
      </g>
     </g>
     <g id="text_7">
      <!-- $M_0$+3M -->
      <g transform="translate(531.759115 401.765438) scale(0.1 -0.1)">
       <use xlink:href="#DejaVuSans-Oblique-4d" transform="translate(0 0.09375)"/>
       <use xlink:href="#DejaVuSans-30" transform="translate(86.279297 -16.3125) scale(0.7)"/>
       <use xlink:href="#Helvetica-2b" transform="translate(133.549805 0.09375)"/>
       <use xlink:href="#Helvetica-33" transform="translate(191.948242 0.09375)"/>
       <use xlink:href="#Helvetica-4d" transform="translate(247.563477 0.09375)"/>
      </g>
     </g>
    </g>
    <g id="text_8">
     <!-- mode number m -->
     <g transform="translate(274.888776 415.02325) scale(0.1 -0.1)">
      <defs>
       <path id="Helvetica-6d" d="M 413 3347 
L 969 3347 
L 969 2872 
Q 1169 3119 1331 3231 
Q 1609 3422 1963 3422 
Q 2363 3422 2606 3225 
Q 2744 3113 2856 2894 
Q 3044 3163 3297 3292 
Q 3550 3422 3866 3422 
Q 4541 3422 4784 2934 
Q 4916 2672 4916 2228 
L 4916 0 
L 4331 0 
L 4331 2325 
Q 4331 2659 4164 2784 
Q 3997 2909 3756 2909 
Q 3425 2909 3186 2687 
Q 2947 2466 2947 1947 
L 2947 0 
L 2375 0 
L 2375 2184 
Q 2375 2525 2294 2681 
Q 2166 2916 1816 2916 
Q 1497 2916 1236 2669 
Q 975 2422 975 1775 
L 975 0 
L 413 0 
L 413 3347 
z
" transform="scale(0.015625)"/>
       <path id="Helvetica-6f" d="M 1741 363 
Q 2300 363 2508 786 
Q 2716 1209 2716 1728 
Q 2716 2197 2566 2491 
Q 2328 2953 1747 2953 
Q 1231 2953 997 2559 
Q 763 2166 763 1609 
Q 763 1075 997 719 
Q 1231 363 1741 363 
z
M 1763 3444 
Q 2409 3444 2856 3012 
Q 3303 2581 3303 1744 
Q 3303 934 2909 406 
Q 2516 -122 1688 -122 
Q 997 -122 590 345 
Q 184 813 184 1600 
Q 184 2444 612 2944 
Q 1041 3444 1763 3444 
z
M 1744 3428 
L 1744 3428 
z
" transform="scale(0.015625)"/>
       <path id="Helvetica-64" d="M 769 1634 
Q 769 1097 997 734 
Q 1225 372 1728 372 
Q 2119 372 2370 708 
Q 2622 1044 2622 1672 
Q 2622 2306 2362 2611 
Q 2103 2916 1722 2916 
Q 1297 2916 1033 2591 
Q 769 2266 769 1634 
z
M 1616 3406 
Q 2000 3406 2259 3244 
Q 2409 3150 2600 2916 
L 2600 4606 
L 3141 4606 
L 3141 0 
L 2634 0 
L 2634 466 
Q 2438 156 2169 18 
Q 1900 -119 1553 -119 
Q 994 -119 584 351 
Q 175 822 175 1603 
Q 175 2334 548 2870 
Q 922 3406 1616 3406 
z
" transform="scale(0.015625)"/>
       <path id="Helvetica-65" d="M 1806 3422 
Q 2163 3422 2497 3255 
Q 2831 3088 3006 2822 
Q 3175 2569 3231 2231 
Q 3281 2000 3281 1494 
L 828 1494 
Q 844 984 1069 676 
Q 1294 369 1766 369 
Q 2206 369 2469 659 
Q 2619 828 2681 1050 
L 3234 1050 
Q 3213 866 3089 639 
Q 2966 413 2813 269 
Q 2556 19 2178 -69 
Q 1975 -119 1719 -119 
Q 1094 -119 659 336 
Q 225 791 225 1609 
Q 225 2416 662 2919 
Q 1100 3422 1806 3422 
z
M 2703 1941 
Q 2669 2306 2544 2525 
Q 2313 2931 1772 2931 
Q 1384 2931 1121 2651 
Q 859 2372 844 1941 
L 2703 1941 
z
M 1753 3428 
L 1753 3428 
z
" transform="scale(0.015625)"/>
       <path id="Helvetica-20" transform="scale(0.015625)"/>
       <path id="Helvetica-6e" d="M 413 3347 
L 947 3347 
L 947 2872 
Q 1184 3166 1450 3294 
Q 1716 3422 2041 3422 
Q 2753 3422 3003 2925 
Q 3141 2653 3141 2147 
L 3141 0 
L 2569 0 
L 2569 2109 
Q 2569 2416 2478 2603 
Q 2328 2916 1934 2916 
Q 1734 2916 1606 2875 
Q 1375 2806 1200 2600 
Q 1059 2434 1017 2257 
Q 975 2081 975 1753 
L 975 0 
L 413 0 
L 413 3347 
z
M 1734 3428 
L 1734 3428 
z
" transform="scale(0.015625)"/>
       <path id="Helvetica-75" d="M 975 3347 
L 975 1125 
Q 975 869 1056 706 
Q 1206 406 1616 406 
Q 2203 406 2416 931 
Q 2531 1213 2531 1703 
L 2531 3347 
L 3094 3347 
L 3094 0 
L 2563 0 
L 2569 494 
Q 2459 303 2297 172 
Q 1975 -91 1516 -91 
Q 800 -91 541 388 
Q 400 644 400 1072 
L 400 3347 
L 975 3347 
z
M 1747 3428 
L 1747 3428 
z
" transform="scale(0.015625)"/>
       <path id="Helvetica-62" d="M 369 4606 
L 916 4606 
L 916 2941 
Q 1100 3181 1356 3307 
Q 1613 3434 1913 3434 
Q 2538 3434 2927 3004 
Q 3316 2575 3316 1738 
Q 3316 944 2931 419 
Q 2547 -106 1866 -106 
Q 1484 -106 1222 78 
Q 1066 188 888 428 
L 888 0 
L 369 0 
L 369 4606 
z
M 1831 391 
Q 2288 391 2514 753 
Q 2741 1116 2741 1709 
Q 2741 2238 2514 2584 
Q 2288 2931 1847 2931 
Q 1463 2931 1173 2647 
Q 884 2363 884 1709 
Q 884 1238 1003 944 
Q 1225 391 1831 391 
z
" transform="scale(0.015625)"/>
       <path id="Helvetica-72" d="M 428 3347 
L 963 3347 
L 963 2769 
Q 1028 2938 1284 3180 
Q 1541 3422 1875 3422 
Q 1891 3422 1928 3419 
Q 1966 3416 2056 3406 
L 2056 2813 
Q 2006 2822 1964 2825 
Q 1922 2828 1872 2828 
Q 1447 2828 1219 2554 
Q 991 2281 991 1925 
L 991 0 
L 428 0 
L 428 3347 
z
" transform="scale(0.015625)"/>
      </defs>
      <use xlink:href="#Helvetica-6d"/>
      <use xlink:href="#Helvetica-6f" transform="translate(83.300781 0)"/>
      <use xlink:href="#Helvetica-64" transform="translate(138.916016 0)"/>
      <use xlink:href="#Helvetica-65" transform="translate(194.53125 0)"/>
      <use xlink:href="#Helvetica-20" transform="translate(250.146484 0)"/>
      <use xlink:href="#Helvetica-6e" transform="translate(277.929688 0)"/>
      <use xlink:href="#Helvetica-75" transform="translate(333.544922 0)"/>
      <use xlink:href="#Helvetica-6d" transform="translate(389.160156 0)"/>
      <use xlink:href="#Helvetica-62" transform="translate(472.460938 0)"/>
      <use xlink:href="#Helvetica-65" transform="translate(528.076172 0)"/>
      <use xlink:href="#Helvetica-72" transform="translate(583.691406 0)"/>
      <use xlink:href="#Helvetica-20" transform="translate(616.992188 0)"/>
      <use xlink:href="#Helvetica-6d" transform="translate(644.775391 0)"/>
     </g>
    </g>
   </g>
   <g id="matplotlib.axis_2">
    <g id="ytick_1">
     <g id="line2d_15">
      <path d="M 74.27 349.218899 
L 548.309115 349.218899 
" clip-path="url(#p2572f953d2)" style="fill: none; stroke: #b0b0b0; stroke-opacity: 0.3; stroke-width: 0.8; stroke-linecap: square"/>
     </g>
     <g id="line2d_16">
      <defs>
       <path id="m40e9606c88" d="M 0 0 
L -3.5 0 
" style="stroke: #000000; stroke-width: 0.8"/>
      </defs>
      <g>
       <use xlink:href="#m40e9606c88" x="74.27" y="349.218899" style="stroke: #000000; stroke-width: 0.8"/>
      </g>
     </g>
     <g id="text_9">
      <!-- -4000.00 -->
      <g transform="translate(27.796563 352.805617) scale(0.1 -0.1)">
       <defs>
        <path id="Helvetica-34" d="M 2116 1584 
L 2116 3613 
L 681 1584 
L 2116 1584 
z
M 2125 0 
L 2125 1094 
L 163 1094 
L 163 1644 
L 2213 4488 
L 2688 4488 
L 2688 1584 
L 3347 1584 
L 3347 1094 
L 2688 1094 
L 2688 0 
L 2125 0 
z
" transform="scale(0.015625)"/>
        <path id="Helvetica-30" d="M 1731 4475 
Q 2600 4475 2988 3759 
Q 3288 3206 3288 2244 
Q 3288 1331 3016 734 
Q 2622 -122 1728 -122 
Q 922 -122 528 578 
Q 200 1163 200 2147 
Q 200 2909 397 3456 
Q 766 4475 1731 4475 
z
M 1725 391 
Q 2163 391 2422 778 
Q 2681 1166 2681 2222 
Q 2681 2984 2493 3476 
Q 2306 3969 1766 3969 
Q 1269 3969 1039 3501 
Q 809 3034 809 2125 
Q 809 1441 956 1025 
Q 1181 391 1725 391 
z
" transform="scale(0.015625)"/>
        <path id="Helvetica-2e" d="M 547 681 
L 1200 681 
L 1200 0 
L 547 0 
L 547 681 
z
" transform="scale(0.015625)"/>
       </defs>
       <use xlink:href="#Helvetica-2d"/>
       <use xlink:href="#Helvetica-34" transform="translate(33.300781 0)"/>
       <use xlink:href="#Helvetica-30" transform="translate(88.916016 0)"/>
       <use xlink:href="#Helvetica-30" transform="translate(144.53125 0)"/>
       <use xlink:href="#Helvetica-30" transform="translate(200.146484 0)"/>
       <use xlink:href="#Helvetica-2e" transform="translate(255.761719 0)"/>
       <use xlink:href="#Helvetica-30" transform="translate(283.544922 0)"/>
       <use xlink:href="#Helvetica-30" transform="translate(339.160156 0)"/>
      </g>
     </g>
    </g>
    <g id="ytick_2">
     <g id="line2d_17">
      <path d="M 74.27 307.858295 
L 548.309115 307.858295 
" clip-path="url(#p2572f953d2)" style="fill: none; stroke: #b0b0b0; stroke-opacity: 0.3; stroke-width: 0.8; stroke-linecap: square"/>
     </g>
     <g id="line2d_18">
      <g>
       <use xlink:href="#m40e9606c88" x="74.27" y="307.858295" style="stroke: #000000; stroke-width: 0.8"/>
      </g>
     </g>
     <g id="text_10">
      <!-- -3000.00 -->
      <g transform="translate(27.796563 311.445014) scale(0.1 -0.1)">
       <use xlink:href="#Helvetica-2d"/>
       <use xlink:href="#Helvetica-33" transform="translate(33.300781 0)"/>
       <use xlink:href="#Helvetica-30" transform="translate(88.916016 0)"/>
       <use xlink:href="#Helvetica-30" transform="translate(144.53125 0)"/>
       <use xlink:href="#Helvetica-30" transform="translate(200.146484 0)"/>
       <use xlink:href="#Helvetica-2e" transform="translate(255.761719 0)"/>
       <use xlink:href="#Helvetica-30" transform="translate(283.544922 0)"/>
       <use xlink:href="#Helvetica-30" transform="translate(339.160156 0)"/>
      </g>
     </g>
    </g>
    <g id="ytick_3">
     <g id="line2d_19">
      <path d="M 74.27 266.497691 
L 548.309115 266.497691 
" clip-path="url(#p2572f953d2)" style="fill: none; stroke: #b0b0b0; stroke-opacity: 0.3; stroke-width: 0.8; stroke-linecap: square"/>
     </g>
     <g id="line2d_20">
      <g>
       <use xlink:href="#m40e9606c88" x="74.27" y="266.497691" style="stroke: #000000; stroke-width: 0.8"/>
      </g>
     </g>
     <g id="text_11">
      <!-- -2000.00 -->
      <g transform="translate(27.796563 270.08441) scale(0.1 -0.1)">
       <use xlink:href="#Helvetica-2d"/>
       <use xlink:href="#Helvetica-32" transform="translate(33.300781 0)"/>
       <use xlink:href="#Helvetica-30" transform="translate(88.916016 0)"/>
       <use xlink:href="#Helvetica-30" transform="translate(144.53125 0)"/>
       <use xlink:href="#Helvetica-30" transform="translate(200.146484 0)"/>
       <use xlink:href="#Helvetica-2e" transform="translate(255.761719 0)"/>
       <use xlink:href="#Helvetica-30" transform="translate(283.544922 0)"/>
       <use xlink:href="#Helvetica-30" transform="translate(339.160156 0)"/>
      </g>
     </g>
    </g>
    <g id="ytick_4">
     <g id="line2d_21">
      <path d="M 74.27 225.137087 
L 548.309115 225.137087 
" clip-path="url(#p2572f953d2)" style="fill: none; stroke: #b0b0b0; stroke-opacity: 0.3; stroke-width: 0.8; stroke-linecap: square"/>
     </g>
     <g id="line2d_22">
      <g>
       <use xlink:href="#m40e9606c88" x="74.27" y="225.137087" style="stroke: #000000; stroke-width: 0.8"/>
      </g>
     </g>
     <g id="text_12">
      <!-- -1000.00 -->
      <g transform="translate(27.796563 228.723806) scale(0.1 -0.1)">
       <use xlink:href="#Helvetica-2d"/>
       <use xlink:href="#Helvetica-31" transform="translate(33.300781 0)"/>
       <use xlink:href="#Helvetica-30" transform="translate(88.916016 0)"/>
       <use xlink:href="#Helvetica-30" transform="translate(144.53125 0)"/>
       <use xlink:href="#Helvetica-30" transform="translate(200.146484 0)"/>
       <use xlink:href="#Helvetica-2e" transform="translate(255.761719 0)"/>
       <use xlink:href="#Helvetica-30" transform="translate(283.544922 0)"/>
       <use xlink:href="#Helvetica-30" transform="translate(339.160156 0)"/>
      </g>
     </g>
    </g>
    <g id="ytick_5">
     <g id="line2d_23">
      <path d="M 74.27 183.776484 
L 548.309115 183.776484 
" clip-path="url(#p2572f953d2)" style="fill: none; stroke: #b0b0b0; stroke-opacity: 0.3; stroke-width: 0.8; stroke-linecap: square"/>
     </g>
     <g id="line2d_24">
      <g>
       <use xlink:href="#m40e9606c88" x="74.27" y="183.776484" style="stroke: #000000; stroke-width: 0.8"/>
      </g>
     </g>
     <g id="text_13">
      <!-- 0.00 -->
      <g transform="translate(47.809063 187.363202) scale(0.1 -0.1)">
       <use xlink:href="#Helvetica-30"/>
       <use xlink:href="#Helvetica-2e" transform="translate(55.615234 0)"/>
       <use xlink:href="#Helvetica-30" transform="translate(83.398438 0)"/>
       <use xlink:href="#Helvetica-30" transform="translate(139.013672 0)"/>
      </g>
     </g>
    </g>
    <g id="ytick_6">
     <g id="line2d_25">
      <path d="M 74.27 142.41588 
L 548.309115 142.41588 
" clip-path="url(#p2572f953d2)" style="fill: none; stroke: #b0b0b0; stroke-opacity: 0.3; stroke-width: 0.8; stroke-linecap: square"/>
     </g>
     <g id="line2d_26">
      <g>
       <use xlink:href="#m40e9606c88" x="74.27" y="142.41588" style="stroke: #000000; stroke-width: 0.8"/>
      </g>
     </g>
     <g id="text_14">
      <!-- 1000.00 -->
      <g transform="translate(31.12625 146.002599) scale(0.1 -0.1)">
       <use xlink:href="#Helvetica-31"/>
       <use xlink:href="#Helvetica-30" transform="translate(55.615234 0)"/>
       <use xlink:href="#Helvetica-30" transform="translate(111.230469 0)"/>
       <use xlink:href="#Helvetica-30" transform="translate(166.845703 0)"/>
       <use xlink:href="#Helvetica-2e" transform="translate(222.460938 0)"/>
       <use xlink:href="#Helvetica-30" transform="translate(250.244141 0)"/>
       <use xlink:href="#Helvetica-30" transform="translate(305.859375 0)"/>
      </g>
     </g>
    </g>
    <g id="ytick_7">
     <g id="line2d_27">
      <path d="M 74.27 101.055276 
L 548.309115 101.055276 
" clip-path="url(#p2572f953d2)" style="fill: none; stroke: #b0b0b0; stroke-opacity: 0.3; stroke-width: 0.8; stroke-linecap: square"/>
     </g>
     <g id="line2d_28">
      <g>
       <use xlink:href="#m40e9606c88" x="74.27" y="101.055276" style="stroke: #000000; stroke-width: 0.8"/>
      </g>
     </g>
     <g id="text_15">
      <!-- 2000.00 -->
      <g transform="translate(31.12625 104.641995) scale(0.1 -0.1)">
       <use xlink:href="#Helvetica-32"/>
       <use xlink:href="#Helvetica-30" transform="translate(55.615234 0)"/>
       <use xlink:href="#Helvetica-30" transform="translate(111.230469 0)"/>
       <use xlink:href="#Helvetica-30" transform="translate(166.845703 0)"/>
       <use xlink:href="#Helvetica-2e" transform="translate(222.460938 0)"/>
       <use xlink:href="#Helvetica-30" transform="translate(250.244141 0)"/>
       <use xlink:href="#Helvetica-30" transform="translate(305.859375 0)"/>
      </g>
     </g>
    </g>
    <g id="ytick_8">
     <g id="line2d_29">
      <path d="M 74.27 59.694672 
L 548.309115 59.694672 
" clip-path="url(#p2572f953d2)" style="fill: none; stroke: #b0b0b0; stroke-opacity: 0.3; stroke-width: 0.8; stroke-linecap: square"/>
     </g>
     <g id="line2d_30">
      <g>
       <use xlink:href="#m40e9606c88" x="74.27" y="59.694672" style="stroke: #000000; stroke-width: 0.8"/>
      </g>
     </g>
     <g id="text_16">
      <!-- 3000.00 -->
      <g transform="translate(31.12625 63.281391) scale(0.1 -0.1)">
       <use xlink:href="#Helvetica-33"/>
       <use xlink:href="#Helvetica-30" transform="translate(55.615234 0)"/>
       <use xlink:href="#Helvetica-30" transform="translate(111.230469 0)"/>
       <use xlink:href="#Helvetica-30" transform="translate(166.845703 0)"/>
       <use xlink:href="#Helvetica-2e" transform="translate(222.460938 0)"/>
       <use xlink:href="#Helvetica-30" transform="translate(250.244141 0)"/>
       <use xlink:href="#Helvetica-30" transform="translate(305.859375 0)"/>
      </g>
     </g>
    </g>
    <g id="text_17">
     <!-- $D_2$/(2$\pi$) (kHz) -->
     <g transform="translate(21.696563 236.616) rotate(-90) scale(0.1 -0.1)">
      <defs>
       <path id="DejaVuSans-Oblique-44" d="M 1081 4666 
L 2438 4666 
Q 3519 4666 4070 4208 
Q 4622 3750 4622 2847 
Q 4622 2250 4412 1698 
Q 4203 1147 3834 769 
Q 3463 381 2891 190 
Q 2319 0 1538 0 
L 172 0 
L 1081 4666 
z
M 1613 4147 
L 909 519 
L 1734 519 
Q 2794 519 3375 1128 
Q 3956 1738 3956 2847 
Q 3956 3519 3581 3833 
Q 3206 4147 2406 4147 
L 1613 4147 
z
" transform="scale(0.015625)"/>
       <path id="DejaVuSans-32" d="M 1228 531 
L 3431 531 
L 3431 0 
L 469 0 
L 469 531 
Q 828 903 1448 1529 
Q 2069 2156 2228 2338 
Q 2531 2678 2651 2914 
Q 2772 3150 2772 3378 
Q 2772 3750 2511 3984 
Q 2250 4219 1831 4219 
Q 1534 4219 1204 4116 
Q 875 4013 500 3803 
L 500 4441 
Q 881 4594 1212 4672 
Q 1544 4750 1819 4750 
Q 2544 4750 2975 4387 
Q 3406 4025 3406 3419 
Q 3406 3131 3298 2873 
Q 3191 2616 2906 2266 
Q 2828 2175 2409 1742 
Q 1991 1309 1228 531 
z
" transform="scale(0.015625)"/>
       <path id="Helvetica-2f" d="M 1456 4591 
L 1931 4591 
L 475 0 
L 0 0 
L 1456 4591 
z
" transform="scale(0.015625)"/>
       <path id="Helvetica-28" d="M 1894 4666 
Q 1403 3713 1256 3263 
Q 1034 2578 1034 1681 
Q 1034 775 1288 25 
Q 1444 -438 1903 -1306 
L 1525 -1306 
Q 1069 -594 959 -397 
Q 850 -200 722 138 
Q 547 600 478 1125 
Q 444 1397 444 1644 
Q 444 2569 734 3291 
Q 919 3750 1503 4666 
L 1894 4666 
z
" transform="scale(0.015625)"/>
       <path id="DejaVuSans-Oblique-3c0" d="M 584 3500 
L 3938 3500 
L 3825 2925 
L 3384 2925 
L 2966 775 
Q 2922 550 2981 450 
Q 3038 353 3209 353 
Q 3256 353 3325 363 
Q 3397 369 3419 372 
L 3338 -44 
Q 3222 -84 3103 -103 
Q 2981 -122 2866 -122 
Q 2491 -122 2388 81 
Q 2284 288 2391 838 
L 2797 2925 
L 1506 2925 
L 938 0 
L 350 0 
L 919 2925 
L 472 2925 
L 584 3500 
z
" transform="scale(0.015625)"/>
       <path id="Helvetica-29" d="M 222 -1306 
Q 719 -338 863 106 
Q 1081 778 1081 1681 
Q 1081 2584 828 3334 
Q 672 3797 213 4666 
L 591 4666 
Q 1072 3897 1173 3717 
Q 1275 3538 1394 3222 
Q 1544 2831 1608 2450 
Q 1672 2069 1672 1716 
Q 1672 791 1378 66 
Q 1194 -400 613 -1306 
L 222 -1306 
z
" transform="scale(0.015625)"/>
       <path id="Helvetica-6b" d="M 400 4591 
L 941 4591 
L 941 1925 
L 2384 3347 
L 3103 3347 
L 1822 2094 
L 3175 0 
L 2456 0 
L 1413 1688 
L 941 1256 
L 941 0 
L 400 0 
L 400 4591 
z
" transform="scale(0.015625)"/>
       <path id="Helvetica-48" d="M 503 4591 
L 1131 4591 
L 1131 2694 
L 3519 2694 
L 3519 4591 
L 4147 4591 
L 4147 0 
L 3519 0 
L 3519 2147 
L 1131 2147 
L 1131 0 
L 503 0 
L 503 4591 
z
" transform="scale(0.015625)"/>
       <path id="Helvetica-7a" d="M 163 444 
L 2147 2844 
L 309 2844 
L 309 3347 
L 2903 3347 
L 2903 2888 
L 931 503 
L 2963 503 
L 2963 0 
L 163 0 
L 163 444 
z
M 1609 3428 
L 1609 3428 
z
" transform="scale(0.015625)"/>
      </defs>
      <use xlink:href="#DejaVuSans-Oblique-44" transform="translate(0 0.09375)"/>
      <use xlink:href="#DejaVuSans-32" transform="translate(77.001953 -16.3125) scale(0.7)"/>
      <use xlink:href="#Helvetica-2f" transform="translate(124.272461 0.09375)"/>
      <use xlink:href="#Helvetica-28" transform="translate(152.055664 0.09375)"/>
      <use xlink:href="#Helvetica-32" transform="translate(185.356445 0.09375)"/>
      <use xlink:href="#DejaVuSans-Oblique-3c0" transform="translate(240.97168 0.09375)"/>
      <use xlink:href="#Helvetica-29" transform="translate(301.176758 0.09375)"/>
      <use xlink:href="#Helvetica-20" transform="translate(334.477539 0.09375)"/>
      <use xlink:href="#Helvetica-28" transform="translate(362.260742 0.09375)"/>
      <use xlink:href="#Helvetica-6b" transform="translate(395.561523 0.09375)"/>
      <use xlink:href="#Helvetica-48" transform="translate(445.561523 0.09375)"/>
      <use xlink:href="#Helvetica-7a" transform="translate(517.77832 0.09375)"/>
      <use xlink:href="#Helvetica-29" transform="translate(567.77832 0.09375)"/>
     </g>
    </g>
   </g>
   <g id="line2d_31">
    <path d="M 75.219027 254.663165 
L 75.693541 254.212147 
L 76.168055 253.540005 
L 77.117082 251.58682 
L 78.066109 248.942675 
L 79.48965 244.058462 
L 84.7093 224.6334 
L 86.132841 220.283457 
L 87.556382 216.521564 
L 88.979922 213.317376 
L 90.403463 210.612939 
L 91.827004 208.340827 
L 93.250545 206.434452 
L 94.674086 204.83314 
L 96.572141 203.082466 
L 98.470195 201.67792 
L 100.36825 200.538715 
L 102.740818 199.394026 
L 105.587899 198.312631 
L 108.909495 197.314458 
L 113.654631 196.149263 
L 121.721363 194.186122 
L 125.042958 193.117404 
L 127.415526 192.141178 
L 129.313581 191.168001 
L 131.211635 189.957394 
L 133.10969 188.424445 
L 134.533231 186.994965 
L 135.956772 185.256242 
L 137.380313 183.128954 
L 138.803853 180.516017 
L 140.227394 177.302576 
L 141.650935 173.360884 
L 143.074476 168.565114 
L 144.498017 162.823755 
L 145.921558 156.138512 
L 148.294126 143.525759 
L 150.192181 133.749017 
L 151.141208 129.766456 
L 152.090235 126.83382 
L 152.564749 125.851528 
L 153.039262 125.227563 
L 153.513776 124.978041 
L 153.98829 125.109327 
L 154.462803 125.617649 
L 154.937317 126.489332 
L 155.41183 127.70163 
L 156.360858 131.020115 
L 157.309885 135.268422 
L 159.20794 145.211771 
L 161.580508 157.557612 
L 163.004049 163.977121 
L 164.427589 169.445273 
L 165.85113 173.989609 
L 167.274671 177.713281 
L 168.698212 180.743652 
L 170.121753 183.205182 
L 171.545294 185.207704 
L 172.968835 186.843163 
L 174.392376 188.187026 
L 176.29043 189.624904 
L 178.188485 190.755048 
L 180.561053 191.853819 
L 182.933621 192.704688 
L 185.780703 193.504287 
L 189.576812 194.337995 
L 203.812221 197.179612 
L 206.659302 198.102174 
L 209.03187 199.133374 
L 210.929925 200.217416 
L 212.353466 201.241831 
L 213.777007 202.508004 
L 215.200548 204.089934 
L 216.624089 206.086072 
L 218.047629 208.626821 
L 218.996657 210.705485 
L 219.945684 213.162598 
L 220.894711 216.069022 
L 221.843738 219.503368 
L 222.792766 223.547708 
L 223.741793 228.278944 
L 225.165334 236.77524 
L 226.588875 246.89436 
L 229.91047 272.189884 
L 230.859497 277.444413 
L 231.334011 279.317159 
L 231.808525 280.593227 
L 232.283038 281.225362 
L 232.757552 281.189751 
L 233.232066 280.488093 
L 233.706579 279.147442 
L 234.181093 277.217853 
L 235.13012 271.880651 
L 236.553661 261.491069 
L 239.400743 239.775643 
L 240.824284 230.820228 
L 242.247824 223.544623 
L 243.671365 217.795293 
L 245.094906 213.310986 
L 246.518447 209.826619 
L 247.941988 207.113904 
L 249.365529 204.990339 
L 250.78907 203.315303 
L 252.212611 201.982353 
L 253.636152 200.911468 
L 255.534206 199.789569 
L 257.432261 198.924959 
L 259.804829 198.098842 
L 262.651911 197.360233 
L 266.44802 196.639096 
L 272.142183 195.833818 
L 280.683428 194.63751 
L 284.005024 193.970525 
L 286.852106 193.176258 
L 289.224674 192.251082 
L 291.122728 191.242324 
L 292.546269 190.258934 
L 293.96981 189.006688 
L 295.393351 187.38969 
L 296.342378 186.044428 
L 297.291405 184.425191 
L 298.240433 182.465296 
L 299.18946 180.081131 
L 300.138487 177.168817 
L 301.087514 173.601467 
L 302.036542 169.228669 
L 302.985569 163.881288 
L 303.934596 157.387111 
L 304.883623 149.605809 
L 306.307164 135.476181 
L 309.62876 99.279278 
L 310.103273 95.74166 
L 310.577787 93.145726 
L 311.052301 91.62619 
L 311.526814 91.265232 
L 312.001328 92.08245 
L 312.475842 94.032401 
L 312.950355 97.010288 
L 313.899382 105.413711 
L 315.322923 121.33275 
L 317.220978 142.265515 
L 318.644519 155.012767 
L 319.593546 161.867182 
L 320.542573 167.529293 
L 321.4916 172.166095 
L 322.440628 175.949533 
L 323.389655 179.036131 
L 324.338682 181.559641 
L 325.287709 183.630376 
L 326.71125 186.077572 
L 328.134791 187.931301 
L 329.558332 189.353654 
L 330.981873 190.459385 
L 332.879928 191.578922 
L 334.777982 192.411479 
L 337.15055 193.178785 
L 339.997632 193.837073 
L 343.793741 194.447511 
L 349.013391 195.03112 
L 361.350745 196.305988 
L 364.672341 196.880504 
L 367.519422 197.604366 
L 369.417477 198.285164 
L 371.315531 199.214595 
L 372.739072 200.149523 
L 374.162613 201.377046 
L 375.586154 203.017793 
L 376.535181 204.426793 
L 377.484209 206.171924 
L 378.433236 208.351381 
L 379.382263 211.095047 
L 380.33129 214.574005 
L 381.280318 219.010902 
L 382.229345 224.688096 
L 383.178372 231.945865 
L 384.127399 241.153952 
L 385.076427 252.625605 
L 386.025454 266.429947 
L 388.872536 311.980197 
L 389.347049 317.111845 
L 389.821563 320.543802 
L 390.296077 322.0158 
L 390.77059 321.411762 
L 391.245104 318.780337 
L 391.719617 314.326192 
L 392.668645 301.320529 
L 395.515726 255.416586 
L 396.464754 243.467174 
L 397.413781 233.821546 
L 398.362808 226.198044 
L 399.311836 220.229495 
L 400.260863 215.566312 
L 401.20989 211.913796 
L 402.158917 209.037696 
L 403.107945 206.757284 
L 404.056972 204.935116 
L 405.005999 203.46724 
L 406.42954 201.763083 
L 407.853081 200.493299 
L 409.276622 199.530661 
L 411.174676 198.579769 
L 413.072731 197.889703 
L 415.445299 197.268287 
L 418.292381 196.748109 
L 422.08849 196.279109 
L 427.782653 195.814441 
L 441.543548 194.775994 
L 445.339657 194.218771 
L 447.712226 193.684881 
L 449.61028 193.081127 
L 451.508335 192.229523 
L 452.931876 191.344965 
L 454.355416 190.145742 
L 455.304444 189.100787 
L 456.253471 187.787532 
L 457.202498 186.118326 
L 458.151525 183.971621 
L 459.100553 181.177546 
L 460.04958 177.49766 
L 460.998607 172.597932 
L 461.947634 166.01675 
L 462.896662 157.138579 
L 463.845689 145.207066 
L 464.794716 129.461288 
L 465.743744 109.554255 
L 468.116312 53.791164 
L 468.590825 46.543614 
L 469.065339 42.427989 
L 469.539853 41.901455 
L 470.014366 45.023734 
L 470.48888 51.442203 
L 471.437907 71.285028 
L 473.335962 117.080733 
L 474.284989 135.500539 
L 475.234016 149.794652 
L 476.183043 160.532149 
L 477.132071 168.500819 
L 478.081098 174.412646 
L 479.030125 178.825894 
L 479.979152 182.152432 
L 480.92818 184.688314 
L 481.877207 186.644515 
L 482.826234 188.171496 
L 483.775261 189.377186 
L 485.198802 190.748186 
L 486.622343 191.748367 
L 488.045884 192.493544 
L 489.943939 193.217623 
L 492.316507 193.840702 
L 495.163588 194.336863 
L 498.959698 194.758321 
L 504.653861 195.139325 
L 523.159893 196.181111 
L 526.481488 196.640243 
L 528.854056 197.160725 
L 530.752111 197.78092 
L 532.175651 198.435828 
L 533.599192 199.339613 
L 534.54822 200.141002 
L 535.497247 201.165319 
L 536.446274 202.49335 
L 537.395301 204.241855 
L 538.344329 206.582377 
L 539.293356 209.770868 
L 540.242383 214.194148 
L 541.19141 220.440689 
L 542.140438 229.399886 
L 543.089465 242.369992 
L 544.038492 261.064683 
L 544.987519 287.159251 
L 546.41106 338.766979 
L 547.360088 371.130545 
L 547.360088 371.130545 
" clip-path="url(#p2572f953d2)" style="fill: none; stroke: #cd5c5c; stroke-width: 1.5; stroke-linecap: square"/>
   </g>
   <g id="line2d_32">
    <path d="M 75.219027 187.622777 
L 79.48965 187.000084 
L 83.285759 186.663568 
L 87.081868 186.558391 
L 90.877977 186.69573 
L 94.674086 187.072106 
L 98.470195 187.672004 
L 102.740818 188.585411 
L 107.485954 189.855145 
L 112.23109 191.353854 
L 117.45074 193.237592 
L 122.67039 195.358969 
L 127.89004 197.722698 
L 133.10969 200.322818 
L 140.701908 204.388163 
L 146.396072 207.347073 
L 149.717667 208.848307 
L 152.564749 209.90462 
L 154.937317 210.574601 
L 157.309885 211.022595 
L 159.682453 211.230435 
L 162.055021 211.192488 
L 164.427589 210.916168 
L 166.800158 210.420628 
L 169.647239 209.576596 
L 172.968835 208.321622 
L 176.764944 206.634636 
L 183.882648 203.185349 
L 199.067084 195.580174 
L 203.812221 192.93381 
L 207.60833 190.585366 
L 211.404439 187.970719 
L 215.200548 185.069116 
L 219.945684 181.127242 
L 225.165334 176.82618 
L 227.537902 175.120969 
L 229.435957 173.973795 
L 231.334011 173.078967 
L 233.232066 172.481839 
L 234.655606 172.2482 
L 236.079147 172.205039 
L 237.502688 172.351354 
L 238.926229 172.679595 
L 240.824284 173.376295 
L 242.722338 174.327502 
L 245.094906 175.792354 
L 248.416502 178.163108 
L 257.432261 184.783335 
L 261.22837 187.233431 
L 265.498992 189.700291 
L 270.718642 192.419475 
L 279.734401 197.044594 
L 283.53051 199.287869 
L 286.377592 201.216627 
L 289.224674 203.432653 
L 291.597242 205.545762 
L 293.96981 207.931166 
L 296.342378 210.59771 
L 299.18946 214.127367 
L 305.832651 222.635163 
L 307.730705 224.618195 
L 309.154246 225.804712 
L 310.577787 226.668865 
L 311.526814 227.043492 
L 312.475842 227.246509 
L 313.424869 227.273755 
L 314.373896 227.125607 
L 315.322923 226.806981 
L 316.746464 226.030476 
L 318.170005 224.93702 
L 320.06806 223.087398 
L 322.440628 220.360762 
L 330.032846 211.284501 
L 332.405414 208.856089 
L 334.777982 206.702915 
L 337.15055 204.812683 
L 339.997632 202.850255 
L 342.844714 201.161486 
L 346.166309 199.449056 
L 350.911445 197.291432 
L 358.503663 193.884729 
L 361.825259 192.129093 
L 364.672341 190.343918 
L 367.044909 188.571502 
L 368.942963 186.911063 
L 370.841018 184.986855 
L 372.739072 182.752876 
L 374.637127 180.167183 
L 376.535181 177.201386 
L 378.433236 173.855761 
L 380.805804 169.222684 
L 385.55094 159.731979 
L 386.974481 157.374506 
L 388.398022 155.525525 
L 389.347049 154.648037 
L 390.296077 154.093985 
L 391.245104 153.884186 
L 392.194131 154.025739 
L 393.143158 154.511418 
L 394.092186 155.320423 
L 395.041213 156.420273 
L 396.464754 158.52339 
L 398.362808 161.92297 
L 405.480513 175.43578 
L 407.378567 178.395153 
L 409.276622 180.976661 
L 411.174676 183.20119 
L 413.072731 185.106264 
L 414.970785 186.735428 
L 417.343353 188.44989 
L 419.715922 189.878512 
L 422.563003 191.308868 
L 425.884599 192.705801 
L 430.629735 194.42528 
L 437.272926 196.821488 
L 440.594521 198.268121 
L 442.967089 199.518001 
L 445.339657 201.038293 
L 447.237712 202.518806 
L 449.135767 204.307289 
L 451.033821 206.486729 
L 452.457362 208.43598 
L 453.880903 210.704605 
L 455.304444 213.337561 
L 456.727985 216.374114 
L 458.151525 219.838315 
L 460.04958 225.106318 
L 462.422148 232.47517 
L 465.26923 241.242165 
L 466.692771 244.82516 
L 467.641798 246.652518 
L 468.590825 247.910871 
L 469.065339 248.301858 
L 469.539853 248.525171 
L 470.014366 248.577842 
L 470.48888 248.459532 
L 470.963393 248.172363 
L 471.437907 247.721055 
L 472.386934 246.356918 
L 473.335962 244.448921 
L 474.759502 240.801852 
L 476.657557 235.08561 
L 479.979152 224.922377 
L 481.877207 219.835225 
L 483.775261 215.491874 
L 485.198802 212.719844 
L 486.622343 210.329867 
L 488.045884 208.279888 
L 489.943939 205.998827 
L 491.841993 204.143925 
L 493.740048 202.628676 
L 495.638102 201.38132 
L 498.01067 200.11148 
L 500.383238 199.081547 
L 503.23032 198.068462 
L 507.026429 196.955244 
L 518.88927 193.667546 
L 521.736352 192.545729 
L 524.10892 191.352594 
L 526.006974 190.151315 
L 527.905029 188.646384 
L 529.32857 187.255556 
L 530.752111 185.576768 
L 532.175651 183.538479 
L 533.599192 181.053959 
L 535.022733 178.021505 
L 536.446274 174.328758 
L 537.869815 169.865106 
L 539.293356 164.548145 
L 540.716897 158.371118 
L 542.614951 149.072481 
L 544.987519 137.310622 
L 545.936547 133.322083 
L 546.885574 130.181218 
L 547.360088 129.014681 
L 547.360088 129.014681 
" clip-path="url(#p2572f953d2)" style="fill: none; stroke: #ffa500; stroke-width: 1.5; stroke-linecap: square"/>
   </g>
   <g id="line2d_33">
    <path d="M 74.27 183.776484 
L 548.309115 183.776484 
" clip-path="url(#p2572f953d2)" style="fill: none; stroke-dasharray: 1.85,0.8; stroke-dashoffset: 0; stroke: #808080; stroke-width: 0.5"/>
   </g>
   <g id="patch_4">
    <path d="M 74.27 387.592 
L 74.27 25.44 
" style="fill: none; stroke: #000000; stroke-width: 0.8; stroke-linejoin: miter; stroke-linecap: square"/>
   </g>
   <g id="patch_5">
    <path d="M 548.309115 387.592 
L 548.309115 25.44 
" style="fill: none; stroke: #000000; stroke-width: 0.8; stroke-linejoin: miter; stroke-linecap: square"/>
   </g>
   <g id="patch_6">
    <path d="M 74.27 387.592 
L 548.309115 387.592 
" style="fill: none; stroke: #000000; stroke-width: 0.8; stroke-linejoin: miter; stroke-linecap: square"/>
   </g>
   <g id="patch_7">
    <path d="M 74.27 25.44 
L 548.309115 25.44 
" style="fill: none; stroke: #000000; stroke-width: 0.8; stroke-linejoin: miter; stroke-linecap: square"/>
   </g>
   <g id="text_18">
    <!-- Dispersion of Mode number non-conservation coupling -->
    <g transform="translate(165.885182 19.44) scale(0.12 -0.12)">
     <defs>
      <path id="Helvetica-44" d="M 2250 531 
Q 2566 531 2769 597 
Q 3131 719 3363 1066 
Q 3547 1344 3628 1778 
Q 3675 2038 3675 2259 
Q 3675 3113 3336 3584 
Q 2997 4056 2244 4056 
L 1141 4056 
L 1141 531 
L 2250 531 
z
M 516 4591 
L 2375 4591 
Q 3322 4591 3844 3919 
Q 4309 3313 4309 2366 
Q 4309 1634 4034 1044 
Q 3550 0 2369 0 
L 516 0 
L 516 4591 
z
" transform="scale(0.015625)"/>
      <path id="Helvetica-69" d="M 413 3331 
L 984 3331 
L 984 0 
L 413 0 
L 413 3331 
z
M 413 4591 
L 984 4591 
L 984 3953 
L 413 3953 
L 413 4591 
z
" transform="scale(0.015625)"/>
      <path id="Helvetica-73" d="M 747 1050 
Q 772 769 888 619 
Q 1100 347 1625 347 
Q 1938 347 2175 483 
Q 2413 619 2413 903 
Q 2413 1119 2222 1231 
Q 2100 1300 1741 1391 
L 1294 1503 
Q 866 1609 663 1741 
Q 300 1969 300 2372 
Q 300 2847 642 3140 
Q 984 3434 1563 3434 
Q 2319 3434 2653 2991 
Q 2863 2709 2856 2384 
L 2325 2384 
Q 2309 2575 2191 2731 
Q 1997 2953 1519 2953 
Q 1200 2953 1036 2831 
Q 872 2709 872 2509 
Q 872 2291 1088 2159 
Q 1213 2081 1456 2022 
L 1828 1931 
Q 2434 1784 2641 1647 
Q 2969 1431 2969 969 
Q 2969 522 2630 197 
Q 2291 -128 1597 -128 
Q 850 -128 539 211 
Q 228 550 206 1050 
L 747 1050 
z
M 1578 3428 
L 1578 3428 
z
" transform="scale(0.015625)"/>
      <path id="Helvetica-70" d="M 1825 378 
Q 2219 378 2480 708 
Q 2741 1038 2741 1694 
Q 2741 2094 2625 2381 
Q 2406 2934 1825 2934 
Q 1241 2934 1025 2350 
Q 909 2038 909 1556 
Q 909 1169 1025 897 
Q 1244 378 1825 378 
z
M 369 3331 
L 916 3331 
L 916 2888 
Q 1084 3116 1284 3241 
Q 1569 3428 1953 3428 
Q 2522 3428 2919 2992 
Q 3316 2556 3316 1747 
Q 3316 653 2744 184 
Q 2381 -113 1900 -113 
Q 1522 -113 1266 53 
Q 1116 147 931 375 
L 931 -1334 
L 369 -1334 
L 369 3331 
z
" transform="scale(0.015625)"/>
      <path id="Helvetica-66" d="M 553 3856 
Q 566 4206 675 4369 
Q 872 4656 1434 4656 
Q 1488 4656 1544 4653 
Q 1600 4650 1672 4644 
L 1672 4131 
Q 1584 4138 1545 4139 
Q 1506 4141 1472 4141 
Q 1216 4141 1166 4008 
Q 1116 3875 1116 3331 
L 1672 3331 
L 1672 2888 
L 1109 2888 
L 1109 0 
L 553 0 
L 553 2888 
L 88 2888 
L 88 3331 
L 553 3331 
L 553 3856 
z
" transform="scale(0.015625)"/>
      <path id="Helvetica-63" d="M 1703 3444 
Q 2269 3444 2623 3169 
Q 2978 2894 3050 2222 
L 2503 2222 
Q 2453 2531 2275 2736 
Q 2097 2941 1703 2941 
Q 1166 2941 934 2416 
Q 784 2075 784 1575 
Q 784 1072 996 728 
Q 1209 384 1666 384 
Q 2016 384 2220 598 
Q 2425 813 2503 1184 
L 3050 1184 
Q 2956 519 2581 211 
Q 2206 -97 1622 -97 
Q 966 -97 575 383 
Q 184 863 184 1581 
Q 184 2463 612 2953 
Q 1041 3444 1703 3444 
z
M 1616 3428 
L 1616 3428 
z
" transform="scale(0.015625)"/>
      <path id="Helvetica-76" d="M 688 3347 
L 1581 622 
L 2516 3347 
L 3131 3347 
L 1869 0 
L 1269 0 
L 34 3347 
L 688 3347 
z
" transform="scale(0.015625)"/>
      <path id="Helvetica-61" d="M 844 891 
Q 844 647 1022 506 
Q 1200 366 1444 366 
Q 1741 366 2019 503 
Q 2488 731 2488 1250 
L 2488 1703 
Q 2384 1638 2221 1594 
Q 2059 1550 1903 1531 
L 1563 1488 
Q 1256 1447 1103 1359 
Q 844 1213 844 891 
z
M 2206 2028 
Q 2400 2053 2466 2191 
Q 2503 2266 2503 2406 
Q 2503 2694 2298 2823 
Q 2094 2953 1713 2953 
Q 1272 2953 1088 2716 
Q 984 2584 953 2325 
L 428 2325 
Q 444 2944 830 3186 
Q 1216 3428 1725 3428 
Q 2316 3428 2684 3203 
Q 3050 2978 3050 2503 
L 3050 575 
Q 3050 488 3086 434 
Q 3122 381 3238 381 
Q 3275 381 3322 386 
Q 3369 391 3422 400 
L 3422 -16 
Q 3291 -53 3222 -62 
Q 3153 -72 3034 -72 
Q 2744 -72 2613 134 
Q 2544 244 2516 444 
Q 2344 219 2022 53 
Q 1700 -113 1313 -113 
Q 847 -113 551 170 
Q 256 453 256 878 
Q 256 1344 547 1600 
Q 838 1856 1309 1916 
L 2206 2028 
z
M 1741 3428 
L 1741 3428 
z
" transform="scale(0.015625)"/>
      <path id="Helvetica-74" d="M 525 4281 
L 1094 4281 
L 1094 3347 
L 1628 3347 
L 1628 2888 
L 1094 2888 
L 1094 703 
Q 1094 528 1213 469 
Q 1278 434 1431 434 
Q 1472 434 1519 436 
Q 1566 438 1628 444 
L 1628 0 
Q 1531 -28 1426 -40 
Q 1322 -53 1200 -53 
Q 806 -53 665 148 
Q 525 350 525 672 
L 525 2888 
L 72 2888 
L 72 3347 
L 525 3347 
L 525 4281 
z
" transform="scale(0.015625)"/>
      <path id="Helvetica-6c" d="M 428 4591 
L 991 4591 
L 991 0 
L 428 0 
L 428 4591 
z
" transform="scale(0.015625)"/>
      <path id="Helvetica-67" d="M 1594 3406 
Q 1988 3406 2281 3213 
Q 2441 3103 2606 2894 
L 2606 3316 
L 3125 3316 
L 3125 272 
Q 3125 -366 2938 -734 
Q 2588 -1416 1616 -1416 
Q 1075 -1416 706 -1173 
Q 338 -931 294 -416 
L 866 -416 
Q 906 -641 1028 -763 
Q 1219 -950 1628 -950 
Q 2275 -950 2475 -494 
Q 2594 -225 2584 466 
Q 2416 209 2178 84 
Q 1941 -41 1550 -41 
Q 1006 -41 598 345 
Q 191 731 191 1622 
Q 191 2463 602 2934 
Q 1013 3406 1594 3406 
z
M 2606 1688 
Q 2606 2309 2350 2609 
Q 2094 2909 1697 2909 
Q 1103 2909 884 2353 
Q 769 2056 769 1575 
Q 769 1009 998 714 
Q 1228 419 1616 419 
Q 2222 419 2469 966 
Q 2606 1275 2606 1688 
z
M 1659 3428 
L 1659 3428 
z
" transform="scale(0.015625)"/>
     </defs>
     <use xlink:href="#Helvetica-44"/>
     <use xlink:href="#Helvetica-69" transform="translate(72.216797 0)"/>
     <use xlink:href="#Helvetica-73" transform="translate(94.433594 0)"/>
     <use xlink:href="#Helvetica-70" transform="translate(144.433594 0)"/>
     <use xlink:href="#Helvetica-65" transform="translate(200.048828 0)"/>
     <use xlink:href="#Helvetica-72" transform="translate(255.664062 0)"/>
     <use xlink:href="#Helvetica-73" transform="translate(288.964844 0)"/>
     <use xlink:href="#Helvetica-69" transform="translate(338.964844 0)"/>
     <use xlink:href="#Helvetica-6f" transform="translate(361.181641 0)"/>
     <use xlink:href="#Helvetica-6e" transform="translate(416.796875 0)"/>
     <use xlink:href="#Helvetica-20" transform="translate(472.412109 0)"/>
     <use xlink:href="#Helvetica-6f" transform="translate(500.195312 0)"/>
     <use xlink:href="#Helvetica-66" transform="translate(555.810547 0)"/>
     <use xlink:href="#Helvetica-20" transform="translate(583.59375 0)"/>
     <use xlink:href="#Helvetica-4d" transform="translate(611.376953 0)"/>
     <use xlink:href="#Helvetica-6f" transform="translate(694.677734 0)"/>
     <use xlink:href="#Helvetica-64" transform="translate(750.292969 0)"/>
     <use xlink:href="#Helvetica-65" transform="translate(805.908203 0)"/>
     <use xlink:href="#Helvetica-20" transform="translate(861.523438 0)"/>
     <use xlink:href="#Helvetica-6e" transform="translate(889.306641 0)"/>
     <use xlink:href="#Helvetica-75" transform="translate(944.921875 0)"/>
     <use xlink:href="#Helvetica-6d" transform="translate(1000.537109 0)"/>
     <use xlink:href="#Helvetica-62" transform="translate(1083.837891 0)"/>
     <use xlink:href="#Helvetica-65" transform="translate(1139.453125 0)"/>
     <use xlink:href="#Helvetica-72" transform="translate(1195.068359 0)"/>
     <use xlink:href="#Helvetica-20" transform="translate(1228.369141 0)"/>
     <use xlink:href="#Helvetica-6e" transform="translate(1256.152344 0)"/>
     <use xlink:href="#Helvetica-6f" transform="translate(1311.767578 0)"/>
     <use xlink:href="#Helvetica-6e" transform="translate(1367.382812 0)"/>
     <use xlink:href="#Helvetica-2d" transform="translate(1422.998047 0)"/>
     <use xlink:href="#Helvetica-63" transform="translate(1456.298828 0)"/>
     <use xlink:href="#Helvetica-6f" transform="translate(1506.298828 0)"/>
     <use xlink:href="#Helvetica-6e" transform="translate(1561.914062 0)"/>
     <use xlink:href="#Helvetica-73" transform="translate(1617.529297 0)"/>
     <use xlink:href="#Helvetica-65" transform="translate(1667.529297 0)"/>
     <use xlink:href="#Helvetica-72" transform="translate(1723.144531 0)"/>
     <use xlink:href="#Helvetica-76" transform="translate(1756.445312 0)"/>
     <use xlink:href="#Helvetica-61" transform="translate(1806.445312 0)"/>
     <use xlink:href="#Helvetica-74" transform="translate(1862.060547 0)"/>
     <use xlink:href="#Helvetica-69" transform="translate(1889.84375 0)"/>
     <use xlink:href="#Helvetica-6f" transform="translate(1912.060547 0)"/>
     <use xlink:href="#Helvetica-6e" transform="translate(1967.675781 0)"/>
     <use xlink:href="#Helvetica-20" transform="translate(2023.291016 0)"/>
     <use xlink:href="#Helvetica-63" transform="translate(2051.074219 0)"/>
     <use xlink:href="#Helvetica-6f" transform="translate(2101.074219 0)"/>
     <use xlink:href="#Helvetica-75" transform="translate(2156.689453 0)"/>
     <use xlink:href="#Helvetica-70" transform="translate(2212.304688 0)"/>
     <use xlink:href="#Helvetica-6c" transform="translate(2267.919922 0)"/>
     <use xlink:href="#Helvetica-69" transform="translate(2290.136719 0)"/>
     <use xlink:href="#Helvetica-6e" transform="translate(2312.353516 0)"/>
     <use xlink:href="#Helvetica-67" transform="translate(2367.96875 0)"/>
    </g>
   </g>
   <g id="legend_1">
    <g id="patch_8">
     <path d="M 95.376271 361.747538 
L 261.885646 361.747538 
Q 263.885646 361.747538 263.885646 359.747538 
L 263.885646 317.1616 
Q 263.885646 315.1616 261.885646 315.1616 
L 95.376271 315.1616 
Q 93.376271 315.1616 93.376271 317.1616 
L 93.376271 359.747538 
Q 93.376271 361.747538 95.376271 361.747538 
z
" style="fill: #ffffff; opacity: 0.8; stroke: #cccccc; stroke-linejoin: miter"/>
    </g>
    <g id="line2d_34">
     <path d="M 97.376271 322.9616 
L 107.376271 322.9616 
L 117.376271 322.9616 
" style="fill: none; stroke: #cd5c5c; stroke-width: 1.5; stroke-linecap: square"/>
    </g>
    <g id="text_19">
     <!-- $D_2$ when gL = 0.3 -->
     <g transform="translate(125.376271 326.4616) scale(0.1 -0.1)">
      <defs>
       <path id="Helvetica-77" d="M 672 3347 
L 1316 709 
L 1969 3347 
L 2600 3347 
L 3256 725 
L 3941 3347 
L 4503 3347 
L 3531 0 
L 2947 0 
L 2266 2591 
L 1606 0 
L 1022 0 
L 56 3347 
L 672 3347 
z
" transform="scale(0.015625)"/>
       <path id="Helvetica-68" d="M 413 4606 
L 975 4606 
L 975 2894 
Q 1175 3147 1334 3250 
Q 1606 3428 2013 3428 
Q 2741 3428 3000 2919 
Q 3141 2641 3141 2147 
L 3141 0 
L 2563 0 
L 2563 2109 
Q 2563 2478 2469 2650 
Q 2316 2925 1894 2925 
Q 1544 2925 1259 2684 
Q 975 2444 975 1775 
L 975 0 
L 413 0 
L 413 4606 
z
" transform="scale(0.015625)"/>
       <path id="Helvetica-4c" d="M 488 4591 
L 1109 4591 
L 1109 547 
L 3434 547 
L 3434 0 
L 488 0 
L 488 4591 
z
" transform="scale(0.015625)"/>
       <path id="Helvetica-3d" d="M 3547 2569 
L 3547 2044 
L 288 2044 
L 288 2569 
L 3547 2569 
z
M 3547 1228 
L 3547 694 
L 288 694 
L 288 1228 
L 3547 1228 
z
" transform="scale(0.015625)"/>
      </defs>
      <use xlink:href="#DejaVuSans-Oblique-44" transform="translate(0 0.09375)"/>
      <use xlink:href="#DejaVuSans-32" transform="translate(77.001953 -16.3125) scale(0.7)"/>
      <use xlink:href="#Helvetica-20" transform="translate(124.272461 0.09375)"/>
      <use xlink:href="#Helvetica-77" transform="translate(152.055664 0.09375)"/>
      <use xlink:href="#Helvetica-68" transform="translate(224.272461 0.09375)"/>
      <use xlink:href="#Helvetica-65" transform="translate(279.887695 0.09375)"/>
      <use xlink:href="#Helvetica-6e" transform="translate(335.50293 0.09375)"/>
      <use xlink:href="#Helvetica-20" transform="translate(391.118164 0.09375)"/>
      <use xlink:href="#Helvetica-67" transform="translate(418.901367 0.09375)"/>
      <use xlink:href="#Helvetica-4c" transform="translate(474.516602 0.09375)"/>
      <use xlink:href="#Helvetica-20" transform="translate(530.131836 0.09375)"/>
      <use xlink:href="#Helvetica-3d" transform="translate(557.915039 0.09375)"/>
      <use xlink:href="#Helvetica-20" transform="translate(616.313477 0.09375)"/>
      <use xlink:href="#Helvetica-30" transform="translate(644.09668 0.09375)"/>
      <use xlink:href="#Helvetica-2e" transform="translate(699.711914 0.09375)"/>
      <use xlink:href="#Helvetica-33" transform="translate(727.495117 0.09375)"/>
     </g>
    </g>
    <g id="line2d_35">
     <path d="M 97.376271 337.5616 
L 107.376271 337.5616 
L 117.376271 337.5616 
" style="fill: none; stroke: #ffa500; stroke-width: 1.5; stroke-linecap: square"/>
    </g>
    <g id="text_20">
     <!-- $D_2$ when gL = 0.8 -->
     <g transform="translate(125.376271 341.0616) scale(0.1 -0.1)">
      <defs>
       <path id="Helvetica-38" d="M 1741 2600 
Q 2113 2600 2322 2808 
Q 2531 3016 2531 3303 
Q 2531 3553 2331 3762 
Q 2131 3972 1722 3972 
Q 1316 3972 1134 3762 
Q 953 3553 953 3272 
Q 953 2956 1187 2778 
Q 1422 2600 1741 2600 
z
M 1775 384 
Q 2166 384 2423 595 
Q 2681 806 2681 1225 
Q 2681 1659 2415 1884 
Q 2150 2109 1734 2109 
Q 1331 2109 1076 1879 
Q 822 1650 822 1244 
Q 822 894 1055 639 
Q 1288 384 1775 384 
z
M 975 2384 
Q 741 2484 609 2619 
Q 363 2869 363 3269 
Q 363 3769 725 4128 
Q 1088 4488 1753 4488 
Q 2397 4488 2762 4148 
Q 3128 3809 3128 3356 
Q 3128 2938 2916 2678 
Q 2797 2531 2547 2391 
Q 2825 2263 2984 2097 
Q 3281 1784 3281 1284 
Q 3281 694 2884 283 
Q 2488 -128 1763 -128 
Q 1109 -128 657 226 
Q 206 581 206 1256 
Q 206 1653 400 1942 
Q 594 2231 975 2384 
z
" transform="scale(0.015625)"/>
      </defs>
      <use xlink:href="#DejaVuSans-Oblique-44" transform="translate(0 0.09375)"/>
      <use xlink:href="#DejaVuSans-32" transform="translate(77.001953 -16.3125) scale(0.7)"/>
      <use xlink:href="#Helvetica-20" transform="translate(124.272461 0.09375)"/>
      <use xlink:href="#Helvetica-77" transform="translate(152.055664 0.09375)"/>
      <use xlink:href="#Helvetica-68" transform="translate(224.272461 0.09375)"/>
      <use xlink:href="#Helvetica-65" transform="translate(279.887695 0.09375)"/>
      <use xlink:href="#Helvetica-6e" transform="translate(335.50293 0.09375)"/>
      <use xlink:href="#Helvetica-20" transform="translate(391.118164 0.09375)"/>
      <use xlink:href="#Helvetica-67" transform="translate(418.901367 0.09375)"/>
      <use xlink:href="#Helvetica-4c" transform="translate(474.516602 0.09375)"/>
      <use xlink:href="#Helvetica-20" transform="translate(530.131836 0.09375)"/>
      <use xlink:href="#Helvetica-3d" transform="translate(557.915039 0.09375)"/>
      <use xlink:href="#Helvetica-20" transform="translate(616.313477 0.09375)"/>
      <use xlink:href="#Helvetica-30" transform="translate(644.09668 0.09375)"/>
      <use xlink:href="#Helvetica-2e" transform="translate(699.711914 0.09375)"/>
      <use xlink:href="#Helvetica-38" transform="translate(727.495117 0.09375)"/>
     </g>
    </g>
    <g id="patch_9">
     <path d="M 97.376271 355.535037 
L 117.376271 355.535037 
L 117.376271 348.535037 
L 97.376271 348.535037 
z
" style="fill: #008000; opacity: 0.1; stroke: #008000; stroke-linejoin: miter"/>
    </g>
    <g id="text_21">
     <!-- Anamolous Dispersion Region -->
     <g transform="translate(125.376271 355.535037) scale(0.1 -0.1)">
      <defs>
       <path id="Helvetica-41" d="M 2844 1881 
L 2147 3909 
L 1406 1881 
L 2844 1881 
z
M 1822 4591 
L 2525 4591 
L 4191 0 
L 3509 0 
L 3044 1375 
L 1228 1375 
L 731 0 
L 94 0 
L 1822 4591 
z
" transform="scale(0.015625)"/>
       <path id="Helvetica-52" d="M 2622 2488 
Q 3059 2488 3314 2663 
Q 3569 2838 3569 3294 
Q 3569 3784 3213 3963 
Q 3022 4056 2703 4056 
L 1184 4056 
L 1184 2488 
L 2622 2488 
z
M 563 4591 
L 2688 4591 
Q 3213 4591 3553 4438 
Q 4200 4144 4200 3353 
Q 4200 2941 4029 2678 
Q 3859 2416 3553 2256 
Q 3822 2147 3958 1969 
Q 4094 1791 4109 1391 
L 4131 775 
Q 4141 513 4175 384 
Q 4231 166 4375 103 
L 4375 0 
L 3613 0 
Q 3581 59 3562 153 
Q 3544 247 3531 516 
L 3494 1281 
Q 3472 1731 3159 1884 
Q 2981 1969 2600 1969 
L 1184 1969 
L 1184 0 
L 563 0 
L 563 4591 
z
" transform="scale(0.015625)"/>
      </defs>
      <use xlink:href="#Helvetica-41"/>
      <use xlink:href="#Helvetica-6e" transform="translate(66.699219 0)"/>
      <use xlink:href="#Helvetica-61" transform="translate(122.314453 0)"/>
      <use xlink:href="#Helvetica-6d" transform="translate(177.929688 0)"/>
      <use xlink:href="#Helvetica-6f" transform="translate(261.230469 0)"/>
      <use xlink:href="#Helvetica-6c" transform="translate(316.845703 0)"/>
      <use xlink:href="#Helvetica-6f" transform="translate(339.0625 0)"/>
      <use xlink:href="#Helvetica-75" transform="translate(394.677734 0)"/>
      <use xlink:href="#Helvetica-73" transform="translate(450.292969 0)"/>
      <use xlink:href="#Helvetica-20" transform="translate(500.292969 0)"/>
      <use xlink:href="#Helvetica-44" transform="translate(528.076172 0)"/>
      <use xlink:href="#Helvetica-69" transform="translate(600.292969 0)"/>
      <use xlink:href="#Helvetica-73" transform="translate(622.509766 0)"/>
      <use xlink:href="#Helvetica-70" transform="translate(672.509766 0)"/>
      <use xlink:href="#Helvetica-65" transform="translate(728.125 0)"/>
      <use xlink:href="#Helvetica-72" transform="translate(783.740234 0)"/>
      <use xlink:href="#Helvetica-73" transform="translate(817.041016 0)"/>
      <use xlink:href="#Helvetica-69" transform="translate(867.041016 0)"/>
      <use xlink:href="#Helvetica-6f" transform="translate(889.257812 0)"/>
      <use xlink:href="#Helvetica-6e" transform="translate(944.873047 0)"/>
      <use xlink:href="#Helvetica-20" transform="translate(1000.488281 0)"/>
      <use xlink:href="#Helvetica-52" transform="translate(1028.271484 0)"/>
      <use xlink:href="#Helvetica-65" transform="translate(1100.488281 0)"/>
      <use xlink:href="#Helvetica-67" transform="translate(1156.103516 0)"/>
      <use xlink:href="#Helvetica-69" transform="translate(1211.71875 0)"/>
      <use xlink:href="#Helvetica-6f" transform="translate(1233.935547 0)"/>
      <use xlink:href="#Helvetica-6e" transform="translate(1289.550781 0)"/>
     </g>
    </g>
   </g>
  </g>
 </g>
 <defs>
  <clipPath id="p2572f953d2">
   <rect x="74.27" y="25.44" width="474.039115" height="362.152"/>
  </clipPath>
 </defs>
</svg>
