<?xml version="1.0" encoding="utf-8" standalone="no"?>
<!DOCTYPE svg PUBLIC "-//W3C//DTD SVG 1.1//EN"
  "http://www.w3.org/Graphics/SVG/1.1/DTD/svg11.dtd">
<svg xmlns:xlink="http://www.w3.org/1999/xlink" width="720pt" height="432pt" viewBox="0 0 720 432" xmlns="http://www.w3.org/2000/svg" version="1.1">
 <metadata>
  <rdf:RDF xmlns:dc="http://purl.org/dc/elements/1.1/" xmlns:cc="http://creativecommons.org/ns#" xmlns:rdf="http://www.w3.org/1999/02/22-rdf-syntax-ns#">
   <cc:Work>
    <dc:type rdf:resource="http://purl.org/dc/dcmitype/StillImage"/>
    <dc:date>2025-05-05T12:58:17.079288</dc:date>
    <dc:format>image/svg+xml</dc:format>
    <dc:creator>
     <cc:Agent>
      <dc:title>Matplotlib v3.10.0, https://matplotlib.org/</dc:title>
     </cc:Agent>
    </dc:creator>
   </cc:Work>
  </rdf:RDF>
 </metadata>
 <defs>
  <style type="text/css">*{stroke-linejoin: round; stroke-linecap: butt}</style>
 </defs>
 <g id="figure_1">
  <g id="patch_1">
   <path d="M 0 432 
L 720 432 
L 720 0 
L 0 0 
z
" style="fill: #ffffff"/>
  </g>
  <g id="axes_1">
   <g id="patch_2">
    <path d="M 74.27 390.04 
L 699.621287 390.04 
L 699.621287 25.44 
L 74.27 25.44 
z
" style="fill: #ffffff"/>
   </g>
   <g id="patch_3">
    <path d="M 74.27 161.087912 
L 699.621287 161.087912 
L 699.621287 25.44 
L 74.27 25.44 
z
" clip-path="url(#pc337b40499)" style="fill: #008000; opacity: 0.1; stroke: #008000; stroke-linejoin: miter"/>
   </g>
   <g id="matplotlib.axis_1">
    <g id="xtick_1">
     <g id="line2d_1">
      <path d="M 74.27 390.04 
L 74.27 25.44 
" clip-path="url(#pc337b40499)" style="fill: none; stroke: #b0b0b0; stroke-opacity: 0.3; stroke-width: 0.8; stroke-linecap: square"/>
     </g>
     <g id="line2d_2">
      <defs>
       <path id="m86791fb327" d="M 0 0 
L 0 3.5 
" style="stroke: #000000; stroke-width: 0.8"/>
      </defs>
      <g>
       <use xlink:href="#m86791fb327" x="74.27" y="390.04" style="stroke: #000000; stroke-width: 0.8"/>
      </g>
     </g>
     <g id="text_1">
      <!-- 1524 -->
      <g transform="translate(63.148125 404.213437) scale(0.1 -0.1)">
       <defs>
        <path id="Helvetica-31" d="M 613 3169 
L 613 3600 
Q 1222 3659 1462 3798 
Q 1703 3938 1822 4456 
L 2266 4456 
L 2266 0 
L 1666 0 
L 1666 3169 
L 613 3169 
z
" transform="scale(0.015625)"/>
        <path id="Helvetica-35" d="M 791 1141 
Q 847 659 1238 475 
Q 1438 381 1700 381 
Q 2200 381 2440 700 
Q 2681 1019 2681 1406 
Q 2681 1875 2395 2131 
Q 2109 2388 1709 2388 
Q 1419 2388 1211 2275 
Q 1003 2163 856 1963 
L 369 1991 
L 709 4400 
L 3034 4400 
L 3034 3856 
L 1131 3856 
L 941 2613 
Q 1097 2731 1238 2791 
Q 1488 2894 1816 2894 
Q 2431 2894 2859 2497 
Q 3288 2100 3288 1491 
Q 3288 856 2895 371 
Q 2503 -113 1644 -113 
Q 1097 -113 676 195 
Q 256 503 206 1141 
L 791 1141 
z
" transform="scale(0.015625)"/>
        <path id="Helvetica-32" d="M 200 0 
Q 231 578 439 1006 
Q 647 1434 1250 1784 
L 1850 2131 
Q 2253 2366 2416 2531 
Q 2672 2791 2672 3125 
Q 2672 3516 2437 3745 
Q 2203 3975 1813 3975 
Q 1234 3975 1013 3538 
Q 894 3303 881 2888 
L 309 2888 
Q 319 3472 525 3841 
Q 891 4491 1816 4491 
Q 2584 4491 2939 4075 
Q 3294 3659 3294 3150 
Q 3294 2613 2916 2231 
Q 2697 2009 2131 1694 
L 1703 1456 
Q 1397 1288 1222 1134 
Q 909 863 828 531 
L 3272 531 
L 3272 0 
L 200 0 
z
" transform="scale(0.015625)"/>
        <path id="Helvetica-34" d="M 2116 1584 
L 2116 3613 
L 681 1584 
L 2116 1584 
z
M 2125 0 
L 2125 1094 
L 163 1094 
L 163 1644 
L 2213 4488 
L 2688 4488 
L 2688 1584 
L 3347 1584 
L 3347 1094 
L 2688 1094 
L 2688 0 
L 2125 0 
z
" transform="scale(0.015625)"/>
       </defs>
       <use xlink:href="#Helvetica-31"/>
       <use xlink:href="#Helvetica-35" transform="translate(55.615234 0)"/>
       <use xlink:href="#Helvetica-32" transform="translate(111.230469 0)"/>
       <use xlink:href="#Helvetica-34" transform="translate(166.845703 0)"/>
      </g>
     </g>
    </g>
    <g id="xtick_2">
     <g id="line2d_3">
      <path d="M 105.448957 390.04 
L 105.448957 25.44 
" clip-path="url(#pc337b40499)" style="fill: none; stroke: #b0b0b0; stroke-opacity: 0.3; stroke-width: 0.8; stroke-linecap: square"/>
     </g>
     <g id="line2d_4">
      <g>
       <use xlink:href="#m86791fb327" x="105.448957" y="390.04" style="stroke: #000000; stroke-width: 0.8"/>
      </g>
     </g>
     <g id="text_2">
      <!-- 1527 -->
      <g transform="translate(94.327082 404.213437) scale(0.1 -0.1)">
       <defs>
        <path id="Helvetica-37" d="M 3347 4400 
L 3347 3909 
Q 3131 3700 2773 3181 
Q 2416 2663 2141 2063 
Q 1869 1478 1728 997 
Q 1638 688 1494 0 
L 872 0 
Q 1084 1281 1809 2550 
Q 2238 3294 2709 3834 
L 234 3834 
L 234 4400 
L 3347 4400 
z
" transform="scale(0.015625)"/>
       </defs>
       <use xlink:href="#Helvetica-31"/>
       <use xlink:href="#Helvetica-35" transform="translate(55.615234 0)"/>
       <use xlink:href="#Helvetica-32" transform="translate(111.230469 0)"/>
       <use xlink:href="#Helvetica-37" transform="translate(166.845703 0)"/>
      </g>
     </g>
    </g>
    <g id="xtick_3">
     <g id="line2d_5">
      <path d="M 136.627914 390.04 
L 136.627914 25.44 
" clip-path="url(#pc337b40499)" style="fill: none; stroke: #b0b0b0; stroke-opacity: 0.3; stroke-width: 0.8; stroke-linecap: square"/>
     </g>
     <g id="line2d_6">
      <g>
       <use xlink:href="#m86791fb327" x="136.627914" y="390.04" style="stroke: #000000; stroke-width: 0.8"/>
      </g>
     </g>
     <g id="text_3">
      <!-- 1529 -->
      <g transform="translate(125.506039 404.213437) scale(0.1 -0.1)">
       <defs>
        <path id="Helvetica-39" d="M 850 1081 
Q 875 616 1209 438 
Q 1381 344 1597 344 
Q 2000 344 2284 680 
Q 2569 1016 2688 2044 
Q 2500 1747 2223 1626 
Q 1947 1506 1628 1506 
Q 981 1506 604 1909 
Q 228 2313 228 2947 
Q 228 3556 600 4018 
Q 972 4481 1697 4481 
Q 2675 4481 3047 3600 
Q 3253 3116 3253 2388 
Q 3253 1566 3006 931 
Q 2597 -125 1619 -125 
Q 963 -125 622 219 
Q 281 563 281 1081 
L 850 1081 
z
M 1703 2000 
Q 2038 2000 2314 2220 
Q 2591 2441 2591 2991 
Q 2591 3484 2342 3726 
Q 2094 3969 1709 3969 
Q 1297 3969 1055 3692 
Q 813 3416 813 2953 
Q 813 2516 1025 2258 
Q 1238 2000 1703 2000 
z
" transform="scale(0.015625)"/>
       </defs>
       <use xlink:href="#Helvetica-31"/>
       <use xlink:href="#Helvetica-35" transform="translate(55.615234 0)"/>
       <use xlink:href="#Helvetica-32" transform="translate(111.230469 0)"/>
       <use xlink:href="#Helvetica-39" transform="translate(166.845703 0)"/>
      </g>
     </g>
    </g>
    <g id="xtick_4">
     <g id="line2d_7">
      <path d="M 167.806871 390.04 
L 167.806871 25.44 
" clip-path="url(#pc337b40499)" style="fill: none; stroke: #b0b0b0; stroke-opacity: 0.3; stroke-width: 0.8; stroke-linecap: square"/>
     </g>
     <g id="line2d_8">
      <g>
       <use xlink:href="#m86791fb327" x="167.806871" y="390.04" style="stroke: #000000; stroke-width: 0.8"/>
      </g>
     </g>
     <g id="text_4">
      <!-- 1532 -->
      <g transform="translate(156.684996 404.213437) scale(0.1 -0.1)">
       <defs>
        <path id="Helvetica-33" d="M 1663 -122 
Q 869 -122 511 314 
Q 153 750 153 1375 
L 741 1375 
Q 778 941 903 744 
Q 1122 391 1694 391 
Q 2138 391 2406 628 
Q 2675 866 2675 1241 
Q 2675 1703 2392 1887 
Q 2109 2072 1606 2072 
Q 1550 2072 1492 2070 
Q 1434 2069 1375 2066 
L 1375 2563 
Q 1463 2553 1522 2550 
Q 1581 2547 1650 2547 
Q 1966 2547 2169 2647 
Q 2525 2822 2525 3272 
Q 2525 3606 2287 3787 
Q 2050 3969 1734 3969 
Q 1172 3969 956 3594 
Q 838 3388 822 3006 
L 266 3006 
Q 266 3506 466 3856 
Q 809 4481 1675 4481 
Q 2359 4481 2734 4176 
Q 3109 3872 3109 3294 
Q 3109 2881 2888 2625 
Q 2750 2466 2531 2375 
Q 2884 2278 3082 2001 
Q 3281 1725 3281 1325 
Q 3281 684 2859 281 
Q 2438 -122 1663 -122 
z
" transform="scale(0.015625)"/>
       </defs>
       <use xlink:href="#Helvetica-31"/>
       <use xlink:href="#Helvetica-35" transform="translate(55.615234 0)"/>
       <use xlink:href="#Helvetica-33" transform="translate(111.230469 0)"/>
       <use xlink:href="#Helvetica-32" transform="translate(166.845703 0)"/>
      </g>
     </g>
    </g>
    <g id="xtick_5">
     <g id="line2d_9">
      <path d="M 198.985827 390.04 
L 198.985827 25.44 
" clip-path="url(#pc337b40499)" style="fill: none; stroke: #b0b0b0; stroke-opacity: 0.3; stroke-width: 0.8; stroke-linecap: square"/>
     </g>
     <g id="line2d_10">
      <g>
       <use xlink:href="#m86791fb327" x="198.985827" y="390.04" style="stroke: #000000; stroke-width: 0.8"/>
      </g>
     </g>
     <g id="text_5">
      <!-- 1535 -->
      <g transform="translate(187.863952 404.213437) scale(0.1 -0.1)">
       <use xlink:href="#Helvetica-31"/>
       <use xlink:href="#Helvetica-35" transform="translate(55.615234 0)"/>
       <use xlink:href="#Helvetica-33" transform="translate(111.230469 0)"/>
       <use xlink:href="#Helvetica-35" transform="translate(166.845703 0)"/>
      </g>
     </g>
    </g>
    <g id="xtick_6">
     <g id="line2d_11">
      <path d="M 230.164784 390.04 
L 230.164784 25.44 
" clip-path="url(#pc337b40499)" style="fill: none; stroke: #b0b0b0; stroke-opacity: 0.3; stroke-width: 0.8; stroke-linecap: square"/>
     </g>
     <g id="line2d_12">
      <g>
       <use xlink:href="#m86791fb327" x="230.164784" y="390.04" style="stroke: #000000; stroke-width: 0.8"/>
      </g>
     </g>
     <g id="text_6">
      <!-- 1538 -->
      <g transform="translate(219.042909 404.213437) scale(0.1 -0.1)">
       <defs>
        <path id="Helvetica-38" d="M 1741 2600 
Q 2113 2600 2322 2808 
Q 2531 3016 2531 3303 
Q 2531 3553 2331 3762 
Q 2131 3972 1722 3972 
Q 1316 3972 1134 3762 
Q 953 3553 953 3272 
Q 953 2956 1187 2778 
Q 1422 2600 1741 2600 
z
M 1775 384 
Q 2166 384 2423 595 
Q 2681 806 2681 1225 
Q 2681 1659 2415 1884 
Q 2150 2109 1734 2109 
Q 1331 2109 1076 1879 
Q 822 1650 822 1244 
Q 822 894 1055 639 
Q 1288 384 1775 384 
z
M 975 2384 
Q 741 2484 609 2619 
Q 363 2869 363 3269 
Q 363 3769 725 4128 
Q 1088 4488 1753 4488 
Q 2397 4488 2762 4148 
Q 3128 3809 3128 3356 
Q 3128 2938 2916 2678 
Q 2797 2531 2547 2391 
Q 2825 2263 2984 2097 
Q 3281 1784 3281 1284 
Q 3281 694 2884 283 
Q 2488 -128 1763 -128 
Q 1109 -128 657 226 
Q 206 581 206 1256 
Q 206 1653 400 1942 
Q 594 2231 975 2384 
z
" transform="scale(0.015625)"/>
       </defs>
       <use xlink:href="#Helvetica-31"/>
       <use xlink:href="#Helvetica-35" transform="translate(55.615234 0)"/>
       <use xlink:href="#Helvetica-33" transform="translate(111.230469 0)"/>
       <use xlink:href="#Helvetica-38" transform="translate(166.845703 0)"/>
      </g>
     </g>
    </g>
    <g id="xtick_7">
     <g id="line2d_13">
      <path d="M 261.343741 390.04 
L 261.343741 25.44 
" clip-path="url(#pc337b40499)" style="fill: none; stroke: #b0b0b0; stroke-opacity: 0.3; stroke-width: 0.8; stroke-linecap: square"/>
     </g>
     <g id="line2d_14">
      <g>
       <use xlink:href="#m86791fb327" x="261.343741" y="390.04" style="stroke: #000000; stroke-width: 0.8"/>
      </g>
     </g>
     <g id="text_7">
      <!-- 1540 -->
      <g transform="translate(250.221866 404.213437) scale(0.1 -0.1)">
       <defs>
        <path id="Helvetica-30" d="M 1731 4475 
Q 2600 4475 2988 3759 
Q 3288 3206 3288 2244 
Q 3288 1331 3016 734 
Q 2622 -122 1728 -122 
Q 922 -122 528 578 
Q 200 1163 200 2147 
Q 200 2909 397 3456 
Q 766 4475 1731 4475 
z
M 1725 391 
Q 2163 391 2422 778 
Q 2681 1166 2681 2222 
Q 2681 2984 2493 3476 
Q 2306 3969 1766 3969 
Q 1269 3969 1039 3501 
Q 809 3034 809 2125 
Q 809 1441 956 1025 
Q 1181 391 1725 391 
z
" transform="scale(0.015625)"/>
       </defs>
       <use xlink:href="#Helvetica-31"/>
       <use xlink:href="#Helvetica-35" transform="translate(55.615234 0)"/>
       <use xlink:href="#Helvetica-34" transform="translate(111.230469 0)"/>
       <use xlink:href="#Helvetica-30" transform="translate(166.845703 0)"/>
      </g>
     </g>
    </g>
    <g id="xtick_8">
     <g id="line2d_15">
      <path d="M 292.522698 390.04 
L 292.522698 25.44 
" clip-path="url(#pc337b40499)" style="fill: none; stroke: #b0b0b0; stroke-opacity: 0.3; stroke-width: 0.8; stroke-linecap: square"/>
     </g>
     <g id="line2d_16">
      <g>
       <use xlink:href="#m86791fb327" x="292.522698" y="390.04" style="stroke: #000000; stroke-width: 0.8"/>
      </g>
     </g>
     <g id="text_8">
      <!-- 1543 -->
      <g transform="translate(281.400823 404.213437) scale(0.1 -0.1)">
       <use xlink:href="#Helvetica-31"/>
       <use xlink:href="#Helvetica-35" transform="translate(55.615234 0)"/>
       <use xlink:href="#Helvetica-34" transform="translate(111.230469 0)"/>
       <use xlink:href="#Helvetica-33" transform="translate(166.845703 0)"/>
      </g>
     </g>
    </g>
    <g id="xtick_9">
     <g id="line2d_17">
      <path d="M 323.701655 390.04 
L 323.701655 25.44 
" clip-path="url(#pc337b40499)" style="fill: none; stroke: #b0b0b0; stroke-opacity: 0.3; stroke-width: 0.8; stroke-linecap: square"/>
     </g>
     <g id="line2d_18">
      <g>
       <use xlink:href="#m86791fb327" x="323.701655" y="390.04" style="stroke: #000000; stroke-width: 0.8"/>
      </g>
     </g>
     <g id="text_9">
      <!-- 1546 -->
      <g transform="translate(312.57978 404.213437) scale(0.1 -0.1)">
       <defs>
        <path id="Helvetica-36" d="M 1872 4494 
Q 2622 4494 2917 4105 
Q 3213 3716 3213 3303 
L 2656 3303 
Q 2606 3569 2497 3719 
Q 2294 4000 1881 4000 
Q 1409 4000 1131 3564 
Q 853 3128 822 2316 
Q 1016 2600 1309 2741 
Q 1578 2866 1909 2866 
Q 2472 2866 2890 2506 
Q 3309 2147 3309 1434 
Q 3309 825 2912 354 
Q 2516 -116 1781 -116 
Q 1153 -116 697 361 
Q 241 838 241 1966 
Q 241 2800 444 3381 
Q 834 4494 1872 4494 
z
M 1831 384 
Q 2275 384 2495 682 
Q 2716 981 2716 1388 
Q 2716 1731 2519 2042 
Q 2322 2353 1803 2353 
Q 1441 2353 1167 2112 
Q 894 1872 894 1388 
Q 894 963 1142 673 
Q 1391 384 1831 384 
z
" transform="scale(0.015625)"/>
       </defs>
       <use xlink:href="#Helvetica-31"/>
       <use xlink:href="#Helvetica-35" transform="translate(55.615234 0)"/>
       <use xlink:href="#Helvetica-34" transform="translate(111.230469 0)"/>
       <use xlink:href="#Helvetica-36" transform="translate(166.845703 0)"/>
      </g>
     </g>
    </g>
    <g id="xtick_10">
     <g id="line2d_19">
      <path d="M 354.880612 390.04 
L 354.880612 25.44 
" clip-path="url(#pc337b40499)" style="fill: none; stroke: #b0b0b0; stroke-opacity: 0.3; stroke-width: 0.8; stroke-linecap: square"/>
     </g>
     <g id="line2d_20">
      <g>
       <use xlink:href="#m86791fb327" x="354.880612" y="390.04" style="stroke: #000000; stroke-width: 0.8"/>
      </g>
     </g>
     <g id="text_10">
      <!-- 1549 -->
      <g transform="translate(343.758737 404.213437) scale(0.1 -0.1)">
       <use xlink:href="#Helvetica-31"/>
       <use xlink:href="#Helvetica-35" transform="translate(55.615234 0)"/>
       <use xlink:href="#Helvetica-34" transform="translate(111.230469 0)"/>
       <use xlink:href="#Helvetica-39" transform="translate(166.845703 0)"/>
      </g>
     </g>
    </g>
    <g id="xtick_11">
     <g id="line2d_21">
      <path d="M 386.059568 390.04 
L 386.059568 25.44 
" clip-path="url(#pc337b40499)" style="fill: none; stroke: #b0b0b0; stroke-opacity: 0.3; stroke-width: 0.8; stroke-linecap: square"/>
     </g>
     <g id="line2d_22">
      <g>
       <use xlink:href="#m86791fb327" x="386.059568" y="390.04" style="stroke: #000000; stroke-width: 0.8"/>
      </g>
     </g>
     <g id="text_11">
      <!-- 1552 -->
      <g transform="translate(374.937693 404.213437) scale(0.1 -0.1)">
       <use xlink:href="#Helvetica-31"/>
       <use xlink:href="#Helvetica-35" transform="translate(55.615234 0)"/>
       <use xlink:href="#Helvetica-35" transform="translate(111.230469 0)"/>
       <use xlink:href="#Helvetica-32" transform="translate(166.845703 0)"/>
      </g>
     </g>
    </g>
    <g id="xtick_12">
     <g id="line2d_23">
      <path d="M 417.238525 390.04 
L 417.238525 25.44 
" clip-path="url(#pc337b40499)" style="fill: none; stroke: #b0b0b0; stroke-opacity: 0.3; stroke-width: 0.8; stroke-linecap: square"/>
     </g>
     <g id="line2d_24">
      <g>
       <use xlink:href="#m86791fb327" x="417.238525" y="390.04" style="stroke: #000000; stroke-width: 0.8"/>
      </g>
     </g>
     <g id="text_12">
      <!-- 1554 -->
      <g transform="translate(406.11665 404.213437) scale(0.1 -0.1)">
       <use xlink:href="#Helvetica-31"/>
       <use xlink:href="#Helvetica-35" transform="translate(55.615234 0)"/>
       <use xlink:href="#Helvetica-35" transform="translate(111.230469 0)"/>
       <use xlink:href="#Helvetica-34" transform="translate(166.845703 0)"/>
      </g>
     </g>
    </g>
    <g id="xtick_13">
     <g id="line2d_25">
      <path d="M 448.417482 390.04 
L 448.417482 25.44 
" clip-path="url(#pc337b40499)" style="fill: none; stroke: #b0b0b0; stroke-opacity: 0.3; stroke-width: 0.8; stroke-linecap: square"/>
     </g>
     <g id="line2d_26">
      <g>
       <use xlink:href="#m86791fb327" x="448.417482" y="390.04" style="stroke: #000000; stroke-width: 0.8"/>
      </g>
     </g>
     <g id="text_13">
      <!-- 1557 -->
      <g transform="translate(437.295607 404.213437) scale(0.1 -0.1)">
       <use xlink:href="#Helvetica-31"/>
       <use xlink:href="#Helvetica-35" transform="translate(55.615234 0)"/>
       <use xlink:href="#Helvetica-35" transform="translate(111.230469 0)"/>
       <use xlink:href="#Helvetica-37" transform="translate(166.845703 0)"/>
      </g>
     </g>
    </g>
    <g id="xtick_14">
     <g id="line2d_27">
      <path d="M 479.596439 390.04 
L 479.596439 25.44 
" clip-path="url(#pc337b40499)" style="fill: none; stroke: #b0b0b0; stroke-opacity: 0.3; stroke-width: 0.8; stroke-linecap: square"/>
     </g>
     <g id="line2d_28">
      <g>
       <use xlink:href="#m86791fb327" x="479.596439" y="390.04" style="stroke: #000000; stroke-width: 0.8"/>
      </g>
     </g>
     <g id="text_14">
      <!-- 1560 -->
      <g transform="translate(468.474564 404.213437) scale(0.1 -0.1)">
       <use xlink:href="#Helvetica-31"/>
       <use xlink:href="#Helvetica-35" transform="translate(55.615234 0)"/>
       <use xlink:href="#Helvetica-36" transform="translate(111.230469 0)"/>
       <use xlink:href="#Helvetica-30" transform="translate(166.845703 0)"/>
      </g>
     </g>
    </g>
    <g id="xtick_15">
     <g id="line2d_29">
      <path d="M 510.775396 390.04 
L 510.775396 25.44 
" clip-path="url(#pc337b40499)" style="fill: none; stroke: #b0b0b0; stroke-opacity: 0.3; stroke-width: 0.8; stroke-linecap: square"/>
     </g>
     <g id="line2d_30">
      <g>
       <use xlink:href="#m86791fb327" x="510.775396" y="390.04" style="stroke: #000000; stroke-width: 0.8"/>
      </g>
     </g>
     <g id="text_15">
      <!-- 1563 -->
      <g transform="translate(499.653521 404.213437) scale(0.1 -0.1)">
       <use xlink:href="#Helvetica-31"/>
       <use xlink:href="#Helvetica-35" transform="translate(55.615234 0)"/>
       <use xlink:href="#Helvetica-36" transform="translate(111.230469 0)"/>
       <use xlink:href="#Helvetica-33" transform="translate(166.845703 0)"/>
      </g>
     </g>
    </g>
    <g id="xtick_16">
     <g id="line2d_31">
      <path d="M 541.954353 390.04 
L 541.954353 25.44 
" clip-path="url(#pc337b40499)" style="fill: none; stroke: #b0b0b0; stroke-opacity: 0.3; stroke-width: 0.8; stroke-linecap: square"/>
     </g>
     <g id="line2d_32">
      <g>
       <use xlink:href="#m86791fb327" x="541.954353" y="390.04" style="stroke: #000000; stroke-width: 0.8"/>
      </g>
     </g>
     <g id="text_16">
      <!-- 1566 -->
      <g transform="translate(530.832478 404.213437) scale(0.1 -0.1)">
       <use xlink:href="#Helvetica-31"/>
       <use xlink:href="#Helvetica-35" transform="translate(55.615234 0)"/>
       <use xlink:href="#Helvetica-36" transform="translate(111.230469 0)"/>
       <use xlink:href="#Helvetica-36" transform="translate(166.845703 0)"/>
      </g>
     </g>
    </g>
    <g id="xtick_17">
     <g id="line2d_33">
      <path d="M 573.133309 390.04 
L 573.133309 25.44 
" clip-path="url(#pc337b40499)" style="fill: none; stroke: #b0b0b0; stroke-opacity: 0.3; stroke-width: 0.8; stroke-linecap: square"/>
     </g>
     <g id="line2d_34">
      <g>
       <use xlink:href="#m86791fb327" x="573.133309" y="390.04" style="stroke: #000000; stroke-width: 0.8"/>
      </g>
     </g>
     <g id="text_17">
      <!-- 1569 -->
      <g transform="translate(562.011434 404.213437) scale(0.1 -0.1)">
       <use xlink:href="#Helvetica-31"/>
       <use xlink:href="#Helvetica-35" transform="translate(55.615234 0)"/>
       <use xlink:href="#Helvetica-36" transform="translate(111.230469 0)"/>
       <use xlink:href="#Helvetica-39" transform="translate(166.845703 0)"/>
      </g>
     </g>
    </g>
    <g id="xtick_18">
     <g id="line2d_35">
      <path d="M 604.312266 390.04 
L 604.312266 25.44 
" clip-path="url(#pc337b40499)" style="fill: none; stroke: #b0b0b0; stroke-opacity: 0.3; stroke-width: 0.8; stroke-linecap: square"/>
     </g>
     <g id="line2d_36">
      <g>
       <use xlink:href="#m86791fb327" x="604.312266" y="390.04" style="stroke: #000000; stroke-width: 0.8"/>
      </g>
     </g>
     <g id="text_18">
      <!-- 1572 -->
      <g transform="translate(593.190391 404.213437) scale(0.1 -0.1)">
       <use xlink:href="#Helvetica-31"/>
       <use xlink:href="#Helvetica-35" transform="translate(55.615234 0)"/>
       <use xlink:href="#Helvetica-37" transform="translate(111.230469 0)"/>
       <use xlink:href="#Helvetica-32" transform="translate(166.845703 0)"/>
      </g>
     </g>
    </g>
    <g id="xtick_19">
     <g id="line2d_37">
      <path d="M 635.491223 390.04 
L 635.491223 25.44 
" clip-path="url(#pc337b40499)" style="fill: none; stroke: #b0b0b0; stroke-opacity: 0.3; stroke-width: 0.8; stroke-linecap: square"/>
     </g>
     <g id="line2d_38">
      <g>
       <use xlink:href="#m86791fb327" x="635.491223" y="390.04" style="stroke: #000000; stroke-width: 0.8"/>
      </g>
     </g>
     <g id="text_19">
      <!-- 1575 -->
      <g transform="translate(624.369348 404.213437) scale(0.1 -0.1)">
       <use xlink:href="#Helvetica-31"/>
       <use xlink:href="#Helvetica-35" transform="translate(55.615234 0)"/>
       <use xlink:href="#Helvetica-37" transform="translate(111.230469 0)"/>
       <use xlink:href="#Helvetica-35" transform="translate(166.845703 0)"/>
      </g>
     </g>
    </g>
    <g id="xtick_20">
     <g id="line2d_39">
      <path d="M 666.67018 390.04 
L 666.67018 25.44 
" clip-path="url(#pc337b40499)" style="fill: none; stroke: #b0b0b0; stroke-opacity: 0.3; stroke-width: 0.8; stroke-linecap: square"/>
     </g>
     <g id="line2d_40">
      <g>
       <use xlink:href="#m86791fb327" x="666.67018" y="390.04" style="stroke: #000000; stroke-width: 0.8"/>
      </g>
     </g>
     <g id="text_20">
      <!-- 1578 -->
      <g transform="translate(655.548305 404.213437) scale(0.1 -0.1)">
       <use xlink:href="#Helvetica-31"/>
       <use xlink:href="#Helvetica-35" transform="translate(55.615234 0)"/>
       <use xlink:href="#Helvetica-37" transform="translate(111.230469 0)"/>
       <use xlink:href="#Helvetica-38" transform="translate(166.845703 0)"/>
      </g>
     </g>
    </g>
    <g id="xtick_21">
     <g id="line2d_41">
      <path d="M 697.849137 390.04 
L 697.849137 25.44 
" clip-path="url(#pc337b40499)" style="fill: none; stroke: #b0b0b0; stroke-opacity: 0.3; stroke-width: 0.8; stroke-linecap: square"/>
     </g>
     <g id="line2d_42">
      <g>
       <use xlink:href="#m86791fb327" x="697.849137" y="390.04" style="stroke: #000000; stroke-width: 0.8"/>
      </g>
     </g>
     <g id="text_21">
      <!-- 1580 -->
      <g transform="translate(686.727262 404.213437) scale(0.1 -0.1)">
       <use xlink:href="#Helvetica-31"/>
       <use xlink:href="#Helvetica-35" transform="translate(55.615234 0)"/>
       <use xlink:href="#Helvetica-38" transform="translate(111.230469 0)"/>
       <use xlink:href="#Helvetica-30" transform="translate(166.845703 0)"/>
      </g>
     </g>
    </g>
    <g id="text_22">
     <!-- wavelength (nm) -->
     <g transform="translate(349.987831 417.588437) scale(0.1 -0.1)">
      <defs>
       <path id="Helvetica-77" d="M 672 3347 
L 1316 709 
L 1969 3347 
L 2600 3347 
L 3256 725 
L 3941 3347 
L 4503 3347 
L 3531 0 
L 2947 0 
L 2266 2591 
L 1606 0 
L 1022 0 
L 56 3347 
L 672 3347 
z
" transform="scale(0.015625)"/>
       <path id="Helvetica-61" d="M 844 891 
Q 844 647 1022 506 
Q 1200 366 1444 366 
Q 1741 366 2019 503 
Q 2488 731 2488 1250 
L 2488 1703 
Q 2384 1638 2221 1594 
Q 2059 1550 1903 1531 
L 1563 1488 
Q 1256 1447 1103 1359 
Q 844 1213 844 891 
z
M 2206 2028 
Q 2400 2053 2466 2191 
Q 2503 2266 2503 2406 
Q 2503 2694 2298 2823 
Q 2094 2953 1713 2953 
Q 1272 2953 1088 2716 
Q 984 2584 953 2325 
L 428 2325 
Q 444 2944 830 3186 
Q 1216 3428 1725 3428 
Q 2316 3428 2684 3203 
Q 3050 2978 3050 2503 
L 3050 575 
Q 3050 488 3086 434 
Q 3122 381 3238 381 
Q 3275 381 3322 386 
Q 3369 391 3422 400 
L 3422 -16 
Q 3291 -53 3222 -62 
Q 3153 -72 3034 -72 
Q 2744 -72 2613 134 
Q 2544 244 2516 444 
Q 2344 219 2022 53 
Q 1700 -113 1313 -113 
Q 847 -113 551 170 
Q 256 453 256 878 
Q 256 1344 547 1600 
Q 838 1856 1309 1916 
L 2206 2028 
z
M 1741 3428 
L 1741 3428 
z
" transform="scale(0.015625)"/>
       <path id="Helvetica-76" d="M 688 3347 
L 1581 622 
L 2516 3347 
L 3131 3347 
L 1869 0 
L 1269 0 
L 34 3347 
L 688 3347 
z
" transform="scale(0.015625)"/>
       <path id="Helvetica-65" d="M 1806 3422 
Q 2163 3422 2497 3255 
Q 2831 3088 3006 2822 
Q 3175 2569 3231 2231 
Q 3281 2000 3281 1494 
L 828 1494 
Q 844 984 1069 676 
Q 1294 369 1766 369 
Q 2206 369 2469 659 
Q 2619 828 2681 1050 
L 3234 1050 
Q 3213 866 3089 639 
Q 2966 413 2813 269 
Q 2556 19 2178 -69 
Q 1975 -119 1719 -119 
Q 1094 -119 659 336 
Q 225 791 225 1609 
Q 225 2416 662 2919 
Q 1100 3422 1806 3422 
z
M 2703 1941 
Q 2669 2306 2544 2525 
Q 2313 2931 1772 2931 
Q 1384 2931 1121 2651 
Q 859 2372 844 1941 
L 2703 1941 
z
M 1753 3428 
L 1753 3428 
z
" transform="scale(0.015625)"/>
       <path id="Helvetica-6c" d="M 428 4591 
L 991 4591 
L 991 0 
L 428 0 
L 428 4591 
z
" transform="scale(0.015625)"/>
       <path id="Helvetica-6e" d="M 413 3347 
L 947 3347 
L 947 2872 
Q 1184 3166 1450 3294 
Q 1716 3422 2041 3422 
Q 2753 3422 3003 2925 
Q 3141 2653 3141 2147 
L 3141 0 
L 2569 0 
L 2569 2109 
Q 2569 2416 2478 2603 
Q 2328 2916 1934 2916 
Q 1734 2916 1606 2875 
Q 1375 2806 1200 2600 
Q 1059 2434 1017 2257 
Q 975 2081 975 1753 
L 975 0 
L 413 0 
L 413 3347 
z
M 1734 3428 
L 1734 3428 
z
" transform="scale(0.015625)"/>
       <path id="Helvetica-67" d="M 1594 3406 
Q 1988 3406 2281 3213 
Q 2441 3103 2606 2894 
L 2606 3316 
L 3125 3316 
L 3125 272 
Q 3125 -366 2938 -734 
Q 2588 -1416 1616 -1416 
Q 1075 -1416 706 -1173 
Q 338 -931 294 -416 
L 866 -416 
Q 906 -641 1028 -763 
Q 1219 -950 1628 -950 
Q 2275 -950 2475 -494 
Q 2594 -225 2584 466 
Q 2416 209 2178 84 
Q 1941 -41 1550 -41 
Q 1006 -41 598 345 
Q 191 731 191 1622 
Q 191 2463 602 2934 
Q 1013 3406 1594 3406 
z
M 2606 1688 
Q 2606 2309 2350 2609 
Q 2094 2909 1697 2909 
Q 1103 2909 884 2353 
Q 769 2056 769 1575 
Q 769 1009 998 714 
Q 1228 419 1616 419 
Q 2222 419 2469 966 
Q 2606 1275 2606 1688 
z
M 1659 3428 
L 1659 3428 
z
" transform="scale(0.015625)"/>
       <path id="Helvetica-74" d="M 525 4281 
L 1094 4281 
L 1094 3347 
L 1628 3347 
L 1628 2888 
L 1094 2888 
L 1094 703 
Q 1094 528 1213 469 
Q 1278 434 1431 434 
Q 1472 434 1519 436 
Q 1566 438 1628 444 
L 1628 0 
Q 1531 -28 1426 -40 
Q 1322 -53 1200 -53 
Q 806 -53 665 148 
Q 525 350 525 672 
L 525 2888 
L 72 2888 
L 72 3347 
L 525 3347 
L 525 4281 
z
" transform="scale(0.015625)"/>
       <path id="Helvetica-68" d="M 413 4606 
L 975 4606 
L 975 2894 
Q 1175 3147 1334 3250 
Q 1606 3428 2013 3428 
Q 2741 3428 3000 2919 
Q 3141 2641 3141 2147 
L 3141 0 
L 2563 0 
L 2563 2109 
Q 2563 2478 2469 2650 
Q 2316 2925 1894 2925 
Q 1544 2925 1259 2684 
Q 975 2444 975 1775 
L 975 0 
L 413 0 
L 413 4606 
z
" transform="scale(0.015625)"/>
       <path id="Helvetica-20" transform="scale(0.015625)"/>
       <path id="Helvetica-28" d="M 1894 4666 
Q 1403 3713 1256 3263 
Q 1034 2578 1034 1681 
Q 1034 775 1288 25 
Q 1444 -438 1903 -1306 
L 1525 -1306 
Q 1069 -594 959 -397 
Q 850 -200 722 138 
Q 547 600 478 1125 
Q 444 1397 444 1644 
Q 444 2569 734 3291 
Q 919 3750 1503 4666 
L 1894 4666 
z
" transform="scale(0.015625)"/>
       <path id="Helvetica-6d" d="M 413 3347 
L 969 3347 
L 969 2872 
Q 1169 3119 1331 3231 
Q 1609 3422 1963 3422 
Q 2363 3422 2606 3225 
Q 2744 3113 2856 2894 
Q 3044 3163 3297 3292 
Q 3550 3422 3866 3422 
Q 4541 3422 4784 2934 
Q 4916 2672 4916 2228 
L 4916 0 
L 4331 0 
L 4331 2325 
Q 4331 2659 4164 2784 
Q 3997 2909 3756 2909 
Q 3425 2909 3186 2687 
Q 2947 2466 2947 1947 
L 2947 0 
L 2375 0 
L 2375 2184 
Q 2375 2525 2294 2681 
Q 2166 2916 1816 2916 
Q 1497 2916 1236 2669 
Q 975 2422 975 1775 
L 975 0 
L 413 0 
L 413 3347 
z
" transform="scale(0.015625)"/>
       <path id="Helvetica-29" d="M 222 -1306 
Q 719 -338 863 106 
Q 1081 778 1081 1681 
Q 1081 2584 828 3334 
Q 672 3797 213 4666 
L 591 4666 
Q 1072 3897 1173 3717 
Q 1275 3538 1394 3222 
Q 1544 2831 1608 2450 
Q 1672 2069 1672 1716 
Q 1672 791 1378 66 
Q 1194 -400 613 -1306 
L 222 -1306 
z
" transform="scale(0.015625)"/>
      </defs>
      <use xlink:href="#Helvetica-77"/>
      <use xlink:href="#Helvetica-61" transform="translate(72.216797 0)"/>
      <use xlink:href="#Helvetica-76" transform="translate(127.832031 0)"/>
      <use xlink:href="#Helvetica-65" transform="translate(177.832031 0)"/>
      <use xlink:href="#Helvetica-6c" transform="translate(233.447266 0)"/>
      <use xlink:href="#Helvetica-65" transform="translate(255.664062 0)"/>
      <use xlink:href="#Helvetica-6e" transform="translate(311.279297 0)"/>
      <use xlink:href="#Helvetica-67" transform="translate(366.894531 0)"/>
      <use xlink:href="#Helvetica-74" transform="translate(422.509766 0)"/>
      <use xlink:href="#Helvetica-68" transform="translate(450.292969 0)"/>
      <use xlink:href="#Helvetica-20" transform="translate(505.908203 0)"/>
      <use xlink:href="#Helvetica-28" transform="translate(533.691406 0)"/>
      <use xlink:href="#Helvetica-6e" transform="translate(566.992188 0)"/>
      <use xlink:href="#Helvetica-6d" transform="translate(622.607422 0)"/>
      <use xlink:href="#Helvetica-29" transform="translate(705.908203 0)"/>
     </g>
    </g>
   </g>
   <g id="matplotlib.axis_2">
    <g id="ytick_1">
     <g id="line2d_43">
      <path d="M 74.27 365.071941 
L 699.621287 365.071941 
" clip-path="url(#pc337b40499)" style="fill: none; stroke: #b0b0b0; stroke-opacity: 0.3; stroke-width: 0.8; stroke-linecap: square"/>
     </g>
     <g id="line2d_44">
      <defs>
       <path id="m5fa7a2911d" d="M 0 0 
L -3.5 0 
" style="stroke: #000000; stroke-width: 0.8"/>
      </defs>
      <g>
       <use xlink:href="#m5fa7a2911d" x="74.27" y="365.071941" style="stroke: #000000; stroke-width: 0.8"/>
      </g>
     </g>
     <g id="text_23">
      <!-- -2000.00 -->
      <g transform="translate(27.796563 368.65866) scale(0.1 -0.1)">
       <defs>
        <path id="Helvetica-2d" d="M 266 2072 
L 1834 2072 
L 1834 1494 
L 266 1494 
L 266 2072 
z
" transform="scale(0.015625)"/>
        <path id="Helvetica-2e" d="M 547 681 
L 1200 681 
L 1200 0 
L 547 0 
L 547 681 
z
" transform="scale(0.015625)"/>
       </defs>
       <use xlink:href="#Helvetica-2d"/>
       <use xlink:href="#Helvetica-32" transform="translate(33.300781 0)"/>
       <use xlink:href="#Helvetica-30" transform="translate(88.916016 0)"/>
       <use xlink:href="#Helvetica-30" transform="translate(144.53125 0)"/>
       <use xlink:href="#Helvetica-30" transform="translate(200.146484 0)"/>
       <use xlink:href="#Helvetica-2e" transform="translate(255.761719 0)"/>
       <use xlink:href="#Helvetica-30" transform="translate(283.544922 0)"/>
       <use xlink:href="#Helvetica-30" transform="translate(339.160156 0)"/>
      </g>
     </g>
    </g>
    <g id="ytick_2">
     <g id="line2d_45">
      <path d="M 74.27 263.079926 
L 699.621287 263.079926 
" clip-path="url(#pc337b40499)" style="fill: none; stroke: #b0b0b0; stroke-opacity: 0.3; stroke-width: 0.8; stroke-linecap: square"/>
     </g>
     <g id="line2d_46">
      <g>
       <use xlink:href="#m5fa7a2911d" x="74.27" y="263.079926" style="stroke: #000000; stroke-width: 0.8"/>
      </g>
     </g>
     <g id="text_24">
      <!-- -1000.00 -->
      <g transform="translate(27.796563 266.666645) scale(0.1 -0.1)">
       <use xlink:href="#Helvetica-2d"/>
       <use xlink:href="#Helvetica-31" transform="translate(33.300781 0)"/>
       <use xlink:href="#Helvetica-30" transform="translate(88.916016 0)"/>
       <use xlink:href="#Helvetica-30" transform="translate(144.53125 0)"/>
       <use xlink:href="#Helvetica-30" transform="translate(200.146484 0)"/>
       <use xlink:href="#Helvetica-2e" transform="translate(255.761719 0)"/>
       <use xlink:href="#Helvetica-30" transform="translate(283.544922 0)"/>
       <use xlink:href="#Helvetica-30" transform="translate(339.160156 0)"/>
      </g>
     </g>
    </g>
    <g id="ytick_3">
     <g id="line2d_47">
      <path d="M 74.27 161.087912 
L 699.621287 161.087912 
" clip-path="url(#pc337b40499)" style="fill: none; stroke: #b0b0b0; stroke-opacity: 0.3; stroke-width: 0.8; stroke-linecap: square"/>
     </g>
     <g id="line2d_48">
      <g>
       <use xlink:href="#m5fa7a2911d" x="74.27" y="161.087912" style="stroke: #000000; stroke-width: 0.8"/>
      </g>
     </g>
     <g id="text_25">
      <!-- 0.00 -->
      <g transform="translate(47.809063 164.67463) scale(0.1 -0.1)">
       <use xlink:href="#Helvetica-30"/>
       <use xlink:href="#Helvetica-2e" transform="translate(55.615234 0)"/>
       <use xlink:href="#Helvetica-30" transform="translate(83.398438 0)"/>
       <use xlink:href="#Helvetica-30" transform="translate(139.013672 0)"/>
      </g>
     </g>
    </g>
    <g id="ytick_4">
     <g id="line2d_49">
      <path d="M 74.27 59.095897 
L 699.621287 59.095897 
" clip-path="url(#pc337b40499)" style="fill: none; stroke: #b0b0b0; stroke-opacity: 0.3; stroke-width: 0.8; stroke-linecap: square"/>
     </g>
     <g id="line2d_50">
      <g>
       <use xlink:href="#m5fa7a2911d" x="74.27" y="59.095897" style="stroke: #000000; stroke-width: 0.8"/>
      </g>
     </g>
     <g id="text_26">
      <!-- 1000.00 -->
      <g transform="translate(31.12625 62.682615) scale(0.1 -0.1)">
       <use xlink:href="#Helvetica-31"/>
       <use xlink:href="#Helvetica-30" transform="translate(55.615234 0)"/>
       <use xlink:href="#Helvetica-30" transform="translate(111.230469 0)"/>
       <use xlink:href="#Helvetica-30" transform="translate(166.845703 0)"/>
       <use xlink:href="#Helvetica-2e" transform="translate(222.460938 0)"/>
       <use xlink:href="#Helvetica-30" transform="translate(250.244141 0)"/>
       <use xlink:href="#Helvetica-30" transform="translate(305.859375 0)"/>
      </g>
     </g>
    </g>
    <g id="text_27">
     <!-- $D_2$/(2$\pi$) (kHz) -->
     <g transform="translate(21.696563 237.84) rotate(-90) scale(0.1 -0.1)">
      <defs>
       <path id="DejaVuSans-Oblique-44" d="M 1081 4666 
L 2438 4666 
Q 3519 4666 4070 4208 
Q 4622 3750 4622 2847 
Q 4622 2250 4412 1698 
Q 4203 1147 3834 769 
Q 3463 381 2891 190 
Q 2319 0 1538 0 
L 172 0 
L 1081 4666 
z
M 1613 4147 
L 909 519 
L 1734 519 
Q 2794 519 3375 1128 
Q 3956 1738 3956 2847 
Q 3956 3519 3581 3833 
Q 3206 4147 2406 4147 
L 1613 4147 
z
" transform="scale(0.015625)"/>
       <path id="DejaVuSans-32" d="M 1228 531 
L 3431 531 
L 3431 0 
L 469 0 
L 469 531 
Q 828 903 1448 1529 
Q 2069 2156 2228 2338 
Q 2531 2678 2651 2914 
Q 2772 3150 2772 3378 
Q 2772 3750 2511 3984 
Q 2250 4219 1831 4219 
Q 1534 4219 1204 4116 
Q 875 4013 500 3803 
L 500 4441 
Q 881 4594 1212 4672 
Q 1544 4750 1819 4750 
Q 2544 4750 2975 4387 
Q 3406 4025 3406 3419 
Q 3406 3131 3298 2873 
Q 3191 2616 2906 2266 
Q 2828 2175 2409 1742 
Q 1991 1309 1228 531 
z
" transform="scale(0.015625)"/>
       <path id="Helvetica-2f" d="M 1456 4591 
L 1931 4591 
L 475 0 
L 0 0 
L 1456 4591 
z
" transform="scale(0.015625)"/>
       <path id="DejaVuSans-Oblique-3c0" d="M 584 3500 
L 3938 3500 
L 3825 2925 
L 3384 2925 
L 2966 775 
Q 2922 550 2981 450 
Q 3038 353 3209 353 
Q 3256 353 3325 363 
Q 3397 369 3419 372 
L 3338 -44 
Q 3222 -84 3103 -103 
Q 2981 -122 2866 -122 
Q 2491 -122 2388 81 
Q 2284 288 2391 838 
L 2797 2925 
L 1506 2925 
L 938 0 
L 350 0 
L 919 2925 
L 472 2925 
L 584 3500 
z
" transform="scale(0.015625)"/>
       <path id="Helvetica-6b" d="M 400 4591 
L 941 4591 
L 941 1925 
L 2384 3347 
L 3103 3347 
L 1822 2094 
L 3175 0 
L 2456 0 
L 1413 1688 
L 941 1256 
L 941 0 
L 400 0 
L 400 4591 
z
" transform="scale(0.015625)"/>
       <path id="Helvetica-48" d="M 503 4591 
L 1131 4591 
L 1131 2694 
L 3519 2694 
L 3519 4591 
L 4147 4591 
L 4147 0 
L 3519 0 
L 3519 2147 
L 1131 2147 
L 1131 0 
L 503 0 
L 503 4591 
z
" transform="scale(0.015625)"/>
       <path id="Helvetica-7a" d="M 163 444 
L 2147 2844 
L 309 2844 
L 309 3347 
L 2903 3347 
L 2903 2888 
L 931 503 
L 2963 503 
L 2963 0 
L 163 0 
L 163 444 
z
M 1609 3428 
L 1609 3428 
z
" transform="scale(0.015625)"/>
      </defs>
      <use xlink:href="#DejaVuSans-Oblique-44" transform="translate(0 0.09375)"/>
      <use xlink:href="#DejaVuSans-32" transform="translate(77.001953 -16.3125) scale(0.7)"/>
      <use xlink:href="#Helvetica-2f" transform="translate(124.272461 0.09375)"/>
      <use xlink:href="#Helvetica-28" transform="translate(152.055664 0.09375)"/>
      <use xlink:href="#Helvetica-32" transform="translate(185.356445 0.09375)"/>
      <use xlink:href="#DejaVuSans-Oblique-3c0" transform="translate(240.97168 0.09375)"/>
      <use xlink:href="#Helvetica-29" transform="translate(301.176758 0.09375)"/>
      <use xlink:href="#Helvetica-20" transform="translate(334.477539 0.09375)"/>
      <use xlink:href="#Helvetica-28" transform="translate(362.260742 0.09375)"/>
      <use xlink:href="#Helvetica-6b" transform="translate(395.561523 0.09375)"/>
      <use xlink:href="#Helvetica-48" transform="translate(445.561523 0.09375)"/>
      <use xlink:href="#Helvetica-7a" transform="translate(517.77832 0.09375)"/>
      <use xlink:href="#Helvetica-29" transform="translate(567.77832 0.09375)"/>
     </g>
    </g>
   </g>
   <g id="line2d_51">
    <path d="M -1 231.278733 
L 3.001116 235.158264 
L 7.269177 239.59583 
L 11.537238 244.33715 
L 15.805298 249.371854 
L 20.073359 254.676949 
L 26.47545 263.052532 
L 43.547693 285.996349 
L 47.815754 291.244772 
L 52.083815 296.006171 
L 54.217845 298.155257 
L 56.351875 300.124636 
L 58.485906 301.896478 
L 60.619936 303.454315 
L 62.753967 304.783392 
L 64.887997 305.871007 
L 67.022027 306.706795 
L 69.156058 307.28298 
L 71.290088 307.594554 
L 73.424118 307.639386 
L 75.558149 307.418271 
L 77.692179 306.934886 
L 79.82621 306.195686 
L 81.96024 305.209727 
L 84.09427 303.988432 
L 86.228301 302.545303 
L 88.362331 300.895601 
L 90.496361 299.056001 
L 92.630392 297.044231 
L 96.898453 292.578268 
L 101.166513 287.647555 
L 107.568604 279.696606 
L 122.506817 260.646544 
L 128.908908 252.954957 
L 133.176969 248.109848 
L 137.44503 243.518028 
L 141.71309 239.190044 
L 145.981151 235.127731 
L 150.249212 231.326319 
L 154.517273 227.776228 
L 158.785333 224.464548 
L 163.053394 221.376205 
L 167.321455 218.494866 
L 171.589516 215.803625 
L 177.991607 212.086086 
L 184.393698 208.702068 
L 190.795789 205.598322 
L 197.19788 202.725049 
L 205.734002 199.173104 
L 216.404154 195.04181 
L 252.68267 181.344265 
L 261.218791 177.73325 
L 267.620883 174.820926 
L 274.022974 171.69516 
L 280.425065 168.322048 
L 286.827156 164.669706 
L 293.229247 160.710198 
L 299.631338 156.422298 
L 306.033429 151.795216 
L 312.43552 146.833327 
L 318.837612 141.561791 
L 327.373733 134.146012 
L 346.580006 117.110254 
L 350.848067 113.594503 
L 355.116128 110.310737 
L 359.384189 107.326356 
L 363.652249 104.707321 
L 367.92031 102.514895 
L 370.054341 101.595696 
L 372.188371 100.802305 
L 374.322401 100.139612 
L 376.456432 99.611641 
L 378.590462 99.221494 
L 380.724492 98.971298 
L 382.858523 98.86218 
L 384.992553 98.894247 
L 387.126584 99.066593 
L 389.260614 99.377321 
L 391.394644 99.823577 
L 393.528675 100.401605 
L 395.662705 101.106813 
L 399.930766 102.876699 
L 404.198827 105.08297 
L 408.466887 107.667759 
L 412.734948 110.568802 
L 417.003009 113.722503 
L 423.4051 118.791597 
L 434.075252 127.682083 
L 444.745404 136.533099 
L 451.147495 141.627763 
L 457.549586 146.486337 
L 463.951677 151.07782 
L 470.353768 155.39064 
L 476.755859 159.427737 
L 483.15795 163.202361 
L 489.560042 166.734699 
L 495.962133 170.049298 
L 504.498254 174.176933 
L 513.034376 178.03242 
L 523.704528 182.571061 
L 538.64274 188.627261 
L 559.983044 197.260268 
L 570.653196 201.80093 
L 581.323348 206.610473 
L 589.859469 210.696553 
L 598.395591 215.016372 
L 606.931712 219.570988 
L 617.601864 225.556184 
L 649.61232 243.874109 
L 656.014411 247.125271 
L 660.282472 249.114484 
L 664.550532 250.930208 
L 668.818593 252.547021 
L 673.086654 253.941402 
L 677.354715 255.092584 
L 681.622775 255.983345 
L 685.890836 256.600681 
L 690.158897 256.936317 
L 694.426958 256.987016 
L 698.695018 256.754666 
L 702.963079 256.246135 
L 707.23114 255.472925 
L 711.499201 254.450628 
L 715.767261 253.198251 
L 721 251.375219 
L 721 251.375219 
" clip-path="url(#pc337b40499)" style="fill: none; stroke: #ff8c00; stroke-width: 1.5; stroke-linecap: square"/>
   </g>
   <g id="line2d_52">
    <path d="M 74.27 161.087912 
L 699.621287 161.087912 
" clip-path="url(#pc337b40499)" style="fill: none; stroke-dasharray: 1.85,0.8; stroke-dashoffset: 0; stroke: #808080; stroke-width: 0.5"/>
   </g>
   <g id="patch_4">
    <path d="M 74.27 390.04 
L 74.27 25.44 
" style="fill: none; stroke: #000000; stroke-width: 0.8; stroke-linejoin: miter; stroke-linecap: square"/>
   </g>
   <g id="patch_5">
    <path d="M 699.621287 390.04 
L 699.621287 25.44 
" style="fill: none; stroke: #000000; stroke-width: 0.8; stroke-linejoin: miter; stroke-linecap: square"/>
   </g>
   <g id="patch_6">
    <path d="M 74.27 390.04 
L 699.621287 390.04 
" style="fill: none; stroke: #000000; stroke-width: 0.8; stroke-linejoin: miter; stroke-linecap: square"/>
   </g>
   <g id="patch_7">
    <path d="M 74.27 25.44 
L 699.621287 25.44 
" style="fill: none; stroke: #000000; stroke-width: 0.8; stroke-linejoin: miter; stroke-linecap: square"/>
   </g>
   <g id="text_28">
    <g id="patch_8">
     <path d="M 449.480772 364.7925 
L 625.122959 364.7925 
Q 634.122959 364.7925 634.122959 355.7925 
L 634.122959 307.600312 
Q 634.122959 298.600312 625.122959 298.600312 
L 449.480772 298.600312 
Q 440.480772 298.600312 440.480772 307.600312 
L 440.480772 355.7925 
Q 440.480772 364.7925 449.480772 364.7925 
z
" style="fill: #ffffff; opacity: 0.9; stroke: #000000; stroke-linejoin: miter"/>
    </g>
    <!-- Optimized Parameters:  -->
    <g transform="translate(449.480772 314.840937) scale(0.1 -0.1)">
     <defs>
      <path id="Helvetica-4f" d="M 2469 4716 
Q 3684 4716 4269 3934 
Q 4725 3325 4725 2375 
Q 4725 1347 4203 666 
Q 3591 -134 2456 -134 
Q 1397 -134 791 566 
Q 250 1241 250 2272 
Q 250 3203 713 3866 
Q 1306 4716 2469 4716 
z
M 2531 422 
Q 3353 422 3720 1011 
Q 4088 1600 4088 2366 
Q 4088 3175 3664 3669 
Q 3241 4163 2506 4163 
Q 1794 4163 1344 3673 
Q 894 3184 894 2231 
Q 894 1469 1280 945 
Q 1666 422 2531 422 
z
M 2488 4716 
L 2488 4716 
z
" transform="scale(0.015625)"/>
      <path id="Helvetica-70" d="M 1825 378 
Q 2219 378 2480 708 
Q 2741 1038 2741 1694 
Q 2741 2094 2625 2381 
Q 2406 2934 1825 2934 
Q 1241 2934 1025 2350 
Q 909 2038 909 1556 
Q 909 1169 1025 897 
Q 1244 378 1825 378 
z
M 369 3331 
L 916 3331 
L 916 2888 
Q 1084 3116 1284 3241 
Q 1569 3428 1953 3428 
Q 2522 3428 2919 2992 
Q 3316 2556 3316 1747 
Q 3316 653 2744 184 
Q 2381 -113 1900 -113 
Q 1522 -113 1266 53 
Q 1116 147 931 375 
L 931 -1334 
L 369 -1334 
L 369 3331 
z
" transform="scale(0.015625)"/>
      <path id="Helvetica-69" d="M 413 3331 
L 984 3331 
L 984 0 
L 413 0 
L 413 3331 
z
M 413 4591 
L 984 4591 
L 984 3953 
L 413 3953 
L 413 4591 
z
" transform="scale(0.015625)"/>
      <path id="Helvetica-64" d="M 769 1634 
Q 769 1097 997 734 
Q 1225 372 1728 372 
Q 2119 372 2370 708 
Q 2622 1044 2622 1672 
Q 2622 2306 2362 2611 
Q 2103 2916 1722 2916 
Q 1297 2916 1033 2591 
Q 769 2266 769 1634 
z
M 1616 3406 
Q 2000 3406 2259 3244 
Q 2409 3150 2600 2916 
L 2600 4606 
L 3141 4606 
L 3141 0 
L 2634 0 
L 2634 466 
Q 2438 156 2169 18 
Q 1900 -119 1553 -119 
Q 994 -119 584 351 
Q 175 822 175 1603 
Q 175 2334 548 2870 
Q 922 3406 1616 3406 
z
" transform="scale(0.015625)"/>
      <path id="Helvetica-50" d="M 547 4591 
L 2613 4591 
Q 3225 4591 3600 4245 
Q 3975 3900 3975 3275 
Q 3975 2738 3640 2339 
Q 3306 1941 2613 1941 
L 1169 1941 
L 1169 0 
L 547 0 
L 547 4591 
z
M 3347 3272 
Q 3347 3778 2972 3959 
Q 2766 4056 2406 4056 
L 1169 4056 
L 1169 2466 
L 2406 2466 
Q 2825 2466 3086 2644 
Q 3347 2822 3347 3272 
z
" transform="scale(0.015625)"/>
      <path id="Helvetica-72" d="M 428 3347 
L 963 3347 
L 963 2769 
Q 1028 2938 1284 3180 
Q 1541 3422 1875 3422 
Q 1891 3422 1928 3419 
Q 1966 3416 2056 3406 
L 2056 2813 
Q 2006 2822 1964 2825 
Q 1922 2828 1872 2828 
Q 1447 2828 1219 2554 
Q 991 2281 991 1925 
L 991 0 
L 428 0 
L 428 3347 
z
" transform="scale(0.015625)"/>
      <path id="Helvetica-73" d="M 747 1050 
Q 772 769 888 619 
Q 1100 347 1625 347 
Q 1938 347 2175 483 
Q 2413 619 2413 903 
Q 2413 1119 2222 1231 
Q 2100 1300 1741 1391 
L 1294 1503 
Q 866 1609 663 1741 
Q 300 1969 300 2372 
Q 300 2847 642 3140 
Q 984 3434 1563 3434 
Q 2319 3434 2653 2991 
Q 2863 2709 2856 2384 
L 2325 2384 
Q 2309 2575 2191 2731 
Q 1997 2953 1519 2953 
Q 1200 2953 1036 2831 
Q 872 2709 872 2509 
Q 872 2291 1088 2159 
Q 1213 2081 1456 2022 
L 1828 1931 
Q 2434 1784 2641 1647 
Q 2969 1431 2969 969 
Q 2969 522 2630 197 
Q 2291 -128 1597 -128 
Q 850 -128 539 211 
Q 228 550 206 1050 
L 747 1050 
z
M 1578 3428 
L 1578 3428 
z
" transform="scale(0.015625)"/>
      <path id="Helvetica-3a" d="M 709 3303 
L 1363 3303 
L 1363 2622 
L 709 2622 
L 709 3303 
z
M 709 681 
L 1363 681 
L 1363 0 
L 709 0 
L 709 681 
z
" transform="scale(0.015625)"/>
     </defs>
     <use xlink:href="#Helvetica-4f"/>
     <use xlink:href="#Helvetica-70" transform="translate(77.783203 0)"/>
     <use xlink:href="#Helvetica-74" transform="translate(133.398438 0)"/>
     <use xlink:href="#Helvetica-69" transform="translate(161.181641 0)"/>
     <use xlink:href="#Helvetica-6d" transform="translate(183.398438 0)"/>
     <use xlink:href="#Helvetica-69" transform="translate(266.699219 0)"/>
     <use xlink:href="#Helvetica-7a" transform="translate(288.916016 0)"/>
     <use xlink:href="#Helvetica-65" transform="translate(338.916016 0)"/>
     <use xlink:href="#Helvetica-64" transform="translate(394.53125 0)"/>
     <use xlink:href="#Helvetica-20" transform="translate(450.146484 0)"/>
     <use xlink:href="#Helvetica-50" transform="translate(477.929688 0)"/>
     <use xlink:href="#Helvetica-61" transform="translate(544.628906 0)"/>
     <use xlink:href="#Helvetica-72" transform="translate(600.244141 0)"/>
     <use xlink:href="#Helvetica-61" transform="translate(633.544922 0)"/>
     <use xlink:href="#Helvetica-6d" transform="translate(689.160156 0)"/>
     <use xlink:href="#Helvetica-65" transform="translate(772.460938 0)"/>
     <use xlink:href="#Helvetica-74" transform="translate(828.076172 0)"/>
     <use xlink:href="#Helvetica-65" transform="translate(855.859375 0)"/>
     <use xlink:href="#Helvetica-72" transform="translate(911.474609 0)"/>
     <use xlink:href="#Helvetica-73" transform="translate(944.775391 0)"/>
     <use xlink:href="#Helvetica-3a" transform="translate(994.775391 0)"/>
     <use xlink:href="#Helvetica-20" transform="translate(1022.558594 0)"/>
    </g>
    <!-- $L_2/L_1$ = 1.0057 -->
    <g transform="translate(449.480772 327.685469) scale(0.1 -0.1)">
     <defs>
      <path id="DejaVuSans-Oblique-4c" d="M 1075 4666 
L 1709 4666 
L 909 525 
L 3181 525 
L 3078 0 
L 172 0 
L 1075 4666 
z
" transform="scale(0.015625)"/>
      <path id="DejaVuSans-2f" d="M 1625 4666 
L 2156 4666 
L 531 -594 
L 0 -594 
L 1625 4666 
z
" transform="scale(0.015625)"/>
      <path id="DejaVuSans-31" d="M 794 531 
L 1825 531 
L 1825 4091 
L 703 3866 
L 703 4441 
L 1819 4666 
L 2450 4666 
L 2450 531 
L 3481 531 
L 3481 0 
L 794 0 
L 794 531 
z
" transform="scale(0.015625)"/>
      <path id="Helvetica-3d" d="M 3547 2569 
L 3547 2044 
L 288 2044 
L 288 2569 
L 3547 2569 
z
M 3547 1228 
L 3547 694 
L 288 694 
L 288 1228 
L 3547 1228 
z
" transform="scale(0.015625)"/>
     </defs>
     <use xlink:href="#DejaVuSans-Oblique-4c" transform="translate(0 0.09375)"/>
     <use xlink:href="#DejaVuSans-32" transform="translate(55.712891 -16.3125) scale(0.7)"/>
     <use xlink:href="#DejaVuSans-2f" transform="translate(102.983398 0.09375)"/>
     <use xlink:href="#DejaVuSans-Oblique-4c" transform="translate(136.674805 0.09375)"/>
     <use xlink:href="#DejaVuSans-31" transform="translate(192.387695 -16.3125) scale(0.7)"/>
     <use xlink:href="#Helvetica-20" transform="translate(239.658203 0.09375)"/>
     <use xlink:href="#Helvetica-3d" transform="translate(267.441406 0.09375)"/>
     <use xlink:href="#Helvetica-20" transform="translate(325.839844 0.09375)"/>
     <use xlink:href="#Helvetica-31" transform="translate(353.623047 0.09375)"/>
     <use xlink:href="#Helvetica-2e" transform="translate(409.238281 0.09375)"/>
     <use xlink:href="#Helvetica-30" transform="translate(437.021484 0.09375)"/>
     <use xlink:href="#Helvetica-30" transform="translate(492.636719 0.09375)"/>
     <use xlink:href="#Helvetica-35" transform="translate(548.251953 0.09375)"/>
     <use xlink:href="#Helvetica-37" transform="translate(603.867188 0.09375)"/>
    </g>
    <!-- $g_{co}L_{co}$ = 0.85 -->
    <g transform="translate(449.480772 340.719844) scale(0.1 -0.1)">
     <defs>
      <path id="DejaVuSans-Oblique-67" d="M 3816 3500 
L 3219 434 
Q 3047 -456 2561 -893 
Q 2075 -1331 1253 -1331 
Q 950 -1331 690 -1286 
Q 431 -1241 206 -1147 
L 313 -588 
Q 525 -725 762 -790 
Q 1000 -856 1269 -856 
Q 1816 -856 2167 -557 
Q 2519 -259 2631 300 
L 2681 563 
Q 2441 288 2122 144 
Q 1803 0 1434 0 
Q 903 0 598 351 
Q 294 703 294 1319 
Q 294 1803 478 2267 
Q 663 2731 997 3091 
Q 1219 3328 1514 3456 
Q 1809 3584 2131 3584 
Q 2484 3584 2746 3420 
Q 3009 3256 3138 2956 
L 3238 3500 
L 3816 3500 
z
M 2950 2216 
Q 2950 2641 2750 2872 
Q 2550 3103 2181 3103 
Q 1953 3103 1747 3012 
Q 1541 2922 1394 2759 
Q 1156 2491 1023 2127 
Q 891 1763 891 1375 
Q 891 944 1092 712 
Q 1294 481 1672 481 
Q 2219 481 2584 976 
Q 2950 1472 2950 2216 
z
" transform="scale(0.015625)"/>
      <path id="DejaVuSans-Oblique-63" d="M 3431 3366 
L 3316 2797 
Q 3109 2947 2876 3022 
Q 2644 3097 2394 3097 
Q 2119 3097 1870 3000 
Q 1622 2903 1453 2725 
Q 1184 2453 1037 2087 
Q 891 1722 891 1331 
Q 891 859 1127 628 
Q 1363 397 1844 397 
Q 2081 397 2348 469 
Q 2616 541 2906 684 
L 2797 116 
Q 2547 13 2283 -39 
Q 2019 -91 1741 -91 
Q 1044 -91 669 257 
Q 294 606 294 1253 
Q 294 1797 489 2255 
Q 684 2713 1069 3078 
Q 1331 3328 1684 3456 
Q 2038 3584 2456 3584 
Q 2700 3584 2940 3529 
Q 3181 3475 3431 3366 
z
" transform="scale(0.015625)"/>
      <path id="DejaVuSans-Oblique-6f" d="M 1625 -91 
Q 1009 -91 651 289 
Q 294 669 294 1325 
Q 294 1706 417 2101 
Q 541 2497 738 2766 
Q 1047 3184 1428 3384 
Q 1809 3584 2291 3584 
Q 2888 3584 3255 3212 
Q 3622 2841 3622 2241 
Q 3622 1825 3500 1412 
Q 3378 1000 3181 728 
Q 2875 309 2494 109 
Q 2113 -91 1625 -91 
z
M 891 1344 
Q 891 869 1089 633 
Q 1288 397 1691 397 
Q 2269 397 2648 901 
Q 3028 1406 3028 2181 
Q 3028 2634 2825 2865 
Q 2622 3097 2228 3097 
Q 1903 3097 1650 2945 
Q 1397 2794 1197 2484 
Q 1050 2253 970 1956 
Q 891 1659 891 1344 
z
" transform="scale(0.015625)"/>
     </defs>
     <use xlink:href="#DejaVuSans-Oblique-67" transform="translate(0 0.09375)"/>
     <use xlink:href="#DejaVuSans-Oblique-63" transform="translate(63.476562 -16.3125) scale(0.7)"/>
     <use xlink:href="#DejaVuSans-Oblique-6f" transform="translate(101.962891 -16.3125) scale(0.7)"/>
     <use xlink:href="#DejaVuSans-Oblique-4c" transform="translate(147.524414 0.09375)"/>
     <use xlink:href="#DejaVuSans-Oblique-63" transform="translate(203.237305 -16.3125) scale(0.7)"/>
     <use xlink:href="#DejaVuSans-Oblique-6f" transform="translate(241.723633 -16.3125) scale(0.7)"/>
     <use xlink:href="#Helvetica-20" transform="translate(287.285156 0.09375)"/>
     <use xlink:href="#Helvetica-3d" transform="translate(315.068359 0.09375)"/>
     <use xlink:href="#Helvetica-20" transform="translate(373.466797 0.09375)"/>
     <use xlink:href="#Helvetica-30" transform="translate(401.25 0.09375)"/>
     <use xlink:href="#Helvetica-2e" transform="translate(456.865234 0.09375)"/>
     <use xlink:href="#Helvetica-38" transform="translate(484.648438 0.09375)"/>
     <use xlink:href="#Helvetica-35" transform="translate(540.263672 0.09375)"/>
    </g>
    <!-- Anomalous Dispersion range: 16.93 nm -->
    <g transform="translate(449.480772 353.58) scale(0.1 -0.1)">
     <defs>
      <path id="Helvetica-41" d="M 2844 1881 
L 2147 3909 
L 1406 1881 
L 2844 1881 
z
M 1822 4591 
L 2525 4591 
L 4191 0 
L 3509 0 
L 3044 1375 
L 1228 1375 
L 731 0 
L 94 0 
L 1822 4591 
z
" transform="scale(0.015625)"/>
      <path id="Helvetica-6f" d="M 1741 363 
Q 2300 363 2508 786 
Q 2716 1209 2716 1728 
Q 2716 2197 2566 2491 
Q 2328 2953 1747 2953 
Q 1231 2953 997 2559 
Q 763 2166 763 1609 
Q 763 1075 997 719 
Q 1231 363 1741 363 
z
M 1763 3444 
Q 2409 3444 2856 3012 
Q 3303 2581 3303 1744 
Q 3303 934 2909 406 
Q 2516 -122 1688 -122 
Q 997 -122 590 345 
Q 184 813 184 1600 
Q 184 2444 612 2944 
Q 1041 3444 1763 3444 
z
M 1744 3428 
L 1744 3428 
z
" transform="scale(0.015625)"/>
      <path id="Helvetica-75" d="M 975 3347 
L 975 1125 
Q 975 869 1056 706 
Q 1206 406 1616 406 
Q 2203 406 2416 931 
Q 2531 1213 2531 1703 
L 2531 3347 
L 3094 3347 
L 3094 0 
L 2563 0 
L 2569 494 
Q 2459 303 2297 172 
Q 1975 -91 1516 -91 
Q 800 -91 541 388 
Q 400 644 400 1072 
L 400 3347 
L 975 3347 
z
M 1747 3428 
L 1747 3428 
z
" transform="scale(0.015625)"/>
      <path id="Helvetica-44" d="M 2250 531 
Q 2566 531 2769 597 
Q 3131 719 3363 1066 
Q 3547 1344 3628 1778 
Q 3675 2038 3675 2259 
Q 3675 3113 3336 3584 
Q 2997 4056 2244 4056 
L 1141 4056 
L 1141 531 
L 2250 531 
z
M 516 4591 
L 2375 4591 
Q 3322 4591 3844 3919 
Q 4309 3313 4309 2366 
Q 4309 1634 4034 1044 
Q 3550 0 2369 0 
L 516 0 
L 516 4591 
z
" transform="scale(0.015625)"/>
     </defs>
     <use xlink:href="#Helvetica-41"/>
     <use xlink:href="#Helvetica-6e" transform="translate(66.699219 0)"/>
     <use xlink:href="#Helvetica-6f" transform="translate(122.314453 0)"/>
     <use xlink:href="#Helvetica-6d" transform="translate(177.929688 0)"/>
     <use xlink:href="#Helvetica-61" transform="translate(261.230469 0)"/>
     <use xlink:href="#Helvetica-6c" transform="translate(316.845703 0)"/>
     <use xlink:href="#Helvetica-6f" transform="translate(339.0625 0)"/>
     <use xlink:href="#Helvetica-75" transform="translate(394.677734 0)"/>
     <use xlink:href="#Helvetica-73" transform="translate(450.292969 0)"/>
     <use xlink:href="#Helvetica-20" transform="translate(500.292969 0)"/>
     <use xlink:href="#Helvetica-44" transform="translate(528.076172 0)"/>
     <use xlink:href="#Helvetica-69" transform="translate(600.292969 0)"/>
     <use xlink:href="#Helvetica-73" transform="translate(622.509766 0)"/>
     <use xlink:href="#Helvetica-70" transform="translate(672.509766 0)"/>
     <use xlink:href="#Helvetica-65" transform="translate(728.125 0)"/>
     <use xlink:href="#Helvetica-72" transform="translate(783.740234 0)"/>
     <use xlink:href="#Helvetica-73" transform="translate(817.041016 0)"/>
     <use xlink:href="#Helvetica-69" transform="translate(867.041016 0)"/>
     <use xlink:href="#Helvetica-6f" transform="translate(889.257812 0)"/>
     <use xlink:href="#Helvetica-6e" transform="translate(944.873047 0)"/>
     <use xlink:href="#Helvetica-20" transform="translate(1000.488281 0)"/>
     <use xlink:href="#Helvetica-72" transform="translate(1028.271484 0)"/>
     <use xlink:href="#Helvetica-61" transform="translate(1061.572266 0)"/>
     <use xlink:href="#Helvetica-6e" transform="translate(1117.1875 0)"/>
     <use xlink:href="#Helvetica-67" transform="translate(1172.802734 0)"/>
     <use xlink:href="#Helvetica-65" transform="translate(1228.417969 0)"/>
     <use xlink:href="#Helvetica-3a" transform="translate(1284.033203 0)"/>
     <use xlink:href="#Helvetica-20" transform="translate(1311.816406 0)"/>
     <use xlink:href="#Helvetica-31" transform="translate(1339.599609 0)"/>
     <use xlink:href="#Helvetica-36" transform="translate(1395.214844 0)"/>
     <use xlink:href="#Helvetica-2e" transform="translate(1450.830078 0)"/>
     <use xlink:href="#Helvetica-39" transform="translate(1478.613281 0)"/>
     <use xlink:href="#Helvetica-33" transform="translate(1534.228516 0)"/>
     <use xlink:href="#Helvetica-20" transform="translate(1589.84375 0)"/>
     <use xlink:href="#Helvetica-6e" transform="translate(1617.626953 0)"/>
     <use xlink:href="#Helvetica-6d" transform="translate(1673.242188 0)"/>
    </g>
   </g>
   <g id="text_29">
    <!-- Dispersion with optimized design of 2D parallel coupled rings -->
    <g transform="translate(225.204393 19.44) scale(0.12 -0.12)">
     <defs>
      <path id="Helvetica-66" d="M 553 3856 
Q 566 4206 675 4369 
Q 872 4656 1434 4656 
Q 1488 4656 1544 4653 
Q 1600 4650 1672 4644 
L 1672 4131 
Q 1584 4138 1545 4139 
Q 1506 4141 1472 4141 
Q 1216 4141 1166 4008 
Q 1116 3875 1116 3331 
L 1672 3331 
L 1672 2888 
L 1109 2888 
L 1109 0 
L 553 0 
L 553 2888 
L 88 2888 
L 88 3331 
L 553 3331 
L 553 3856 
z
" transform="scale(0.015625)"/>
      <path id="Helvetica-63" d="M 1703 3444 
Q 2269 3444 2623 3169 
Q 2978 2894 3050 2222 
L 2503 2222 
Q 2453 2531 2275 2736 
Q 2097 2941 1703 2941 
Q 1166 2941 934 2416 
Q 784 2075 784 1575 
Q 784 1072 996 728 
Q 1209 384 1666 384 
Q 2016 384 2220 598 
Q 2425 813 2503 1184 
L 3050 1184 
Q 2956 519 2581 211 
Q 2206 -97 1622 -97 
Q 966 -97 575 383 
Q 184 863 184 1581 
Q 184 2463 612 2953 
Q 1041 3444 1703 3444 
z
M 1616 3428 
L 1616 3428 
z
" transform="scale(0.015625)"/>
     </defs>
     <use xlink:href="#Helvetica-44"/>
     <use xlink:href="#Helvetica-69" transform="translate(72.216797 0)"/>
     <use xlink:href="#Helvetica-73" transform="translate(94.433594 0)"/>
     <use xlink:href="#Helvetica-70" transform="translate(144.433594 0)"/>
     <use xlink:href="#Helvetica-65" transform="translate(200.048828 0)"/>
     <use xlink:href="#Helvetica-72" transform="translate(255.664062 0)"/>
     <use xlink:href="#Helvetica-73" transform="translate(288.964844 0)"/>
     <use xlink:href="#Helvetica-69" transform="translate(338.964844 0)"/>
     <use xlink:href="#Helvetica-6f" transform="translate(361.181641 0)"/>
     <use xlink:href="#Helvetica-6e" transform="translate(416.796875 0)"/>
     <use xlink:href="#Helvetica-20" transform="translate(472.412109 0)"/>
     <use xlink:href="#Helvetica-77" transform="translate(500.195312 0)"/>
     <use xlink:href="#Helvetica-69" transform="translate(572.412109 0)"/>
     <use xlink:href="#Helvetica-74" transform="translate(594.628906 0)"/>
     <use xlink:href="#Helvetica-68" transform="translate(622.412109 0)"/>
     <use xlink:href="#Helvetica-20" transform="translate(678.027344 0)"/>
     <use xlink:href="#Helvetica-6f" transform="translate(705.810547 0)"/>
     <use xlink:href="#Helvetica-70" transform="translate(761.425781 0)"/>
     <use xlink:href="#Helvetica-74" transform="translate(817.041016 0)"/>
     <use xlink:href="#Helvetica-69" transform="translate(844.824219 0)"/>
     <use xlink:href="#Helvetica-6d" transform="translate(867.041016 0)"/>
     <use xlink:href="#Helvetica-69" transform="translate(950.341797 0)"/>
     <use xlink:href="#Helvetica-7a" transform="translate(972.558594 0)"/>
     <use xlink:href="#Helvetica-65" transform="translate(1022.558594 0)"/>
     <use xlink:href="#Helvetica-64" transform="translate(1078.173828 0)"/>
     <use xlink:href="#Helvetica-20" transform="translate(1133.789062 0)"/>
     <use xlink:href="#Helvetica-64" transform="translate(1161.572266 0)"/>
     <use xlink:href="#Helvetica-65" transform="translate(1217.1875 0)"/>
     <use xlink:href="#Helvetica-73" transform="translate(1272.802734 0)"/>
     <use xlink:href="#Helvetica-69" transform="translate(1322.802734 0)"/>
     <use xlink:href="#Helvetica-67" transform="translate(1345.019531 0)"/>
     <use xlink:href="#Helvetica-6e" transform="translate(1400.634766 0)"/>
     <use xlink:href="#Helvetica-20" transform="translate(1456.25 0)"/>
     <use xlink:href="#Helvetica-6f" transform="translate(1484.033203 0)"/>
     <use xlink:href="#Helvetica-66" transform="translate(1539.648438 0)"/>
     <use xlink:href="#Helvetica-20" transform="translate(1567.431641 0)"/>
     <use xlink:href="#Helvetica-32" transform="translate(1595.214844 0)"/>
     <use xlink:href="#Helvetica-44" transform="translate(1650.830078 0)"/>
     <use xlink:href="#Helvetica-20" transform="translate(1723.046875 0)"/>
     <use xlink:href="#Helvetica-70" transform="translate(1750.830078 0)"/>
     <use xlink:href="#Helvetica-61" transform="translate(1806.445312 0)"/>
     <use xlink:href="#Helvetica-72" transform="translate(1862.060547 0)"/>
     <use xlink:href="#Helvetica-61" transform="translate(1895.361328 0)"/>
     <use xlink:href="#Helvetica-6c" transform="translate(1950.976562 0)"/>
     <use xlink:href="#Helvetica-6c" transform="translate(1973.193359 0)"/>
     <use xlink:href="#Helvetica-65" transform="translate(1995.410156 0)"/>
     <use xlink:href="#Helvetica-6c" transform="translate(2051.025391 0)"/>
     <use xlink:href="#Helvetica-20" transform="translate(2073.242188 0)"/>
     <use xlink:href="#Helvetica-63" transform="translate(2101.025391 0)"/>
     <use xlink:href="#Helvetica-6f" transform="translate(2151.025391 0)"/>
     <use xlink:href="#Helvetica-75" transform="translate(2206.640625 0)"/>
     <use xlink:href="#Helvetica-70" transform="translate(2262.255859 0)"/>
     <use xlink:href="#Helvetica-6c" transform="translate(2317.871094 0)"/>
     <use xlink:href="#Helvetica-65" transform="translate(2340.087891 0)"/>
     <use xlink:href="#Helvetica-64" transform="translate(2395.703125 0)"/>
     <use xlink:href="#Helvetica-20" transform="translate(2451.318359 0)"/>
     <use xlink:href="#Helvetica-72" transform="translate(2479.101562 0)"/>
     <use xlink:href="#Helvetica-69" transform="translate(2512.402344 0)"/>
     <use xlink:href="#Helvetica-6e" transform="translate(2534.619141 0)"/>
     <use xlink:href="#Helvetica-67" transform="translate(2590.234375 0)"/>
     <use xlink:href="#Helvetica-73" transform="translate(2645.849609 0)"/>
    </g>
   </g>
   <g id="legend_1">
    <g id="patch_9">
     <path d="M 468.576783 93.54375 
L 635.086158 93.54375 
Q 637.086158 93.54375 637.086158 91.54375 
L 637.086158 63.9 
Q 637.086158 61.9 635.086158 61.9 
L 468.576783 61.9 
Q 466.576783 61.9 466.576783 63.9 
L 466.576783 91.54375 
Q 466.576783 93.54375 468.576783 93.54375 
z
" style="fill: #ffffff; opacity: 0.8; stroke: #cccccc; stroke-linejoin: miter"/>
    </g>
    <g id="line2d_53">
     <path d="M 470.576783 69.573438 
L 480.576783 69.573438 
L 490.576783 69.573438 
" style="fill: none; stroke: #ff8c00; stroke-width: 1.5; stroke-linecap: square"/>
    </g>
    <g id="text_30">
     <!-- $D_2$ -->
     <g transform="translate(498.576783 73.073438) scale(0.1 -0.1)">
      <use xlink:href="#DejaVuSans-Oblique-44" transform="translate(0 0.09375)"/>
      <use xlink:href="#DejaVuSans-32" transform="translate(77.001953 -16.3125) scale(0.7)"/>
     </g>
    </g>
    <g id="patch_10">
     <path d="M 470.576783 87.33125 
L 490.576783 87.33125 
L 490.576783 80.33125 
L 470.576783 80.33125 
z
" style="fill: #008000; opacity: 0.1; stroke: #008000; stroke-linejoin: miter"/>
    </g>
    <g id="text_31">
     <!-- Anamolous Dispersion Region -->
     <g transform="translate(498.576783 87.33125) scale(0.1 -0.1)">
      <defs>
       <path id="Helvetica-52" d="M 2622 2488 
Q 3059 2488 3314 2663 
Q 3569 2838 3569 3294 
Q 3569 3784 3213 3963 
Q 3022 4056 2703 4056 
L 1184 4056 
L 1184 2488 
L 2622 2488 
z
M 563 4591 
L 2688 4591 
Q 3213 4591 3553 4438 
Q 4200 4144 4200 3353 
Q 4200 2941 4029 2678 
Q 3859 2416 3553 2256 
Q 3822 2147 3958 1969 
Q 4094 1791 4109 1391 
L 4131 775 
Q 4141 513 4175 384 
Q 4231 166 4375 103 
L 4375 0 
L 3613 0 
Q 3581 59 3562 153 
Q 3544 247 3531 516 
L 3494 1281 
Q 3472 1731 3159 1884 
Q 2981 1969 2600 1969 
L 1184 1969 
L 1184 0 
L 563 0 
L 563 4591 
z
" transform="scale(0.015625)"/>
      </defs>
      <use xlink:href="#Helvetica-41"/>
      <use xlink:href="#Helvetica-6e" transform="translate(66.699219 0)"/>
      <use xlink:href="#Helvetica-61" transform="translate(122.314453 0)"/>
      <use xlink:href="#Helvetica-6d" transform="translate(177.929688 0)"/>
      <use xlink:href="#Helvetica-6f" transform="translate(261.230469 0)"/>
      <use xlink:href="#Helvetica-6c" transform="translate(316.845703 0)"/>
      <use xlink:href="#Helvetica-6f" transform="translate(339.0625 0)"/>
      <use xlink:href="#Helvetica-75" transform="translate(394.677734 0)"/>
      <use xlink:href="#Helvetica-73" transform="translate(450.292969 0)"/>
      <use xlink:href="#Helvetica-20" transform="translate(500.292969 0)"/>
      <use xlink:href="#Helvetica-44" transform="translate(528.076172 0)"/>
      <use xlink:href="#Helvetica-69" transform="translate(600.292969 0)"/>
      <use xlink:href="#Helvetica-73" transform="translate(622.509766 0)"/>
      <use xlink:href="#Helvetica-70" transform="translate(672.509766 0)"/>
      <use xlink:href="#Helvetica-65" transform="translate(728.125 0)"/>
      <use xlink:href="#Helvetica-72" transform="translate(783.740234 0)"/>
      <use xlink:href="#Helvetica-73" transform="translate(817.041016 0)"/>
      <use xlink:href="#Helvetica-69" transform="translate(867.041016 0)"/>
      <use xlink:href="#Helvetica-6f" transform="translate(889.257812 0)"/>
      <use xlink:href="#Helvetica-6e" transform="translate(944.873047 0)"/>
      <use xlink:href="#Helvetica-20" transform="translate(1000.488281 0)"/>
      <use xlink:href="#Helvetica-52" transform="translate(1028.271484 0)"/>
      <use xlink:href="#Helvetica-65" transform="translate(1100.488281 0)"/>
      <use xlink:href="#Helvetica-67" transform="translate(1156.103516 0)"/>
      <use xlink:href="#Helvetica-69" transform="translate(1211.71875 0)"/>
      <use xlink:href="#Helvetica-6f" transform="translate(1233.935547 0)"/>
      <use xlink:href="#Helvetica-6e" transform="translate(1289.550781 0)"/>
     </g>
    </g>
   </g>
  </g>
 </g>
 <defs>
  <clipPath id="pc337b40499">
   <rect x="74.27" y="25.44" width="625.351287" height="364.6"/>
  </clipPath>
 </defs>
</svg>
