<?xml version="1.0" encoding="utf-8" standalone="no"?>
<!DOCTYPE svg PUBLIC "-//W3C//DTD SVG 1.1//EN"
  "http://www.w3.org/Graphics/SVG/1.1/DTD/svg11.dtd">
<svg xmlns:xlink="http://www.w3.org/1999/xlink" width="720pt" height="432pt" viewBox="0 0 720 432" xmlns="http://www.w3.org/2000/svg" version="1.1">
 <metadata>
  <rdf:RDF xmlns:dc="http://purl.org/dc/elements/1.1/" xmlns:cc="http://creativecommons.org/ns#" xmlns:rdf="http://www.w3.org/1999/02/22-rdf-syntax-ns#">
   <cc:Work>
    <dc:type rdf:resource="http://purl.org/dc/dcmitype/StillImage"/>
    <dc:date>2025-05-05T13:02:07.552882</dc:date>
    <dc:format>image/svg+xml</dc:format>
    <dc:creator>
     <cc:Agent>
      <dc:title>Matplotlib v3.10.0, https://matplotlib.org/</dc:title>
     </cc:Agent>
    </dc:creator>
   </cc:Work>
  </rdf:RDF>
 </metadata>
 <defs>
  <style type="text/css">*{stroke-linejoin: round; stroke-linecap: butt}</style>
 </defs>
 <g id="figure_1">
  <g id="patch_1">
   <path d="M 0 432 
L 720 432 
L 720 0 
L 0 0 
z
" style="fill: #ffffff"/>
  </g>
  <g id="axes_1">
   <g id="patch_2">
    <path d="M 63.11 387.592 
L 440.313539 387.592 
L 440.313539 25.44 
L 63.11 25.44 
z
" style="fill: #ffffff"/>
   </g>
   <g id="matplotlib.axis_1">
    <g id="xtick_1">
     <g id="line2d_1">
      <path d="M 63.11 387.592 
L 63.11 25.44 
" clip-path="url(#p570ec21d3b)" style="fill: none; stroke: #b0b0b0; stroke-opacity: 0.3; stroke-width: 0.8; stroke-linecap: square"/>
     </g>
     <g id="line2d_2">
      <defs>
       <path id="m3793485d72" d="M 0 0 
L 0 3.5 
" style="stroke: #000000; stroke-width: 0.8"/>
      </defs>
      <g>
       <use xlink:href="#m3793485d72" x="63.11" y="387.592" style="stroke: #000000; stroke-width: 0.8"/>
      </g>
     </g>
     <g id="text_1">
      <!-- $M_0$-3M -->
      <g transform="translate(47.81 401.765438) scale(0.1 -0.1)">
       <defs>
        <path id="DejaVuSans-Oblique-4d" d="M 1081 4666 
L 2028 4666 
L 2572 1522 
L 4378 4666 
L 5350 4666 
L 4441 0 
L 3828 0 
L 4622 4091 
L 2791 897 
L 2175 897 
L 1581 4103 
L 788 0 
L 172 0 
L 1081 4666 
z
" transform="scale(0.015625)"/>
        <path id="DejaVuSans-30" d="M 2034 4250 
Q 1547 4250 1301 3770 
Q 1056 3291 1056 2328 
Q 1056 1369 1301 889 
Q 1547 409 2034 409 
Q 2525 409 2770 889 
Q 3016 1369 3016 2328 
Q 3016 3291 2770 3770 
Q 2525 4250 2034 4250 
z
M 2034 4750 
Q 2819 4750 3233 4129 
Q 3647 3509 3647 2328 
Q 3647 1150 3233 529 
Q 2819 -91 2034 -91 
Q 1250 -91 836 529 
Q 422 1150 422 2328 
Q 422 3509 836 4129 
Q 1250 4750 2034 4750 
z
" transform="scale(0.015625)"/>
        <path id="Helvetica-2d" d="M 266 2072 
L 1834 2072 
L 1834 1494 
L 266 1494 
L 266 2072 
z
" transform="scale(0.015625)"/>
        <path id="Helvetica-33" d="M 1663 -122 
Q 869 -122 511 314 
Q 153 750 153 1375 
L 741 1375 
Q 778 941 903 744 
Q 1122 391 1694 391 
Q 2138 391 2406 628 
Q 2675 866 2675 1241 
Q 2675 1703 2392 1887 
Q 2109 2072 1606 2072 
Q 1550 2072 1492 2070 
Q 1434 2069 1375 2066 
L 1375 2563 
Q 1463 2553 1522 2550 
Q 1581 2547 1650 2547 
Q 1966 2547 2169 2647 
Q 2525 2822 2525 3272 
Q 2525 3606 2287 3787 
Q 2050 3969 1734 3969 
Q 1172 3969 956 3594 
Q 838 3388 822 3006 
L 266 3006 
Q 266 3506 466 3856 
Q 809 4481 1675 4481 
Q 2359 4481 2734 4176 
Q 3109 3872 3109 3294 
Q 3109 2881 2888 2625 
Q 2750 2466 2531 2375 
Q 2884 2278 3082 2001 
Q 3281 1725 3281 1325 
Q 3281 684 2859 281 
Q 2438 -122 1663 -122 
z
" transform="scale(0.015625)"/>
        <path id="Helvetica-4d" d="M 472 4591 
L 1363 4591 
L 2681 709 
L 3991 4591 
L 4872 4591 
L 4872 0 
L 4281 0 
L 4281 2709 
Q 4281 2850 4287 3175 
Q 4294 3500 4294 3872 
L 2984 0 
L 2369 0 
L 1050 3872 
L 1050 3731 
Q 1050 3563 1058 3217 
Q 1066 2872 1066 2709 
L 1066 0 
L 472 0 
L 472 4591 
z
" transform="scale(0.015625)"/>
       </defs>
       <use xlink:href="#DejaVuSans-Oblique-4d" transform="translate(0 0.09375)"/>
       <use xlink:href="#DejaVuSans-30" transform="translate(86.279297 -16.3125) scale(0.7)"/>
       <use xlink:href="#Helvetica-2d" transform="translate(133.549805 0.09375)"/>
       <use xlink:href="#Helvetica-33" transform="translate(166.850586 0.09375)"/>
       <use xlink:href="#Helvetica-4d" transform="translate(222.46582 0.09375)"/>
      </g>
     </g>
    </g>
    <g id="xtick_2">
     <g id="line2d_3">
      <path d="M 125.977257 387.592 
L 125.977257 25.44 
" clip-path="url(#p570ec21d3b)" style="fill: none; stroke: #b0b0b0; stroke-opacity: 0.3; stroke-width: 0.8; stroke-linecap: square"/>
     </g>
     <g id="line2d_4">
      <g>
       <use xlink:href="#m3793485d72" x="125.977257" y="387.592" style="stroke: #000000; stroke-width: 0.8"/>
      </g>
     </g>
     <g id="text_2">
      <!-- $M_0$-2M -->
      <g transform="translate(110.677257 401.765438) scale(0.1 -0.1)">
       <defs>
        <path id="Helvetica-32" d="M 200 0 
Q 231 578 439 1006 
Q 647 1434 1250 1784 
L 1850 2131 
Q 2253 2366 2416 2531 
Q 2672 2791 2672 3125 
Q 2672 3516 2437 3745 
Q 2203 3975 1813 3975 
Q 1234 3975 1013 3538 
Q 894 3303 881 2888 
L 309 2888 
Q 319 3472 525 3841 
Q 891 4491 1816 4491 
Q 2584 4491 2939 4075 
Q 3294 3659 3294 3150 
Q 3294 2613 2916 2231 
Q 2697 2009 2131 1694 
L 1703 1456 
Q 1397 1288 1222 1134 
Q 909 863 828 531 
L 3272 531 
L 3272 0 
L 200 0 
z
" transform="scale(0.015625)"/>
       </defs>
       <use xlink:href="#DejaVuSans-Oblique-4d" transform="translate(0 0.09375)"/>
       <use xlink:href="#DejaVuSans-30" transform="translate(86.279297 -16.3125) scale(0.7)"/>
       <use xlink:href="#Helvetica-2d" transform="translate(133.549805 0.09375)"/>
       <use xlink:href="#Helvetica-32" transform="translate(166.850586 0.09375)"/>
       <use xlink:href="#Helvetica-4d" transform="translate(222.46582 0.09375)"/>
      </g>
     </g>
    </g>
    <g id="xtick_3">
     <g id="line2d_5">
      <path d="M 188.844513 387.592 
L 188.844513 25.44 
" clip-path="url(#p570ec21d3b)" style="fill: none; stroke: #b0b0b0; stroke-opacity: 0.3; stroke-width: 0.8; stroke-linecap: square"/>
     </g>
     <g id="line2d_6">
      <g>
       <use xlink:href="#m3793485d72" x="188.844513" y="387.592" style="stroke: #000000; stroke-width: 0.8"/>
      </g>
     </g>
     <g id="text_3">
      <!-- $M_0$-1M -->
      <g transform="translate(173.544513 401.765438) scale(0.1 -0.1)">
       <defs>
        <path id="Helvetica-31" d="M 613 3169 
L 613 3600 
Q 1222 3659 1462 3798 
Q 1703 3938 1822 4456 
L 2266 4456 
L 2266 0 
L 1666 0 
L 1666 3169 
L 613 3169 
z
" transform="scale(0.015625)"/>
       </defs>
       <use xlink:href="#DejaVuSans-Oblique-4d" transform="translate(0 0.09375)"/>
       <use xlink:href="#DejaVuSans-30" transform="translate(86.279297 -16.3125) scale(0.7)"/>
       <use xlink:href="#Helvetica-2d" transform="translate(133.549805 0.09375)"/>
       <use xlink:href="#Helvetica-31" transform="translate(166.850586 0.09375)"/>
       <use xlink:href="#Helvetica-4d" transform="translate(222.46582 0.09375)"/>
      </g>
     </g>
    </g>
    <g id="xtick_4">
     <g id="line2d_7">
      <path d="M 251.71177 387.592 
L 251.71177 25.44 
" clip-path="url(#p570ec21d3b)" style="fill: none; stroke: #b0b0b0; stroke-opacity: 0.3; stroke-width: 0.8; stroke-linecap: square"/>
     </g>
     <g id="line2d_8">
      <g>
       <use xlink:href="#m3793485d72" x="251.71177" y="387.592" style="stroke: #000000; stroke-width: 0.8"/>
      </g>
     </g>
     <g id="text_4">
      <!-- $M_0$ -->
      <g transform="translate(245.01177 401.765438) scale(0.1 -0.1)">
       <use xlink:href="#DejaVuSans-Oblique-4d" transform="translate(0 0.09375)"/>
       <use xlink:href="#DejaVuSans-30" transform="translate(86.279297 -16.3125) scale(0.7)"/>
      </g>
     </g>
    </g>
    <g id="xtick_5">
     <g id="line2d_9">
      <path d="M 314.579026 387.592 
L 314.579026 25.44 
" clip-path="url(#p570ec21d3b)" style="fill: none; stroke: #b0b0b0; stroke-opacity: 0.3; stroke-width: 0.8; stroke-linecap: square"/>
     </g>
     <g id="line2d_10">
      <g>
       <use xlink:href="#m3793485d72" x="314.579026" y="387.592" style="stroke: #000000; stroke-width: 0.8"/>
      </g>
     </g>
     <g id="text_5">
      <!-- $M_0$+1M -->
      <g transform="translate(298.029026 401.765438) scale(0.1 -0.1)">
       <defs>
        <path id="Helvetica-2b" d="M 288 1369 
L 288 1894 
L 1650 1894 
L 1650 3266 
L 2184 3266 
L 2184 1894 
L 3547 1894 
L 3547 1369 
L 2184 1369 
L 2184 0 
L 1650 0 
L 1650 1369 
L 288 1369 
z
" transform="scale(0.015625)"/>
       </defs>
       <use xlink:href="#DejaVuSans-Oblique-4d" transform="translate(0 0.09375)"/>
       <use xlink:href="#DejaVuSans-30" transform="translate(86.279297 -16.3125) scale(0.7)"/>
       <use xlink:href="#Helvetica-2b" transform="translate(133.549805 0.09375)"/>
       <use xlink:href="#Helvetica-31" transform="translate(191.948242 0.09375)"/>
       <use xlink:href="#Helvetica-4d" transform="translate(247.563477 0.09375)"/>
      </g>
     </g>
    </g>
    <g id="xtick_6">
     <g id="line2d_11">
      <path d="M 377.446283 387.592 
L 377.446283 25.44 
" clip-path="url(#p570ec21d3b)" style="fill: none; stroke: #b0b0b0; stroke-opacity: 0.3; stroke-width: 0.8; stroke-linecap: square"/>
     </g>
     <g id="line2d_12">
      <g>
       <use xlink:href="#m3793485d72" x="377.446283" y="387.592" style="stroke: #000000; stroke-width: 0.8"/>
      </g>
     </g>
     <g id="text_6">
      <!-- $M_0$+2M -->
      <g transform="translate(360.896283 401.765438) scale(0.1 -0.1)">
       <use xlink:href="#DejaVuSans-Oblique-4d" transform="translate(0 0.09375)"/>
       <use xlink:href="#DejaVuSans-30" transform="translate(86.279297 -16.3125) scale(0.7)"/>
       <use xlink:href="#Helvetica-2b" transform="translate(133.549805 0.09375)"/>
       <use xlink:href="#Helvetica-32" transform="translate(191.948242 0.09375)"/>
       <use xlink:href="#Helvetica-4d" transform="translate(247.563477 0.09375)"/>
      </g>
     </g>
    </g>
    <g id="xtick_7">
     <g id="line2d_13">
      <path d="M 440.313539 387.592 
L 440.313539 25.44 
" clip-path="url(#p570ec21d3b)" style="fill: none; stroke: #b0b0b0; stroke-opacity: 0.3; stroke-width: 0.8; stroke-linecap: square"/>
     </g>
     <g id="line2d_14">
      <g>
       <use xlink:href="#m3793485d72" x="440.313539" y="387.592" style="stroke: #000000; stroke-width: 0.8"/>
      </g>
     </g>
     <g id="text_7">
      <!-- $M_0$+3M -->
      <g transform="translate(423.763539 401.765438) scale(0.1 -0.1)">
       <use xlink:href="#DejaVuSans-Oblique-4d" transform="translate(0 0.09375)"/>
       <use xlink:href="#DejaVuSans-30" transform="translate(86.279297 -16.3125) scale(0.7)"/>
       <use xlink:href="#Helvetica-2b" transform="translate(133.549805 0.09375)"/>
       <use xlink:href="#Helvetica-33" transform="translate(191.948242 0.09375)"/>
       <use xlink:href="#Helvetica-4d" transform="translate(247.563477 0.09375)"/>
      </g>
     </g>
    </g>
    <g id="text_8">
     <!-- mode number m -->
     <g transform="translate(215.310988 415.02325) scale(0.1 -0.1)">
      <defs>
       <path id="Helvetica-6d" d="M 413 3347 
L 969 3347 
L 969 2872 
Q 1169 3119 1331 3231 
Q 1609 3422 1963 3422 
Q 2363 3422 2606 3225 
Q 2744 3113 2856 2894 
Q 3044 3163 3297 3292 
Q 3550 3422 3866 3422 
Q 4541 3422 4784 2934 
Q 4916 2672 4916 2228 
L 4916 0 
L 4331 0 
L 4331 2325 
Q 4331 2659 4164 2784 
Q 3997 2909 3756 2909 
Q 3425 2909 3186 2687 
Q 2947 2466 2947 1947 
L 2947 0 
L 2375 0 
L 2375 2184 
Q 2375 2525 2294 2681 
Q 2166 2916 1816 2916 
Q 1497 2916 1236 2669 
Q 975 2422 975 1775 
L 975 0 
L 413 0 
L 413 3347 
z
" transform="scale(0.015625)"/>
       <path id="Helvetica-6f" d="M 1741 363 
Q 2300 363 2508 786 
Q 2716 1209 2716 1728 
Q 2716 2197 2566 2491 
Q 2328 2953 1747 2953 
Q 1231 2953 997 2559 
Q 763 2166 763 1609 
Q 763 1075 997 719 
Q 1231 363 1741 363 
z
M 1763 3444 
Q 2409 3444 2856 3012 
Q 3303 2581 3303 1744 
Q 3303 934 2909 406 
Q 2516 -122 1688 -122 
Q 997 -122 590 345 
Q 184 813 184 1600 
Q 184 2444 612 2944 
Q 1041 3444 1763 3444 
z
M 1744 3428 
L 1744 3428 
z
" transform="scale(0.015625)"/>
       <path id="Helvetica-64" d="M 769 1634 
Q 769 1097 997 734 
Q 1225 372 1728 372 
Q 2119 372 2370 708 
Q 2622 1044 2622 1672 
Q 2622 2306 2362 2611 
Q 2103 2916 1722 2916 
Q 1297 2916 1033 2591 
Q 769 2266 769 1634 
z
M 1616 3406 
Q 2000 3406 2259 3244 
Q 2409 3150 2600 2916 
L 2600 4606 
L 3141 4606 
L 3141 0 
L 2634 0 
L 2634 466 
Q 2438 156 2169 18 
Q 1900 -119 1553 -119 
Q 994 -119 584 351 
Q 175 822 175 1603 
Q 175 2334 548 2870 
Q 922 3406 1616 3406 
z
" transform="scale(0.015625)"/>
       <path id="Helvetica-65" d="M 1806 3422 
Q 2163 3422 2497 3255 
Q 2831 3088 3006 2822 
Q 3175 2569 3231 2231 
Q 3281 2000 3281 1494 
L 828 1494 
Q 844 984 1069 676 
Q 1294 369 1766 369 
Q 2206 369 2469 659 
Q 2619 828 2681 1050 
L 3234 1050 
Q 3213 866 3089 639 
Q 2966 413 2813 269 
Q 2556 19 2178 -69 
Q 1975 -119 1719 -119 
Q 1094 -119 659 336 
Q 225 791 225 1609 
Q 225 2416 662 2919 
Q 1100 3422 1806 3422 
z
M 2703 1941 
Q 2669 2306 2544 2525 
Q 2313 2931 1772 2931 
Q 1384 2931 1121 2651 
Q 859 2372 844 1941 
L 2703 1941 
z
M 1753 3428 
L 1753 3428 
z
" transform="scale(0.015625)"/>
       <path id="Helvetica-20" transform="scale(0.015625)"/>
       <path id="Helvetica-6e" d="M 413 3347 
L 947 3347 
L 947 2872 
Q 1184 3166 1450 3294 
Q 1716 3422 2041 3422 
Q 2753 3422 3003 2925 
Q 3141 2653 3141 2147 
L 3141 0 
L 2569 0 
L 2569 2109 
Q 2569 2416 2478 2603 
Q 2328 2916 1934 2916 
Q 1734 2916 1606 2875 
Q 1375 2806 1200 2600 
Q 1059 2434 1017 2257 
Q 975 2081 975 1753 
L 975 0 
L 413 0 
L 413 3347 
z
M 1734 3428 
L 1734 3428 
z
" transform="scale(0.015625)"/>
       <path id="Helvetica-75" d="M 975 3347 
L 975 1125 
Q 975 869 1056 706 
Q 1206 406 1616 406 
Q 2203 406 2416 931 
Q 2531 1213 2531 1703 
L 2531 3347 
L 3094 3347 
L 3094 0 
L 2563 0 
L 2569 494 
Q 2459 303 2297 172 
Q 1975 -91 1516 -91 
Q 800 -91 541 388 
Q 400 644 400 1072 
L 400 3347 
L 975 3347 
z
M 1747 3428 
L 1747 3428 
z
" transform="scale(0.015625)"/>
       <path id="Helvetica-62" d="M 369 4606 
L 916 4606 
L 916 2941 
Q 1100 3181 1356 3307 
Q 1613 3434 1913 3434 
Q 2538 3434 2927 3004 
Q 3316 2575 3316 1738 
Q 3316 944 2931 419 
Q 2547 -106 1866 -106 
Q 1484 -106 1222 78 
Q 1066 188 888 428 
L 888 0 
L 369 0 
L 369 4606 
z
M 1831 391 
Q 2288 391 2514 753 
Q 2741 1116 2741 1709 
Q 2741 2238 2514 2584 
Q 2288 2931 1847 2931 
Q 1463 2931 1173 2647 
Q 884 2363 884 1709 
Q 884 1238 1003 944 
Q 1225 391 1831 391 
z
" transform="scale(0.015625)"/>
       <path id="Helvetica-72" d="M 428 3347 
L 963 3347 
L 963 2769 
Q 1028 2938 1284 3180 
Q 1541 3422 1875 3422 
Q 1891 3422 1928 3419 
Q 1966 3416 2056 3406 
L 2056 2813 
Q 2006 2822 1964 2825 
Q 1922 2828 1872 2828 
Q 1447 2828 1219 2554 
Q 991 2281 991 1925 
L 991 0 
L 428 0 
L 428 3347 
z
" transform="scale(0.015625)"/>
      </defs>
      <use xlink:href="#Helvetica-6d"/>
      <use xlink:href="#Helvetica-6f" transform="translate(83.300781 0)"/>
      <use xlink:href="#Helvetica-64" transform="translate(138.916016 0)"/>
      <use xlink:href="#Helvetica-65" transform="translate(194.53125 0)"/>
      <use xlink:href="#Helvetica-20" transform="translate(250.146484 0)"/>
      <use xlink:href="#Helvetica-6e" transform="translate(277.929688 0)"/>
      <use xlink:href="#Helvetica-75" transform="translate(333.544922 0)"/>
      <use xlink:href="#Helvetica-6d" transform="translate(389.160156 0)"/>
      <use xlink:href="#Helvetica-62" transform="translate(472.460938 0)"/>
      <use xlink:href="#Helvetica-65" transform="translate(528.076172 0)"/>
      <use xlink:href="#Helvetica-72" transform="translate(583.691406 0)"/>
      <use xlink:href="#Helvetica-20" transform="translate(616.992188 0)"/>
      <use xlink:href="#Helvetica-6d" transform="translate(644.775391 0)"/>
     </g>
    </g>
   </g>
   <g id="matplotlib.axis_2">
    <g id="ytick_1">
     <g id="line2d_15">
      <path d="M 63.11 387.592 
L 440.313539 387.592 
" clip-path="url(#p570ec21d3b)" style="fill: none; stroke: #b0b0b0; stroke-opacity: 0.3; stroke-width: 0.8; stroke-linecap: square"/>
     </g>
     <g id="line2d_16">
      <defs>
       <path id="md47ba63a73" d="M 0 0 
L -3.5 0 
" style="stroke: #000000; stroke-width: 0.8"/>
      </defs>
      <g>
       <use xlink:href="#md47ba63a73" x="63.11" y="387.592" style="stroke: #000000; stroke-width: 0.8"/>
      </g>
     </g>
     <g id="text_9">
      <!-- -20.00 -->
      <g transform="translate(27.758438 391.178719) scale(0.1 -0.1)">
       <defs>
        <path id="Helvetica-30" d="M 1731 4475 
Q 2600 4475 2988 3759 
Q 3288 3206 3288 2244 
Q 3288 1331 3016 734 
Q 2622 -122 1728 -122 
Q 922 -122 528 578 
Q 200 1163 200 2147 
Q 200 2909 397 3456 
Q 766 4475 1731 4475 
z
M 1725 391 
Q 2163 391 2422 778 
Q 2681 1166 2681 2222 
Q 2681 2984 2493 3476 
Q 2306 3969 1766 3969 
Q 1269 3969 1039 3501 
Q 809 3034 809 2125 
Q 809 1441 956 1025 
Q 1181 391 1725 391 
z
" transform="scale(0.015625)"/>
        <path id="Helvetica-2e" d="M 547 681 
L 1200 681 
L 1200 0 
L 547 0 
L 547 681 
z
" transform="scale(0.015625)"/>
       </defs>
       <use xlink:href="#Helvetica-2d"/>
       <use xlink:href="#Helvetica-32" transform="translate(33.300781 0)"/>
       <use xlink:href="#Helvetica-30" transform="translate(88.916016 0)"/>
       <use xlink:href="#Helvetica-2e" transform="translate(144.53125 0)"/>
       <use xlink:href="#Helvetica-30" transform="translate(172.314453 0)"/>
       <use xlink:href="#Helvetica-30" transform="translate(227.929688 0)"/>
      </g>
     </g>
    </g>
    <g id="ytick_2">
     <g id="line2d_17">
      <path d="M 63.11 297.054 
L 440.313539 297.054 
" clip-path="url(#p570ec21d3b)" style="fill: none; stroke: #b0b0b0; stroke-opacity: 0.3; stroke-width: 0.8; stroke-linecap: square"/>
     </g>
     <g id="line2d_18">
      <g>
       <use xlink:href="#md47ba63a73" x="63.11" y="297.054" style="stroke: #000000; stroke-width: 0.8"/>
      </g>
     </g>
     <g id="text_10">
      <!-- -10.00 -->
      <g transform="translate(27.758438 300.640719) scale(0.1 -0.1)">
       <use xlink:href="#Helvetica-2d"/>
       <use xlink:href="#Helvetica-31" transform="translate(33.300781 0)"/>
       <use xlink:href="#Helvetica-30" transform="translate(88.916016 0)"/>
       <use xlink:href="#Helvetica-2e" transform="translate(144.53125 0)"/>
       <use xlink:href="#Helvetica-30" transform="translate(172.314453 0)"/>
       <use xlink:href="#Helvetica-30" transform="translate(227.929688 0)"/>
      </g>
     </g>
    </g>
    <g id="ytick_3">
     <g id="line2d_19">
      <path d="M 63.11 206.516 
L 440.313539 206.516 
" clip-path="url(#p570ec21d3b)" style="fill: none; stroke: #b0b0b0; stroke-opacity: 0.3; stroke-width: 0.8; stroke-linecap: square"/>
     </g>
     <g id="line2d_20">
      <g>
       <use xlink:href="#md47ba63a73" x="63.11" y="206.516" style="stroke: #000000; stroke-width: 0.8"/>
      </g>
     </g>
     <g id="text_11">
      <!-- 0.00 -->
      <g transform="translate(36.649063 210.102719) scale(0.1 -0.1)">
       <use xlink:href="#Helvetica-30"/>
       <use xlink:href="#Helvetica-2e" transform="translate(55.615234 0)"/>
       <use xlink:href="#Helvetica-30" transform="translate(83.398438 0)"/>
       <use xlink:href="#Helvetica-30" transform="translate(139.013672 0)"/>
      </g>
     </g>
    </g>
    <g id="ytick_4">
     <g id="line2d_21">
      <path d="M 63.11 115.978 
L 440.313539 115.978 
" clip-path="url(#p570ec21d3b)" style="fill: none; stroke: #b0b0b0; stroke-opacity: 0.3; stroke-width: 0.8; stroke-linecap: square"/>
     </g>
     <g id="line2d_22">
      <g>
       <use xlink:href="#md47ba63a73" x="63.11" y="115.978" style="stroke: #000000; stroke-width: 0.8"/>
      </g>
     </g>
     <g id="text_12">
      <!-- 10.00 -->
      <g transform="translate(31.088125 119.564719) scale(0.1 -0.1)">
       <use xlink:href="#Helvetica-31"/>
       <use xlink:href="#Helvetica-30" transform="translate(55.615234 0)"/>
       <use xlink:href="#Helvetica-2e" transform="translate(111.230469 0)"/>
       <use xlink:href="#Helvetica-30" transform="translate(139.013672 0)"/>
       <use xlink:href="#Helvetica-30" transform="translate(194.628906 0)"/>
      </g>
     </g>
    </g>
    <g id="ytick_5">
     <g id="line2d_23">
      <path d="M 63.11 25.44 
L 440.313539 25.44 
" clip-path="url(#p570ec21d3b)" style="fill: none; stroke: #b0b0b0; stroke-opacity: 0.3; stroke-width: 0.8; stroke-linecap: square"/>
     </g>
     <g id="line2d_24">
      <g>
       <use xlink:href="#md47ba63a73" x="63.11" y="25.44" style="stroke: #000000; stroke-width: 0.8"/>
      </g>
     </g>
     <g id="text_13">
      <!-- 20.00 -->
      <g transform="translate(31.088125 29.026719) scale(0.1 -0.1)">
       <use xlink:href="#Helvetica-32"/>
       <use xlink:href="#Helvetica-30" transform="translate(55.615234 0)"/>
       <use xlink:href="#Helvetica-2e" transform="translate(111.230469 0)"/>
       <use xlink:href="#Helvetica-30" transform="translate(139.013672 0)"/>
       <use xlink:href="#Helvetica-30" transform="translate(194.628906 0)"/>
      </g>
     </g>
    </g>
    <g id="text_14">
     <!-- Frequency $\omega$/(2$\pi$) (GHz) -->
     <g transform="translate(21.558438 260.966) rotate(-90) scale(0.1 -0.1)">
      <defs>
       <path id="Helvetica-46" d="M 547 4591 
L 3731 4591 
L 3731 4028 
L 1169 4028 
L 1169 2634 
L 3422 2634 
L 3422 2088 
L 1169 2088 
L 1169 0 
L 547 0 
L 547 4591 
z
" transform="scale(0.015625)"/>
       <path id="Helvetica-71" d="M 775 1628 
Q 775 1194 897 900 
Q 1113 378 1669 378 
Q 2256 378 2478 928 
Q 2600 1231 2600 1703 
Q 2600 2138 2466 2428 
Q 2238 2925 1663 2925 
Q 1297 2925 1036 2608 
Q 775 2291 775 1628 
z
M 1606 3422 
Q 2022 3422 2306 3213 
Q 2463 3100 2606 2881 
L 2606 3347 
L 3141 3347 
L 3141 -1334 
L 2575 -1334 
L 2575 384 
Q 2434 159 2186 26 
Q 1938 -106 1566 -106 
Q 1031 -106 609 312 
Q 188 731 188 1588 
Q 188 2391 583 2906 
Q 978 3422 1606 3422 
z
" transform="scale(0.015625)"/>
       <path id="Helvetica-63" d="M 1703 3444 
Q 2269 3444 2623 3169 
Q 2978 2894 3050 2222 
L 2503 2222 
Q 2453 2531 2275 2736 
Q 2097 2941 1703 2941 
Q 1166 2941 934 2416 
Q 784 2075 784 1575 
Q 784 1072 996 728 
Q 1209 384 1666 384 
Q 2016 384 2220 598 
Q 2425 813 2503 1184 
L 3050 1184 
Q 2956 519 2581 211 
Q 2206 -97 1622 -97 
Q 966 -97 575 383 
Q 184 863 184 1581 
Q 184 2463 612 2953 
Q 1041 3444 1703 3444 
z
M 1616 3428 
L 1616 3428 
z
" transform="scale(0.015625)"/>
       <path id="Helvetica-79" d="M 2503 3347 
L 3125 3347 
Q 3006 3025 2597 1878 
Q 2291 1016 2084 472 
Q 1597 -809 1397 -1090 
Q 1197 -1372 709 -1372 
Q 591 -1372 527 -1362 
Q 463 -1353 369 -1328 
L 369 -816 
Q 516 -856 581 -865 
Q 647 -875 697 -875 
Q 853 -875 926 -823 
Q 1000 -772 1050 -697 
Q 1066 -672 1162 -440 
Q 1259 -209 1303 -97 
L 66 3347 
L 703 3347 
L 1600 622 
L 2503 3347 
z
M 1597 3428 
L 1597 3428 
z
" transform="scale(0.015625)"/>
       <path id="DejaVuSans-Oblique-3c9" d="M 1369 -91 
Q 72 -91 434 1766 
Q 575 2500 1256 3500 
L 1875 3500 
Q 1231 2500 1088 1750 
Q 819 397 1519 397 
Q 2166 397 2478 2078 
L 3009 2078 
Q 2669 388 3316 397 
Q 4013 403 4275 1750 
Q 4419 2500 4169 3500 
L 4788 3500 
Q 5075 2500 4934 1766 
Q 4578 -94 3278 -91 
Q 2428 -88 2503 844 
Q 2194 -91 1369 -91 
z
" transform="scale(0.015625)"/>
       <path id="Helvetica-2f" d="M 1456 4591 
L 1931 4591 
L 475 0 
L 0 0 
L 1456 4591 
z
" transform="scale(0.015625)"/>
       <path id="Helvetica-28" d="M 1894 4666 
Q 1403 3713 1256 3263 
Q 1034 2578 1034 1681 
Q 1034 775 1288 25 
Q 1444 -438 1903 -1306 
L 1525 -1306 
Q 1069 -594 959 -397 
Q 850 -200 722 138 
Q 547 600 478 1125 
Q 444 1397 444 1644 
Q 444 2569 734 3291 
Q 919 3750 1503 4666 
L 1894 4666 
z
" transform="scale(0.015625)"/>
       <path id="DejaVuSans-Oblique-3c0" d="M 584 3500 
L 3938 3500 
L 3825 2925 
L 3384 2925 
L 2966 775 
Q 2922 550 2981 450 
Q 3038 353 3209 353 
Q 3256 353 3325 363 
Q 3397 369 3419 372 
L 3338 -44 
Q 3222 -84 3103 -103 
Q 2981 -122 2866 -122 
Q 2491 -122 2388 81 
Q 2284 288 2391 838 
L 2797 2925 
L 1506 2925 
L 938 0 
L 350 0 
L 919 2925 
L 472 2925 
L 584 3500 
z
" transform="scale(0.015625)"/>
       <path id="Helvetica-29" d="M 222 -1306 
Q 719 -338 863 106 
Q 1081 778 1081 1681 
Q 1081 2584 828 3334 
Q 672 3797 213 4666 
L 591 4666 
Q 1072 3897 1173 3717 
Q 1275 3538 1394 3222 
Q 1544 2831 1608 2450 
Q 1672 2069 1672 1716 
Q 1672 791 1378 66 
Q 1194 -400 613 -1306 
L 222 -1306 
z
" transform="scale(0.015625)"/>
       <path id="Helvetica-47" d="M 2472 4709 
Q 3119 4709 3591 4459 
Q 4275 4100 4428 3200 
L 3813 3200 
Q 3700 3703 3347 3933 
Q 2994 4163 2456 4163 
Q 1819 4163 1383 3684 
Q 947 3206 947 2259 
Q 947 1441 1306 927 
Q 1666 413 2478 413 
Q 3100 413 3508 773 
Q 3916 1134 3925 1941 
L 2488 1941 
L 2488 2456 
L 4503 2456 
L 4503 0 
L 4103 0 
L 3953 591 
Q 3638 244 3394 109 
Q 2984 -122 2353 -122 
Q 1538 -122 950 406 
Q 309 1069 309 2225 
Q 309 3378 934 4059 
Q 1528 4709 2472 4709 
z
M 2369 4716 
L 2369 4716 
z
" transform="scale(0.015625)"/>
       <path id="Helvetica-48" d="M 503 4591 
L 1131 4591 
L 1131 2694 
L 3519 2694 
L 3519 4591 
L 4147 4591 
L 4147 0 
L 3519 0 
L 3519 2147 
L 1131 2147 
L 1131 0 
L 503 0 
L 503 4591 
z
" transform="scale(0.015625)"/>
       <path id="Helvetica-7a" d="M 163 444 
L 2147 2844 
L 309 2844 
L 309 3347 
L 2903 3347 
L 2903 2888 
L 931 503 
L 2963 503 
L 2963 0 
L 163 0 
L 163 444 
z
M 1609 3428 
L 1609 3428 
z
" transform="scale(0.015625)"/>
      </defs>
      <use xlink:href="#Helvetica-46" transform="translate(0 0.3125)"/>
      <use xlink:href="#Helvetica-72" transform="translate(61.083984 0.3125)"/>
      <use xlink:href="#Helvetica-65" transform="translate(94.384766 0.3125)"/>
      <use xlink:href="#Helvetica-71" transform="translate(150 0.3125)"/>
      <use xlink:href="#Helvetica-75" transform="translate(205.615234 0.3125)"/>
      <use xlink:href="#Helvetica-65" transform="translate(261.230469 0.3125)"/>
      <use xlink:href="#Helvetica-6e" transform="translate(316.845703 0.3125)"/>
      <use xlink:href="#Helvetica-63" transform="translate(372.460938 0.3125)"/>
      <use xlink:href="#Helvetica-79" transform="translate(422.460938 0.3125)"/>
      <use xlink:href="#Helvetica-20" transform="translate(472.460938 0.3125)"/>
      <use xlink:href="#DejaVuSans-Oblique-3c9" transform="translate(500.244141 0.3125)"/>
      <use xlink:href="#Helvetica-2f" transform="translate(583.984375 0.3125)"/>
      <use xlink:href="#Helvetica-28" transform="translate(611.767578 0.3125)"/>
      <use xlink:href="#Helvetica-32" transform="translate(645.068359 0.3125)"/>
      <use xlink:href="#DejaVuSans-Oblique-3c0" transform="translate(700.683594 0.3125)"/>
      <use xlink:href="#Helvetica-29" transform="translate(760.888672 0.3125)"/>
      <use xlink:href="#Helvetica-20" transform="translate(794.189453 0.3125)"/>
      <use xlink:href="#Helvetica-28" transform="translate(821.972656 0.3125)"/>
      <use xlink:href="#Helvetica-47" transform="translate(855.273438 0.3125)"/>
      <use xlink:href="#Helvetica-48" transform="translate(933.056641 0.3125)"/>
      <use xlink:href="#Helvetica-7a" transform="translate(1005.273438 0.3125)"/>
      <use xlink:href="#Helvetica-29" transform="translate(1055.273438 0.3125)"/>
     </g>
    </g>
   </g>
   <g id="line2d_25">
    <path d="M 94.840272 433 
L 395.445303 -1 
L 395.445303 -1 
" clip-path="url(#p570ec21d3b)" style="fill: none; stroke: #87cefa; stroke-width: 1.5; stroke-linecap: square"/>
   </g>
   <g id="line2d_26">
    <path d="M 63.11 297.732479 
L 270.023563 -1 
L 270.023563 -1 
" clip-path="url(#p570ec21d3b)" style="fill: none; stroke-dasharray: 5.55,2.4; stroke-dashoffset: 0; stroke: #87cefa; stroke-width: 1.5"/>
   </g>
   <g id="line2d_27">
    <path d="M 220.262012 433 
L 440.313539 115.299521 
L 440.313539 115.299521 
" clip-path="url(#p570ec21d3b)" style="fill: none; stroke-dasharray: 5.55,2.4; stroke-dashoffset: 0; stroke: #87cefa; stroke-width: 1.5"/>
   </g>
   <g id="line2d_28">
    <path d="M 63.11 116.654221 
L 144.601822 -1 
L 144.601822 -1 
" clip-path="url(#p570ec21d3b)" style="fill: none; stroke-dasharray: 1.5,2.475; stroke-dashoffset: 0; stroke: #87cefa; stroke-width: 1.5"/>
   </g>
   <g id="line2d_29">
    <path d="M 345.683753 433 
L 440.313539 296.377779 
L 440.313539 296.377779 
" clip-path="url(#p570ec21d3b)" style="fill: none; stroke-dasharray: 1.5,2.475; stroke-dashoffset: 0; stroke: #87cefa; stroke-width: 1.5"/>
   </g>
   <g id="line2d_30">
    <path d="M 107.259568 -1 
L 409.367625 433 
L 409.367625 433 
" clip-path="url(#p570ec21d3b)" style="fill: none; stroke: #f08080; stroke-width: 1.5; stroke-linecap: square"/>
   </g>
   <g id="line2d_31">
    <path d="M 233.308417 -1 
L 440.313539 296.377779 
L 440.313539 296.377779 
" clip-path="url(#p570ec21d3b)" style="fill: none; stroke-dasharray: 5.55,2.4; stroke-dashoffset: 0; stroke: #f08080; stroke-width: 1.5"/>
   </g>
   <g id="line2d_32">
    <path d="M 63.11 116.654221 
L 283.318775 433 
L 283.318775 433 
" clip-path="url(#p570ec21d3b)" style="fill: none; stroke-dasharray: 5.55,2.4; stroke-dashoffset: 0; stroke: #f08080; stroke-width: 1.5"/>
   </g>
   <g id="line2d_33">
    <path d="M 359.357267 -1 
L 440.313539 115.299521 
L 440.313539 115.299521 
" clip-path="url(#p570ec21d3b)" style="fill: none; stroke-dasharray: 1.5,2.475; stroke-dashoffset: 0; stroke: #f08080; stroke-width: 1.5"/>
   </g>
   <g id="line2d_34">
    <path d="M 63.11 297.732479 
L 157.269926 433 
L 157.269926 433 
" clip-path="url(#p570ec21d3b)" style="fill: none; stroke-dasharray: 1.5,2.475; stroke-dashoffset: 0; stroke: #f08080; stroke-width: 1.5"/>
   </g>
   <g id="line2d_35">
    <path d="M 63.11 130.292771 
L 64.242743 130.35121 
L 65.753068 130.688572 
L 67.263392 131.303784 
L 68.773717 132.165389 
L 70.661622 133.532855 
L 72.927109 135.508407 
L 75.570177 138.149202 
L 78.968407 141.902264 
L 83.49938 147.29033 
L 89.91826 155.322406 
L 111.440383 182.567486 
L 115.216195 186.854899 
L 117.859262 189.546918 
L 120.124749 191.524208 
L 121.635074 192.601493 
L 123.145398 193.428008 
L 124.655723 193.953271 
L 125.788466 194.125152 
L 126.921209 194.096773 
L 128.053953 193.869237 
L 129.186696 193.452738 
L 130.697021 192.633662 
L 132.207345 191.559272 
L 134.095251 189.933539 
L 136.360737 187.676914 
L 139.381386 184.31892 
L 143.157197 179.775539 
L 148.820914 172.569483 
L 157.882861 160.618782 
L 172.230944 141.705403 
L 177.139498 135.612912 
L 180.160147 132.168064 
L 182.425634 129.872766 
L 184.31354 128.26508 
L 185.823864 127.266918 
L 186.956607 126.735157 
L 188.089351 126.422111 
L 189.222094 126.347861 
L 190.354838 126.517673 
L 191.487581 126.920375 
L 192.620324 127.531788 
L 194.130649 128.618133 
L 196.018554 130.309785 
L 198.284041 132.678114 
L 201.30469 136.194022 
L 205.458082 141.403204 
L 211.876961 149.866127 
L 223.581976 165.752829 
L 236.042153 182.567362 
L 240.950708 188.857291 
L 243.971357 192.429426 
L 246.236843 194.797516 
L 247.747168 196.123114 
L 249.257492 197.142706 
L 250.390236 197.641342 
L 251.522979 197.866059 
L 252.655722 197.795455 
L 253.788466 197.436249 
L 254.921209 196.820331 
L 256.431534 195.677595 
L 258.319439 193.877204 
L 260.584926 191.368687 
L 263.983156 187.207466 
L 268.89171 180.784373 
L 276.820914 169.992632 
L 303.629174 133.239314 
L 307.027404 128.996328 
L 309.29289 126.455395 
L 310.803215 125.007338 
L 312.313539 123.885915 
L 313.446283 123.35136 
L 314.201445 123.176322 
L 314.956607 123.160076 
L 315.711769 123.303725 
L 316.844513 123.797158 
L 317.977256 124.570449 
L 319.487581 125.921388 
L 321.375486 127.945671 
L 324.018554 131.133617 
L 328.171946 136.545398 
L 334.968407 145.822278 
L 348.938908 165.354723 
L 364.419734 186.909609 
L 369.328288 193.419691 
L 371.971356 196.639421 
L 373.859262 198.630949 
L 374.992005 199.592109 
L 376.124749 200.274877 
L 376.879911 200.5265 
L 377.635073 200.589016 
L 378.390235 200.456529 
L 379.145398 200.141155 
L 380.278141 199.381798 
L 381.788465 197.986959 
L 383.676371 195.877038 
L 386.69702 192.084981 
L 391.605575 185.482039 
L 400.667521 172.845341 
L 432.384336 128.368475 
L 435.404985 124.541983 
L 437.29289 122.477248 
L 438.425633 121.510043 
L 439.180796 121.054751 
L 439.935958 120.803552 
L 440.313539 120.765572 
L 440.313539 120.765572 
" clip-path="url(#p570ec21d3b)" style="fill: none; stroke: #ff7f0e; stroke-width: 1.5; stroke-linecap: square"/>
   </g>
   <g id="line2d_36">
    <path d="M 63.11 282.739229 
L 64.242743 282.68079 
L 65.753068 282.343428 
L 67.263392 281.728216 
L 68.773717 280.866611 
L 70.661622 279.499145 
L 72.927109 277.523593 
L 75.570177 274.882798 
L 78.968407 271.129736 
L 83.49938 265.74167 
L 89.91826 257.709594 
L 111.440383 230.464514 
L 115.216195 226.177101 
L 117.859262 223.485082 
L 120.124749 221.507792 
L 121.635074 220.430507 
L 123.145398 219.603992 
L 124.655723 219.078729 
L 125.788466 218.906848 
L 126.921209 218.935227 
L 128.053953 219.162763 
L 129.186696 219.579262 
L 130.697021 220.398338 
L 132.207345 221.472728 
L 134.095251 223.098461 
L 136.360737 225.355086 
L 139.381386 228.71308 
L 143.157197 233.256461 
L 148.820914 240.462517 
L 157.882861 252.413218 
L 172.230944 271.326597 
L 177.139498 277.419088 
L 180.160147 280.863936 
L 182.425634 283.159234 
L 184.31354 284.76692 
L 185.823864 285.765082 
L 186.956607 286.296843 
L 188.089351 286.609889 
L 189.222094 286.684139 
L 190.354838 286.514327 
L 191.487581 286.111625 
L 192.620324 285.500212 
L 194.130649 284.413867 
L 196.018554 282.722215 
L 198.284041 280.353886 
L 201.30469 276.837978 
L 205.458082 271.628796 
L 211.876961 263.165873 
L 223.581976 247.279171 
L 236.042153 230.464638 
L 240.950708 224.174709 
L 243.971357 220.602574 
L 246.236843 218.234484 
L 247.747168 216.908886 
L 249.257492 215.889294 
L 250.390236 215.390658 
L 251.522979 215.165941 
L 252.655722 215.236545 
L 253.788466 215.595751 
L 254.921209 216.211669 
L 256.431534 217.354405 
L 258.319439 219.154796 
L 260.584926 221.663313 
L 263.983156 225.824534 
L 268.89171 232.247627 
L 276.820914 243.039368 
L 303.629174 279.792686 
L 307.027404 284.035672 
L 309.29289 286.576605 
L 310.803215 288.024662 
L 312.313539 289.146085 
L 313.446283 289.68064 
L 314.201445 289.855678 
L 314.956607 289.871924 
L 315.711769 289.728275 
L 316.844513 289.234842 
L 317.977256 288.461551 
L 319.487581 287.110612 
L 321.375486 285.086329 
L 324.018554 281.898383 
L 328.171946 276.486602 
L 334.968407 267.209722 
L 348.938908 247.677277 
L 364.419734 226.122391 
L 369.328288 219.612309 
L 371.971356 216.392579 
L 373.859262 214.401051 
L 374.992005 213.439891 
L 376.124749 212.757123 
L 376.879911 212.5055 
L 377.635073 212.442984 
L 378.390235 212.575471 
L 379.145398 212.890845 
L 380.278141 213.650202 
L 381.788465 215.045041 
L 383.676371 217.154962 
L 386.69702 220.947019 
L 391.605575 227.549961 
L 400.667521 240.186659 
L 432.384336 284.663525 
L 435.404985 288.490017 
L 437.29289 290.554752 
L 438.425633 291.521957 
L 439.180796 291.977249 
L 439.935958 292.228448 
L 440.313539 292.266428 
L 440.313539 292.266428 
" clip-path="url(#p570ec21d3b)" style="fill: none; stroke: #ff7f0e; stroke-width: 1.5; stroke-linecap: square"/>
   </g>
   <g id="line2d_37">
    <path d="M 63.11 154.151666 
L 66.50823 154.042134 
L 69.90646 154.147141 
L 73.30469 154.477514 
L 76.70292 155.036689 
L 80.10115 155.820268 
L 83.876962 156.939158 
L 87.652773 158.293238 
L 91.806165 160.011058 
L 97.092301 162.451397 
L 112.573127 169.809378 
L 116.348938 171.269347 
L 119.747168 172.337118 
L 122.767817 173.042333 
L 125.410885 173.441486 
L 128.053953 173.616755 
L 130.697021 173.554585 
L 133.340088 173.248373 
L 135.983156 172.698913 
L 138.626224 171.914099 
L 141.269292 170.907971 
L 144.289941 169.511472 
L 147.688171 167.666297 
L 151.463982 165.337073 
L 155.994956 162.255162 
L 162.791416 157.313856 
L 170.343038 151.870829 
L 174.49643 149.146635 
L 177.894661 147.187669 
L 180.537728 145.893209 
L 183.180796 144.84687 
L 185.446283 144.179148 
L 187.71177 143.747206 
L 189.977256 143.568462 
L 192.242743 143.653041 
L 194.50823 144.002654 
L 196.773717 144.610595 
L 199.039203 145.462821 
L 201.30469 146.539793 
L 203.947758 148.049646 
L 206.968407 150.061912 
L 210.366637 152.623501 
L 214.142448 155.752204 
L 219.051003 160.120343 
L 235.664572 175.190409 
L 239.062802 177.84671 
L 241.70587 179.668926 
L 244.348938 181.210185 
L 246.614424 182.256782 
L 248.50233 182.903647 
L 250.390236 183.3233 
L 252.278141 183.50025 
L 254.166047 183.42636 
L 256.053952 183.101943 
L 257.941858 182.535589 
L 259.829764 181.742777 
L 262.09525 180.52116 
L 264.360737 179.04195 
L 267.003805 177.043427 
L 270.024454 174.470377 
L 273.800265 170.927685 
L 278.331239 166.347257 
L 285.127699 159.110576 
L 295.322389 148.240334 
L 299.475781 144.122466 
L 302.874011 141.062546 
L 305.517079 138.973781 
L 307.782566 137.459243 
L 309.670471 136.440565 
L 311.558377 135.683854 
L 313.068702 135.290161 
L 314.579026 135.099029 
L 316.089351 135.117661 
L 317.599675 135.346402 
L 319.109999 135.778746 
L 320.997905 136.586295 
L 322.885811 137.659865 
L 325.151297 139.247428 
L 327.416784 141.10263 
L 330.437433 143.898332 
L 333.835663 147.366106 
L 338.366637 152.344754 
L 344.407935 159.34824 
L 360.643923 178.362773 
L 364.419734 182.388552 
L 367.440383 185.302449 
L 369.70587 187.216457 
L 371.593775 188.568057 
L 373.481681 189.637935 
L 374.992005 190.251322 
L 376.50233 190.620191 
L 378.012654 190.726361 
L 379.522979 190.563729 
L 381.033303 190.139618 
L 382.543628 189.473009 
L 384.431533 188.339692 
L 386.319439 186.927302 
L 388.584926 184.941637 
L 391.227993 182.324181 
L 394.626224 178.626385 
L 399.157197 173.324412 
L 405.198495 165.885786 
L 426.343038 139.550557 
L 429.741268 135.778293 
L 432.384336 133.148012 
L 434.272241 131.520832 
L 436.160147 130.189263 
L 437.670471 129.398433 
L 439.180796 128.902345 
L 440.313539 128.745801 
L 440.313539 128.745801 
" clip-path="url(#p570ec21d3b)" style="fill: none; stroke: #4682b4; stroke-width: 1.5; stroke-linecap: square"/>
   </g>
   <g id="line2d_38">
    <path d="M 63.11 258.880334 
L 66.50823 258.989866 
L 69.90646 258.884859 
L 73.30469 258.554486 
L 76.70292 257.995311 
L 80.10115 257.211732 
L 83.876962 256.092842 
L 87.652773 254.738762 
L 91.806165 253.020942 
L 97.092301 250.580603 
L 112.573127 243.222622 
L 116.348938 241.762653 
L 119.747168 240.694882 
L 122.767817 239.989667 
L 125.410885 239.590514 
L 128.053953 239.415245 
L 130.697021 239.477415 
L 133.340088 239.783627 
L 135.983156 240.333087 
L 138.626224 241.117901 
L 141.269292 242.124029 
L 144.289941 243.520528 
L 147.688171 245.365703 
L 151.463982 247.694927 
L 155.994956 250.776838 
L 162.791416 255.718144 
L 170.343038 261.161171 
L 174.49643 263.885365 
L 177.894661 265.844331 
L 180.537728 267.138791 
L 183.180796 268.18513 
L 185.446283 268.852852 
L 187.71177 269.284794 
L 189.977256 269.463538 
L 192.242743 269.378959 
L 194.50823 269.029346 
L 196.773717 268.421405 
L 199.039203 267.569179 
L 201.30469 266.492207 
L 203.947758 264.982354 
L 206.968407 262.970088 
L 210.366637 260.408499 
L 214.142448 257.279796 
L 219.051003 252.911657 
L 235.664572 237.841591 
L 239.062802 235.18529 
L 241.70587 233.363074 
L 244.348938 231.821815 
L 246.614424 230.775218 
L 248.50233 230.128353 
L 250.390236 229.7087 
L 252.278141 229.53175 
L 254.166047 229.60564 
L 256.053952 229.930057 
L 257.941858 230.496411 
L 259.829764 231.289223 
L 262.09525 232.51084 
L 264.360737 233.99005 
L 267.003805 235.988573 
L 270.024454 238.561623 
L 273.800265 242.104315 
L 278.331239 246.684743 
L 285.127699 253.921424 
L 295.322389 264.791666 
L 299.475781 268.909534 
L 302.874011 271.969454 
L 305.517079 274.058219 
L 307.782566 275.572757 
L 309.670471 276.591435 
L 311.558377 277.348146 
L 313.068702 277.741839 
L 314.579026 277.932971 
L 316.089351 277.914339 
L 317.599675 277.685598 
L 319.109999 277.253254 
L 320.997905 276.445705 
L 322.885811 275.372135 
L 325.151297 273.784572 
L 327.416784 271.92937 
L 330.437433 269.133668 
L 333.835663 265.665894 
L 338.366637 260.687246 
L 344.407935 253.68376 
L 360.643923 234.669227 
L 364.419734 230.643448 
L 367.440383 227.729551 
L 369.70587 225.815543 
L 371.593775 224.463943 
L 373.481681 223.394065 
L 374.992005 222.780678 
L 376.50233 222.411809 
L 378.012654 222.305639 
L 379.522979 222.468271 
L 381.033303 222.892382 
L 382.543628 223.558991 
L 384.431533 224.692308 
L 386.319439 226.104698 
L 388.584926 228.090363 
L 391.227993 230.707819 
L 394.626224 234.405615 
L 399.157197 239.707588 
L 405.198495 247.146214 
L 426.343038 273.481443 
L 429.741268 277.253707 
L 432.384336 279.883988 
L 434.272241 281.511168 
L 436.160147 282.842737 
L 437.670471 283.633567 
L 439.180796 284.129655 
L 440.313539 284.286199 
L 440.313539 284.286199 
" clip-path="url(#p570ec21d3b)" style="fill: none; stroke: #4682b4; stroke-width: 1.5; stroke-linecap: square"/>
   </g>
   <g id="patch_3">
    <path d="M 63.11 387.592 
L 63.11 25.44 
" style="fill: none; stroke: #000000; stroke-width: 0.8; stroke-linejoin: miter; stroke-linecap: square"/>
   </g>
   <g id="patch_4">
    <path d="M 440.313539 387.592 
L 440.313539 25.44 
" style="fill: none; stroke: #000000; stroke-width: 0.8; stroke-linejoin: miter; stroke-linecap: square"/>
   </g>
   <g id="patch_5">
    <path d="M 63.11 387.592 
L 440.313539 387.592 
" style="fill: none; stroke: #000000; stroke-width: 0.8; stroke-linejoin: miter; stroke-linecap: square"/>
   </g>
   <g id="patch_6">
    <path d="M 63.11 25.44 
L 440.313539 25.44 
" style="fill: none; stroke: #000000; stroke-width: 0.8; stroke-linejoin: miter; stroke-linecap: square"/>
   </g>
   <g id="text_15">
    <!-- Mode number non-conservation coupling -->
    <g transform="translate(142.98802 19.44) scale(0.12 -0.12)">
     <defs>
      <path id="Helvetica-73" d="M 747 1050 
Q 772 769 888 619 
Q 1100 347 1625 347 
Q 1938 347 2175 483 
Q 2413 619 2413 903 
Q 2413 1119 2222 1231 
Q 2100 1300 1741 1391 
L 1294 1503 
Q 866 1609 663 1741 
Q 300 1969 300 2372 
Q 300 2847 642 3140 
Q 984 3434 1563 3434 
Q 2319 3434 2653 2991 
Q 2863 2709 2856 2384 
L 2325 2384 
Q 2309 2575 2191 2731 
Q 1997 2953 1519 2953 
Q 1200 2953 1036 2831 
Q 872 2709 872 2509 
Q 872 2291 1088 2159 
Q 1213 2081 1456 2022 
L 1828 1931 
Q 2434 1784 2641 1647 
Q 2969 1431 2969 969 
Q 2969 522 2630 197 
Q 2291 -128 1597 -128 
Q 850 -128 539 211 
Q 228 550 206 1050 
L 747 1050 
z
M 1578 3428 
L 1578 3428 
z
" transform="scale(0.015625)"/>
      <path id="Helvetica-76" d="M 688 3347 
L 1581 622 
L 2516 3347 
L 3131 3347 
L 1869 0 
L 1269 0 
L 34 3347 
L 688 3347 
z
" transform="scale(0.015625)"/>
      <path id="Helvetica-61" d="M 844 891 
Q 844 647 1022 506 
Q 1200 366 1444 366 
Q 1741 366 2019 503 
Q 2488 731 2488 1250 
L 2488 1703 
Q 2384 1638 2221 1594 
Q 2059 1550 1903 1531 
L 1563 1488 
Q 1256 1447 1103 1359 
Q 844 1213 844 891 
z
M 2206 2028 
Q 2400 2053 2466 2191 
Q 2503 2266 2503 2406 
Q 2503 2694 2298 2823 
Q 2094 2953 1713 2953 
Q 1272 2953 1088 2716 
Q 984 2584 953 2325 
L 428 2325 
Q 444 2944 830 3186 
Q 1216 3428 1725 3428 
Q 2316 3428 2684 3203 
Q 3050 2978 3050 2503 
L 3050 575 
Q 3050 488 3086 434 
Q 3122 381 3238 381 
Q 3275 381 3322 386 
Q 3369 391 3422 400 
L 3422 -16 
Q 3291 -53 3222 -62 
Q 3153 -72 3034 -72 
Q 2744 -72 2613 134 
Q 2544 244 2516 444 
Q 2344 219 2022 53 
Q 1700 -113 1313 -113 
Q 847 -113 551 170 
Q 256 453 256 878 
Q 256 1344 547 1600 
Q 838 1856 1309 1916 
L 2206 2028 
z
M 1741 3428 
L 1741 3428 
z
" transform="scale(0.015625)"/>
      <path id="Helvetica-74" d="M 525 4281 
L 1094 4281 
L 1094 3347 
L 1628 3347 
L 1628 2888 
L 1094 2888 
L 1094 703 
Q 1094 528 1213 469 
Q 1278 434 1431 434 
Q 1472 434 1519 436 
Q 1566 438 1628 444 
L 1628 0 
Q 1531 -28 1426 -40 
Q 1322 -53 1200 -53 
Q 806 -53 665 148 
Q 525 350 525 672 
L 525 2888 
L 72 2888 
L 72 3347 
L 525 3347 
L 525 4281 
z
" transform="scale(0.015625)"/>
      <path id="Helvetica-69" d="M 413 3331 
L 984 3331 
L 984 0 
L 413 0 
L 413 3331 
z
M 413 4591 
L 984 4591 
L 984 3953 
L 413 3953 
L 413 4591 
z
" transform="scale(0.015625)"/>
      <path id="Helvetica-70" d="M 1825 378 
Q 2219 378 2480 708 
Q 2741 1038 2741 1694 
Q 2741 2094 2625 2381 
Q 2406 2934 1825 2934 
Q 1241 2934 1025 2350 
Q 909 2038 909 1556 
Q 909 1169 1025 897 
Q 1244 378 1825 378 
z
M 369 3331 
L 916 3331 
L 916 2888 
Q 1084 3116 1284 3241 
Q 1569 3428 1953 3428 
Q 2522 3428 2919 2992 
Q 3316 2556 3316 1747 
Q 3316 653 2744 184 
Q 2381 -113 1900 -113 
Q 1522 -113 1266 53 
Q 1116 147 931 375 
L 931 -1334 
L 369 -1334 
L 369 3331 
z
" transform="scale(0.015625)"/>
      <path id="Helvetica-6c" d="M 428 4591 
L 991 4591 
L 991 0 
L 428 0 
L 428 4591 
z
" transform="scale(0.015625)"/>
      <path id="Helvetica-67" d="M 1594 3406 
Q 1988 3406 2281 3213 
Q 2441 3103 2606 2894 
L 2606 3316 
L 3125 3316 
L 3125 272 
Q 3125 -366 2938 -734 
Q 2588 -1416 1616 -1416 
Q 1075 -1416 706 -1173 
Q 338 -931 294 -416 
L 866 -416 
Q 906 -641 1028 -763 
Q 1219 -950 1628 -950 
Q 2275 -950 2475 -494 
Q 2594 -225 2584 466 
Q 2416 209 2178 84 
Q 1941 -41 1550 -41 
Q 1006 -41 598 345 
Q 191 731 191 1622 
Q 191 2463 602 2934 
Q 1013 3406 1594 3406 
z
M 2606 1688 
Q 2606 2309 2350 2609 
Q 2094 2909 1697 2909 
Q 1103 2909 884 2353 
Q 769 2056 769 1575 
Q 769 1009 998 714 
Q 1228 419 1616 419 
Q 2222 419 2469 966 
Q 2606 1275 2606 1688 
z
M 1659 3428 
L 1659 3428 
z
" transform="scale(0.015625)"/>
     </defs>
     <use xlink:href="#Helvetica-4d"/>
     <use xlink:href="#Helvetica-6f" transform="translate(83.300781 0)"/>
     <use xlink:href="#Helvetica-64" transform="translate(138.916016 0)"/>
     <use xlink:href="#Helvetica-65" transform="translate(194.53125 0)"/>
     <use xlink:href="#Helvetica-20" transform="translate(250.146484 0)"/>
     <use xlink:href="#Helvetica-6e" transform="translate(277.929688 0)"/>
     <use xlink:href="#Helvetica-75" transform="translate(333.544922 0)"/>
     <use xlink:href="#Helvetica-6d" transform="translate(389.160156 0)"/>
     <use xlink:href="#Helvetica-62" transform="translate(472.460938 0)"/>
     <use xlink:href="#Helvetica-65" transform="translate(528.076172 0)"/>
     <use xlink:href="#Helvetica-72" transform="translate(583.691406 0)"/>
     <use xlink:href="#Helvetica-20" transform="translate(616.992188 0)"/>
     <use xlink:href="#Helvetica-6e" transform="translate(644.775391 0)"/>
     <use xlink:href="#Helvetica-6f" transform="translate(700.390625 0)"/>
     <use xlink:href="#Helvetica-6e" transform="translate(756.005859 0)"/>
     <use xlink:href="#Helvetica-2d" transform="translate(811.621094 0)"/>
     <use xlink:href="#Helvetica-63" transform="translate(844.921875 0)"/>
     <use xlink:href="#Helvetica-6f" transform="translate(894.921875 0)"/>
     <use xlink:href="#Helvetica-6e" transform="translate(950.537109 0)"/>
     <use xlink:href="#Helvetica-73" transform="translate(1006.152344 0)"/>
     <use xlink:href="#Helvetica-65" transform="translate(1056.152344 0)"/>
     <use xlink:href="#Helvetica-72" transform="translate(1111.767578 0)"/>
     <use xlink:href="#Helvetica-76" transform="translate(1145.068359 0)"/>
     <use xlink:href="#Helvetica-61" transform="translate(1195.068359 0)"/>
     <use xlink:href="#Helvetica-74" transform="translate(1250.683594 0)"/>
     <use xlink:href="#Helvetica-69" transform="translate(1278.466797 0)"/>
     <use xlink:href="#Helvetica-6f" transform="translate(1300.683594 0)"/>
     <use xlink:href="#Helvetica-6e" transform="translate(1356.298828 0)"/>
     <use xlink:href="#Helvetica-20" transform="translate(1411.914062 0)"/>
     <use xlink:href="#Helvetica-63" transform="translate(1439.697266 0)"/>
     <use xlink:href="#Helvetica-6f" transform="translate(1489.697266 0)"/>
     <use xlink:href="#Helvetica-75" transform="translate(1545.3125 0)"/>
     <use xlink:href="#Helvetica-70" transform="translate(1600.927734 0)"/>
     <use xlink:href="#Helvetica-6c" transform="translate(1656.542969 0)"/>
     <use xlink:href="#Helvetica-69" transform="translate(1678.759766 0)"/>
     <use xlink:href="#Helvetica-6e" transform="translate(1700.976562 0)"/>
     <use xlink:href="#Helvetica-67" transform="translate(1756.591797 0)"/>
    </g>
   </g>
   <g id="legend_1">
    <g id="patch_7">
     <path d="M 461.173716 218.2329 
L 697.673716 218.2329 
Q 699.673716 218.2329 699.673716 216.2329 
L 699.673716 99.8704 
Q 699.673716 97.8704 697.673716 97.8704 
L 461.173716 97.8704 
Q 459.173716 97.8704 459.173716 99.8704 
L 459.173716 216.2329 
Q 459.173716 218.2329 461.173716 218.2329 
z
" style="fill: #ffffff; opacity: 0.8; stroke: #cccccc; stroke-linejoin: miter"/>
    </g>
    <g id="line2d_39">
     <path d="M 463.173716 105.9704 
L 473.173716 105.9704 
L 483.173716 105.9704 
" style="fill: none; stroke: #87cefa; stroke-width: 1.5; stroke-linecap: square"/>
    </g>
    <g id="text_16">
     <!-- Resonator1 $\omega = \omega_0$+$(D_1-D_{ave})$(m-$M_0$) -->
     <g transform="translate(491.173716 109.4704) scale(0.1 -0.1)">
      <defs>
       <path id="Helvetica-52" d="M 2622 2488 
Q 3059 2488 3314 2663 
Q 3569 2838 3569 3294 
Q 3569 3784 3213 3963 
Q 3022 4056 2703 4056 
L 1184 4056 
L 1184 2488 
L 2622 2488 
z
M 563 4591 
L 2688 4591 
Q 3213 4591 3553 4438 
Q 4200 4144 4200 3353 
Q 4200 2941 4029 2678 
Q 3859 2416 3553 2256 
Q 3822 2147 3958 1969 
Q 4094 1791 4109 1391 
L 4131 775 
Q 4141 513 4175 384 
Q 4231 166 4375 103 
L 4375 0 
L 3613 0 
Q 3581 59 3562 153 
Q 3544 247 3531 516 
L 3494 1281 
Q 3472 1731 3159 1884 
Q 2981 1969 2600 1969 
L 1184 1969 
L 1184 0 
L 563 0 
L 563 4591 
z
" transform="scale(0.015625)"/>
       <path id="DejaVuSans-3d" d="M 678 2906 
L 4684 2906 
L 4684 2381 
L 678 2381 
L 678 2906 
z
M 678 1631 
L 4684 1631 
L 4684 1100 
L 678 1100 
L 678 1631 
z
" transform="scale(0.015625)"/>
       <path id="DejaVuSans-28" d="M 1984 4856 
Q 1566 4138 1362 3434 
Q 1159 2731 1159 2009 
Q 1159 1288 1364 580 
Q 1569 -128 1984 -844 
L 1484 -844 
Q 1016 -109 783 600 
Q 550 1309 550 2009 
Q 550 2706 781 3412 
Q 1013 4119 1484 4856 
L 1984 4856 
z
" transform="scale(0.015625)"/>
       <path id="DejaVuSans-Oblique-44" d="M 1081 4666 
L 2438 4666 
Q 3519 4666 4070 4208 
Q 4622 3750 4622 2847 
Q 4622 2250 4412 1698 
Q 4203 1147 3834 769 
Q 3463 381 2891 190 
Q 2319 0 1538 0 
L 172 0 
L 1081 4666 
z
M 1613 4147 
L 909 519 
L 1734 519 
Q 2794 519 3375 1128 
Q 3956 1738 3956 2847 
Q 3956 3519 3581 3833 
Q 3206 4147 2406 4147 
L 1613 4147 
z
" transform="scale(0.015625)"/>
       <path id="DejaVuSans-31" d="M 794 531 
L 1825 531 
L 1825 4091 
L 703 3866 
L 703 4441 
L 1819 4666 
L 2450 4666 
L 2450 531 
L 3481 531 
L 3481 0 
L 794 0 
L 794 531 
z
" transform="scale(0.015625)"/>
       <path id="DejaVuSans-2212" d="M 678 2272 
L 4684 2272 
L 4684 1741 
L 678 1741 
L 678 2272 
z
" transform="scale(0.015625)"/>
       <path id="DejaVuSans-Oblique-61" d="M 3438 1997 
L 3047 0 
L 2472 0 
L 2578 531 
Q 2325 219 2001 64 
Q 1678 -91 1281 -91 
Q 834 -91 548 182 
Q 263 456 263 884 
Q 263 1497 752 1853 
Q 1241 2209 2100 2209 
L 2900 2209 
L 2931 2363 
Q 2938 2388 2941 2417 
Q 2944 2447 2944 2509 
Q 2944 2788 2717 2942 
Q 2491 3097 2081 3097 
Q 1800 3097 1504 3025 
Q 1209 2953 897 2809 
L 997 3341 
Q 1322 3463 1633 3523 
Q 1944 3584 2234 3584 
Q 2853 3584 3176 3315 
Q 3500 3047 3500 2534 
Q 3500 2431 3484 2292 
Q 3469 2153 3438 1997 
z
M 2816 1759 
L 2241 1759 
Q 1534 1759 1195 1570 
Q 856 1381 856 984 
Q 856 709 1029 553 
Q 1203 397 1509 397 
Q 1978 397 2328 733 
Q 2678 1069 2791 1631 
L 2816 1759 
z
" transform="scale(0.015625)"/>
       <path id="DejaVuSans-Oblique-76" d="M 459 3500 
L 1069 3500 
L 1581 525 
L 3256 3500 
L 3866 3500 
L 1875 0 
L 1100 0 
L 459 3500 
z
" transform="scale(0.015625)"/>
       <path id="DejaVuSans-Oblique-65" d="M 3078 2063 
Q 3088 2113 3092 2166 
Q 3097 2219 3097 2272 
Q 3097 2653 2873 2875 
Q 2650 3097 2266 3097 
Q 1838 3097 1509 2826 
Q 1181 2556 1013 2059 
L 3078 2063 
z
M 3578 1613 
L 903 1613 
Q 884 1494 878 1425 
Q 872 1356 872 1306 
Q 872 872 1139 634 
Q 1406 397 1894 397 
Q 2269 397 2603 481 
Q 2938 566 3225 728 
L 3116 159 
Q 2806 34 2476 -28 
Q 2147 -91 1806 -91 
Q 1078 -91 686 257 
Q 294 606 294 1247 
Q 294 1794 489 2264 
Q 684 2734 1063 3103 
Q 1306 3334 1642 3459 
Q 1978 3584 2356 3584 
Q 2950 3584 3301 3228 
Q 3653 2872 3653 2272 
Q 3653 2128 3634 1964 
Q 3616 1800 3578 1613 
z
" transform="scale(0.015625)"/>
       <path id="DejaVuSans-29" d="M 513 4856 
L 1013 4856 
Q 1481 4119 1714 3412 
Q 1947 2706 1947 2009 
Q 1947 1309 1714 600 
Q 1481 -109 1013 -844 
L 513 -844 
Q 928 -128 1133 580 
Q 1338 1288 1338 2009 
Q 1338 2731 1133 3434 
Q 928 4138 513 4856 
z
" transform="scale(0.015625)"/>
      </defs>
      <use xlink:href="#Helvetica-52" transform="translate(0 0.125)"/>
      <use xlink:href="#Helvetica-65" transform="translate(72.216797 0.125)"/>
      <use xlink:href="#Helvetica-73" transform="translate(127.832031 0.125)"/>
      <use xlink:href="#Helvetica-6f" transform="translate(177.832031 0.125)"/>
      <use xlink:href="#Helvetica-6e" transform="translate(233.447266 0.125)"/>
      <use xlink:href="#Helvetica-61" transform="translate(289.0625 0.125)"/>
      <use xlink:href="#Helvetica-74" transform="translate(344.677734 0.125)"/>
      <use xlink:href="#Helvetica-6f" transform="translate(372.460938 0.125)"/>
      <use xlink:href="#Helvetica-72" transform="translate(428.076172 0.125)"/>
      <use xlink:href="#Helvetica-31" transform="translate(461.376953 0.125)"/>
      <use xlink:href="#Helvetica-20" transform="translate(516.992188 0.125)"/>
      <use xlink:href="#DejaVuSans-Oblique-3c9" transform="translate(544.775391 0.125)"/>
      <use xlink:href="#DejaVuSans-3d" transform="translate(647.998047 0.125)"/>
      <use xlink:href="#DejaVuSans-Oblique-3c9" transform="translate(751.269531 0.125)"/>
      <use xlink:href="#DejaVuSans-30" transform="translate(835.009766 -16.28125) scale(0.7)"/>
      <use xlink:href="#Helvetica-2b" transform="translate(882.280273 0.125)"/>
      <use xlink:href="#DejaVuSans-28" transform="translate(940.678711 0.125)"/>
      <use xlink:href="#DejaVuSans-Oblique-44" transform="translate(979.692383 0.125)"/>
      <use xlink:href="#DejaVuSans-31" transform="translate(1056.694336 -16.28125) scale(0.7)"/>
      <use xlink:href="#DejaVuSans-2212" transform="translate(1123.447266 0.125)"/>
      <use xlink:href="#DejaVuSans-Oblique-44" transform="translate(1226.71875 0.125)"/>
      <use xlink:href="#DejaVuSans-Oblique-61" transform="translate(1303.720703 -16.28125) scale(0.7)"/>
      <use xlink:href="#DejaVuSans-Oblique-76" transform="translate(1346.616211 -16.28125) scale(0.7)"/>
      <use xlink:href="#DejaVuSans-Oblique-65" transform="translate(1388.041992 -16.28125) scale(0.7)"/>
      <use xlink:href="#DejaVuSans-29" transform="translate(1433.842773 0.125)"/>
      <use xlink:href="#Helvetica-28" transform="translate(1472.856445 0.125)"/>
      <use xlink:href="#Helvetica-6d" transform="translate(1506.157227 0.125)"/>
      <use xlink:href="#Helvetica-2d" transform="translate(1589.458008 0.125)"/>
      <use xlink:href="#DejaVuSans-Oblique-4d" transform="translate(1622.758789 0.125)"/>
      <use xlink:href="#DejaVuSans-30" transform="translate(1709.038086 -16.28125) scale(0.7)"/>
      <use xlink:href="#Helvetica-29" transform="translate(1756.308594 0.125)"/>
     </g>
    </g>
    <g id="line2d_40">
     <path d="M 463.173716 120.6704 
L 473.173716 120.6704 
L 483.173716 120.6704 
" style="fill: none; stroke-dasharray: 5.55,2.4; stroke-dashoffset: 0; stroke: #87cefa; stroke-width: 1.5"/>
    </g>
    <g id="text_17">
     <!-- Resonator1 $\omega$ = $\omega_0$+$(D_1-D_{ave})$(m-$M_0$)$\pm$1$D_1$ -->
     <g transform="translate(491.173716 124.1704) scale(0.1 -0.1)">
      <defs>
       <path id="Helvetica-3d" d="M 3547 2569 
L 3547 2044 
L 288 2044 
L 288 2569 
L 3547 2569 
z
M 3547 1228 
L 3547 694 
L 288 694 
L 288 1228 
L 3547 1228 
z
" transform="scale(0.015625)"/>
       <path id="DejaVuSans-b1" d="M 2944 4013 
L 2944 2803 
L 4684 2803 
L 4684 2272 
L 2944 2272 
L 2944 1063 
L 2419 1063 
L 2419 2272 
L 678 2272 
L 678 2803 
L 2419 2803 
L 2419 4013 
L 2944 4013 
z
M 678 531 
L 4684 531 
L 4684 0 
L 678 0 
L 678 531 
z
" transform="scale(0.015625)"/>
      </defs>
      <use xlink:href="#Helvetica-52" transform="translate(0 0.125)"/>
      <use xlink:href="#Helvetica-65" transform="translate(72.216797 0.125)"/>
      <use xlink:href="#Helvetica-73" transform="translate(127.832031 0.125)"/>
      <use xlink:href="#Helvetica-6f" transform="translate(177.832031 0.125)"/>
      <use xlink:href="#Helvetica-6e" transform="translate(233.447266 0.125)"/>
      <use xlink:href="#Helvetica-61" transform="translate(289.0625 0.125)"/>
      <use xlink:href="#Helvetica-74" transform="translate(344.677734 0.125)"/>
      <use xlink:href="#Helvetica-6f" transform="translate(372.460938 0.125)"/>
      <use xlink:href="#Helvetica-72" transform="translate(428.076172 0.125)"/>
      <use xlink:href="#Helvetica-31" transform="translate(461.376953 0.125)"/>
      <use xlink:href="#Helvetica-20" transform="translate(516.992188 0.125)"/>
      <use xlink:href="#DejaVuSans-Oblique-3c9" transform="translate(544.775391 0.125)"/>
      <use xlink:href="#Helvetica-20" transform="translate(628.515625 0.125)"/>
      <use xlink:href="#Helvetica-3d" transform="translate(656.298828 0.125)"/>
      <use xlink:href="#Helvetica-20" transform="translate(714.697266 0.125)"/>
      <use xlink:href="#DejaVuSans-Oblique-3c9" transform="translate(742.480469 0.125)"/>
      <use xlink:href="#DejaVuSans-30" transform="translate(826.220703 -16.28125) scale(0.7)"/>
      <use xlink:href="#Helvetica-2b" transform="translate(873.491211 0.125)"/>
      <use xlink:href="#DejaVuSans-28" transform="translate(931.889648 0.125)"/>
      <use xlink:href="#DejaVuSans-Oblique-44" transform="translate(970.90332 0.125)"/>
      <use xlink:href="#DejaVuSans-31" transform="translate(1047.905273 -16.28125) scale(0.7)"/>
      <use xlink:href="#DejaVuSans-2212" transform="translate(1114.658203 0.125)"/>
      <use xlink:href="#DejaVuSans-Oblique-44" transform="translate(1217.929688 0.125)"/>
      <use xlink:href="#DejaVuSans-Oblique-61" transform="translate(1294.931641 -16.28125) scale(0.7)"/>
      <use xlink:href="#DejaVuSans-Oblique-76" transform="translate(1337.827148 -16.28125) scale(0.7)"/>
      <use xlink:href="#DejaVuSans-Oblique-65" transform="translate(1379.25293 -16.28125) scale(0.7)"/>
      <use xlink:href="#DejaVuSans-29" transform="translate(1425.053711 0.125)"/>
      <use xlink:href="#Helvetica-28" transform="translate(1464.067383 0.125)"/>
      <use xlink:href="#Helvetica-6d" transform="translate(1497.368164 0.125)"/>
      <use xlink:href="#Helvetica-2d" transform="translate(1580.668945 0.125)"/>
      <use xlink:href="#DejaVuSans-Oblique-4d" transform="translate(1613.969727 0.125)"/>
      <use xlink:href="#DejaVuSans-30" transform="translate(1700.249023 -16.28125) scale(0.7)"/>
      <use xlink:href="#Helvetica-29" transform="translate(1747.519531 0.125)"/>
      <use xlink:href="#DejaVuSans-b1" transform="translate(1780.820312 0.125)"/>
      <use xlink:href="#Helvetica-31" transform="translate(1864.609375 0.125)"/>
      <use xlink:href="#DejaVuSans-Oblique-44" transform="translate(1920.224609 0.125)"/>
      <use xlink:href="#DejaVuSans-31" transform="translate(1997.226562 -16.28125) scale(0.7)"/>
     </g>
    </g>
    <g id="line2d_41">
     <path d="M 463.173716 135.3704 
L 473.173716 135.3704 
L 483.173716 135.3704 
" style="fill: none; stroke-dasharray: 1.5,2.475; stroke-dashoffset: 0; stroke: #87cefa; stroke-width: 1.5"/>
    </g>
    <g id="text_18">
     <!-- Resonator1 $\omega$ = $\omega_0$+$(D_1-D_{ave})$(m-$M_0$)$\pm$2$D_1$ -->
     <g transform="translate(491.173716 138.8704) scale(0.1 -0.1)">
      <use xlink:href="#Helvetica-52" transform="translate(0 0.125)"/>
      <use xlink:href="#Helvetica-65" transform="translate(72.216797 0.125)"/>
      <use xlink:href="#Helvetica-73" transform="translate(127.832031 0.125)"/>
      <use xlink:href="#Helvetica-6f" transform="translate(177.832031 0.125)"/>
      <use xlink:href="#Helvetica-6e" transform="translate(233.447266 0.125)"/>
      <use xlink:href="#Helvetica-61" transform="translate(289.0625 0.125)"/>
      <use xlink:href="#Helvetica-74" transform="translate(344.677734 0.125)"/>
      <use xlink:href="#Helvetica-6f" transform="translate(372.460938 0.125)"/>
      <use xlink:href="#Helvetica-72" transform="translate(428.076172 0.125)"/>
      <use xlink:href="#Helvetica-31" transform="translate(461.376953 0.125)"/>
      <use xlink:href="#Helvetica-20" transform="translate(516.992188 0.125)"/>
      <use xlink:href="#DejaVuSans-Oblique-3c9" transform="translate(544.775391 0.125)"/>
      <use xlink:href="#Helvetica-20" transform="translate(628.515625 0.125)"/>
      <use xlink:href="#Helvetica-3d" transform="translate(656.298828 0.125)"/>
      <use xlink:href="#Helvetica-20" transform="translate(714.697266 0.125)"/>
      <use xlink:href="#DejaVuSans-Oblique-3c9" transform="translate(742.480469 0.125)"/>
      <use xlink:href="#DejaVuSans-30" transform="translate(826.220703 -16.28125) scale(0.7)"/>
      <use xlink:href="#Helvetica-2b" transform="translate(873.491211 0.125)"/>
      <use xlink:href="#DejaVuSans-28" transform="translate(931.889648 0.125)"/>
      <use xlink:href="#DejaVuSans-Oblique-44" transform="translate(970.90332 0.125)"/>
      <use xlink:href="#DejaVuSans-31" transform="translate(1047.905273 -16.28125) scale(0.7)"/>
      <use xlink:href="#DejaVuSans-2212" transform="translate(1114.658203 0.125)"/>
      <use xlink:href="#DejaVuSans-Oblique-44" transform="translate(1217.929688 0.125)"/>
      <use xlink:href="#DejaVuSans-Oblique-61" transform="translate(1294.931641 -16.28125) scale(0.7)"/>
      <use xlink:href="#DejaVuSans-Oblique-76" transform="translate(1337.827148 -16.28125) scale(0.7)"/>
      <use xlink:href="#DejaVuSans-Oblique-65" transform="translate(1379.25293 -16.28125) scale(0.7)"/>
      <use xlink:href="#DejaVuSans-29" transform="translate(1425.053711 0.125)"/>
      <use xlink:href="#Helvetica-28" transform="translate(1464.067383 0.125)"/>
      <use xlink:href="#Helvetica-6d" transform="translate(1497.368164 0.125)"/>
      <use xlink:href="#Helvetica-2d" transform="translate(1580.668945 0.125)"/>
      <use xlink:href="#DejaVuSans-Oblique-4d" transform="translate(1613.969727 0.125)"/>
      <use xlink:href="#DejaVuSans-30" transform="translate(1700.249023 -16.28125) scale(0.7)"/>
      <use xlink:href="#Helvetica-29" transform="translate(1747.519531 0.125)"/>
      <use xlink:href="#DejaVuSans-b1" transform="translate(1780.820312 0.125)"/>
      <use xlink:href="#Helvetica-32" transform="translate(1864.609375 0.125)"/>
      <use xlink:href="#DejaVuSans-Oblique-44" transform="translate(1920.224609 0.125)"/>
      <use xlink:href="#DejaVuSans-31" transform="translate(1997.226562 -16.28125) scale(0.7)"/>
     </g>
    </g>
    <g id="line2d_42">
     <path d="M 463.173716 150.0704 
L 473.173716 150.0704 
L 483.173716 150.0704 
" style="fill: none; stroke: #f08080; stroke-width: 1.5; stroke-linecap: square"/>
    </g>
    <g id="text_19">
     <!-- Resonator2 $\omega = \omega_0$+$(D_2-D_{ave})$(m-$M_0$) -->
     <g transform="translate(491.173716 153.5704) scale(0.1 -0.1)">
      <defs>
       <path id="DejaVuSans-32" d="M 1228 531 
L 3431 531 
L 3431 0 
L 469 0 
L 469 531 
Q 828 903 1448 1529 
Q 2069 2156 2228 2338 
Q 2531 2678 2651 2914 
Q 2772 3150 2772 3378 
Q 2772 3750 2511 3984 
Q 2250 4219 1831 4219 
Q 1534 4219 1204 4116 
Q 875 4013 500 3803 
L 500 4441 
Q 881 4594 1212 4672 
Q 1544 4750 1819 4750 
Q 2544 4750 2975 4387 
Q 3406 4025 3406 3419 
Q 3406 3131 3298 2873 
Q 3191 2616 2906 2266 
Q 2828 2175 2409 1742 
Q 1991 1309 1228 531 
z
" transform="scale(0.015625)"/>
      </defs>
      <use xlink:href="#Helvetica-52" transform="translate(0 0.125)"/>
      <use xlink:href="#Helvetica-65" transform="translate(72.216797 0.125)"/>
      <use xlink:href="#Helvetica-73" transform="translate(127.832031 0.125)"/>
      <use xlink:href="#Helvetica-6f" transform="translate(177.832031 0.125)"/>
      <use xlink:href="#Helvetica-6e" transform="translate(233.447266 0.125)"/>
      <use xlink:href="#Helvetica-61" transform="translate(289.0625 0.125)"/>
      <use xlink:href="#Helvetica-74" transform="translate(344.677734 0.125)"/>
      <use xlink:href="#Helvetica-6f" transform="translate(372.460938 0.125)"/>
      <use xlink:href="#Helvetica-72" transform="translate(428.076172 0.125)"/>
      <use xlink:href="#Helvetica-32" transform="translate(461.376953 0.125)"/>
      <use xlink:href="#Helvetica-20" transform="translate(516.992188 0.125)"/>
      <use xlink:href="#DejaVuSans-Oblique-3c9" transform="translate(544.775391 0.125)"/>
      <use xlink:href="#DejaVuSans-3d" transform="translate(647.998047 0.125)"/>
      <use xlink:href="#DejaVuSans-Oblique-3c9" transform="translate(751.269531 0.125)"/>
      <use xlink:href="#DejaVuSans-30" transform="translate(835.009766 -16.28125) scale(0.7)"/>
      <use xlink:href="#Helvetica-2b" transform="translate(882.280273 0.125)"/>
      <use xlink:href="#DejaVuSans-28" transform="translate(940.678711 0.125)"/>
      <use xlink:href="#DejaVuSans-Oblique-44" transform="translate(979.692383 0.125)"/>
      <use xlink:href="#DejaVuSans-32" transform="translate(1056.694336 -16.28125) scale(0.7)"/>
      <use xlink:href="#DejaVuSans-2212" transform="translate(1123.447266 0.125)"/>
      <use xlink:href="#DejaVuSans-Oblique-44" transform="translate(1226.71875 0.125)"/>
      <use xlink:href="#DejaVuSans-Oblique-61" transform="translate(1303.720703 -16.28125) scale(0.7)"/>
      <use xlink:href="#DejaVuSans-Oblique-76" transform="translate(1346.616211 -16.28125) scale(0.7)"/>
      <use xlink:href="#DejaVuSans-Oblique-65" transform="translate(1388.041992 -16.28125) scale(0.7)"/>
      <use xlink:href="#DejaVuSans-29" transform="translate(1433.842773 0.125)"/>
      <use xlink:href="#Helvetica-28" transform="translate(1472.856445 0.125)"/>
      <use xlink:href="#Helvetica-6d" transform="translate(1506.157227 0.125)"/>
      <use xlink:href="#Helvetica-2d" transform="translate(1589.458008 0.125)"/>
      <use xlink:href="#DejaVuSans-Oblique-4d" transform="translate(1622.758789 0.125)"/>
      <use xlink:href="#DejaVuSans-30" transform="translate(1709.038086 -16.28125) scale(0.7)"/>
      <use xlink:href="#Helvetica-29" transform="translate(1756.308594 0.125)"/>
     </g>
    </g>
    <g id="line2d_43">
     <path d="M 463.173716 164.7704 
L 473.173716 164.7704 
L 483.173716 164.7704 
" style="fill: none; stroke-dasharray: 5.55,2.4; stroke-dashoffset: 0; stroke: #f08080; stroke-width: 1.5"/>
    </g>
    <g id="text_20">
     <!-- Resonator2 $\omega$ = $\omega_0$+$(D_2-D_{ave})$(m-$M_0$)$\pm$1$D_1$ -->
     <g transform="translate(491.173716 168.2704) scale(0.1 -0.1)">
      <use xlink:href="#Helvetica-52" transform="translate(0 0.125)"/>
      <use xlink:href="#Helvetica-65" transform="translate(72.216797 0.125)"/>
      <use xlink:href="#Helvetica-73" transform="translate(127.832031 0.125)"/>
      <use xlink:href="#Helvetica-6f" transform="translate(177.832031 0.125)"/>
      <use xlink:href="#Helvetica-6e" transform="translate(233.447266 0.125)"/>
      <use xlink:href="#Helvetica-61" transform="translate(289.0625 0.125)"/>
      <use xlink:href="#Helvetica-74" transform="translate(344.677734 0.125)"/>
      <use xlink:href="#Helvetica-6f" transform="translate(372.460938 0.125)"/>
      <use xlink:href="#Helvetica-72" transform="translate(428.076172 0.125)"/>
      <use xlink:href="#Helvetica-32" transform="translate(461.376953 0.125)"/>
      <use xlink:href="#Helvetica-20" transform="translate(516.992188 0.125)"/>
      <use xlink:href="#DejaVuSans-Oblique-3c9" transform="translate(544.775391 0.125)"/>
      <use xlink:href="#Helvetica-20" transform="translate(628.515625 0.125)"/>
      <use xlink:href="#Helvetica-3d" transform="translate(656.298828 0.125)"/>
      <use xlink:href="#Helvetica-20" transform="translate(714.697266 0.125)"/>
      <use xlink:href="#DejaVuSans-Oblique-3c9" transform="translate(742.480469 0.125)"/>
      <use xlink:href="#DejaVuSans-30" transform="translate(826.220703 -16.28125) scale(0.7)"/>
      <use xlink:href="#Helvetica-2b" transform="translate(873.491211 0.125)"/>
      <use xlink:href="#DejaVuSans-28" transform="translate(931.889648 0.125)"/>
      <use xlink:href="#DejaVuSans-Oblique-44" transform="translate(970.90332 0.125)"/>
      <use xlink:href="#DejaVuSans-32" transform="translate(1047.905273 -16.28125) scale(0.7)"/>
      <use xlink:href="#DejaVuSans-2212" transform="translate(1114.658203 0.125)"/>
      <use xlink:href="#DejaVuSans-Oblique-44" transform="translate(1217.929688 0.125)"/>
      <use xlink:href="#DejaVuSans-Oblique-61" transform="translate(1294.931641 -16.28125) scale(0.7)"/>
      <use xlink:href="#DejaVuSans-Oblique-76" transform="translate(1337.827148 -16.28125) scale(0.7)"/>
      <use xlink:href="#DejaVuSans-Oblique-65" transform="translate(1379.25293 -16.28125) scale(0.7)"/>
      <use xlink:href="#DejaVuSans-29" transform="translate(1425.053711 0.125)"/>
      <use xlink:href="#Helvetica-28" transform="translate(1464.067383 0.125)"/>
      <use xlink:href="#Helvetica-6d" transform="translate(1497.368164 0.125)"/>
      <use xlink:href="#Helvetica-2d" transform="translate(1580.668945 0.125)"/>
      <use xlink:href="#DejaVuSans-Oblique-4d" transform="translate(1613.969727 0.125)"/>
      <use xlink:href="#DejaVuSans-30" transform="translate(1700.249023 -16.28125) scale(0.7)"/>
      <use xlink:href="#Helvetica-29" transform="translate(1747.519531 0.125)"/>
      <use xlink:href="#DejaVuSans-b1" transform="translate(1780.820312 0.125)"/>
      <use xlink:href="#Helvetica-31" transform="translate(1864.609375 0.125)"/>
      <use xlink:href="#DejaVuSans-Oblique-44" transform="translate(1920.224609 0.125)"/>
      <use xlink:href="#DejaVuSans-31" transform="translate(1997.226562 -16.28125) scale(0.7)"/>
     </g>
    </g>
    <g id="line2d_44">
     <path d="M 463.173716 179.4704 
L 473.173716 179.4704 
L 483.173716 179.4704 
" style="fill: none; stroke-dasharray: 1.5,2.475; stroke-dashoffset: 0; stroke: #f08080; stroke-width: 1.5"/>
    </g>
    <g id="text_21">
     <!-- Resonator2 $\omega$ = $\omega_0$+$(D_2-D_{ave})$(m-$M_0$)$\pm$2$D_1$ -->
     <g transform="translate(491.173716 182.9704) scale(0.1 -0.1)">
      <use xlink:href="#Helvetica-52" transform="translate(0 0.125)"/>
      <use xlink:href="#Helvetica-65" transform="translate(72.216797 0.125)"/>
      <use xlink:href="#Helvetica-73" transform="translate(127.832031 0.125)"/>
      <use xlink:href="#Helvetica-6f" transform="translate(177.832031 0.125)"/>
      <use xlink:href="#Helvetica-6e" transform="translate(233.447266 0.125)"/>
      <use xlink:href="#Helvetica-61" transform="translate(289.0625 0.125)"/>
      <use xlink:href="#Helvetica-74" transform="translate(344.677734 0.125)"/>
      <use xlink:href="#Helvetica-6f" transform="translate(372.460938 0.125)"/>
      <use xlink:href="#Helvetica-72" transform="translate(428.076172 0.125)"/>
      <use xlink:href="#Helvetica-32" transform="translate(461.376953 0.125)"/>
      <use xlink:href="#Helvetica-20" transform="translate(516.992188 0.125)"/>
      <use xlink:href="#DejaVuSans-Oblique-3c9" transform="translate(544.775391 0.125)"/>
      <use xlink:href="#Helvetica-20" transform="translate(628.515625 0.125)"/>
      <use xlink:href="#Helvetica-3d" transform="translate(656.298828 0.125)"/>
      <use xlink:href="#Helvetica-20" transform="translate(714.697266 0.125)"/>
      <use xlink:href="#DejaVuSans-Oblique-3c9" transform="translate(742.480469 0.125)"/>
      <use xlink:href="#DejaVuSans-30" transform="translate(826.220703 -16.28125) scale(0.7)"/>
      <use xlink:href="#Helvetica-2b" transform="translate(873.491211 0.125)"/>
      <use xlink:href="#DejaVuSans-28" transform="translate(931.889648 0.125)"/>
      <use xlink:href="#DejaVuSans-Oblique-44" transform="translate(970.90332 0.125)"/>
      <use xlink:href="#DejaVuSans-32" transform="translate(1047.905273 -16.28125) scale(0.7)"/>
      <use xlink:href="#DejaVuSans-2212" transform="translate(1114.658203 0.125)"/>
      <use xlink:href="#DejaVuSans-Oblique-44" transform="translate(1217.929688 0.125)"/>
      <use xlink:href="#DejaVuSans-Oblique-61" transform="translate(1294.931641 -16.28125) scale(0.7)"/>
      <use xlink:href="#DejaVuSans-Oblique-76" transform="translate(1337.827148 -16.28125) scale(0.7)"/>
      <use xlink:href="#DejaVuSans-Oblique-65" transform="translate(1379.25293 -16.28125) scale(0.7)"/>
      <use xlink:href="#DejaVuSans-29" transform="translate(1425.053711 0.125)"/>
      <use xlink:href="#Helvetica-28" transform="translate(1464.067383 0.125)"/>
      <use xlink:href="#Helvetica-6d" transform="translate(1497.368164 0.125)"/>
      <use xlink:href="#Helvetica-2d" transform="translate(1580.668945 0.125)"/>
      <use xlink:href="#DejaVuSans-Oblique-4d" transform="translate(1613.969727 0.125)"/>
      <use xlink:href="#DejaVuSans-30" transform="translate(1700.249023 -16.28125) scale(0.7)"/>
      <use xlink:href="#Helvetica-29" transform="translate(1747.519531 0.125)"/>
      <use xlink:href="#DejaVuSans-b1" transform="translate(1780.820312 0.125)"/>
      <use xlink:href="#Helvetica-32" transform="translate(1864.609375 0.125)"/>
      <use xlink:href="#DejaVuSans-Oblique-44" transform="translate(1920.224609 0.125)"/>
      <use xlink:href="#DejaVuSans-31" transform="translate(1997.226562 -16.28125) scale(0.7)"/>
     </g>
    </g>
    <g id="line2d_45">
     <path d="M 463.173716 193.93915 
L 473.173716 193.93915 
L 483.173716 193.93915 
" style="fill: none; stroke: #ff7f0e; stroke-width: 1.5; stroke-linecap: square"/>
    </g>
    <g id="text_22">
     <!-- Supermodes when gL = 0.3 -->
     <g transform="translate(491.173716 197.43915) scale(0.1 -0.1)">
      <defs>
       <path id="Helvetica-53" d="M 894 1481 
Q 916 1091 1078 847 
Q 1388 391 2169 391 
Q 2519 391 2806 491 
Q 3363 684 3363 1184 
Q 3363 1559 3128 1719 
Q 2891 1875 2384 1991 
L 1763 2131 
Q 1153 2269 900 2434 
Q 463 2722 463 3294 
Q 463 3913 891 4309 
Q 1319 4706 2103 4706 
Q 2825 4706 3329 4357 
Q 3834 4009 3834 3244 
L 3250 3244 
Q 3203 3613 3050 3809 
Q 2766 4169 2084 4169 
Q 1534 4169 1293 3937 
Q 1053 3706 1053 3400 
Q 1053 3063 1334 2906 
Q 1519 2806 2169 2656 
L 2813 2509 
Q 3278 2403 3531 2219 
Q 3969 1897 3969 1284 
Q 3969 522 3414 194 
Q 2859 -134 2125 -134 
Q 1269 -134 784 303 
Q 300 738 309 1481 
L 894 1481 
z
M 2150 4716 
L 2150 4716 
z
" transform="scale(0.015625)"/>
       <path id="Helvetica-77" d="M 672 3347 
L 1316 709 
L 1969 3347 
L 2600 3347 
L 3256 725 
L 3941 3347 
L 4503 3347 
L 3531 0 
L 2947 0 
L 2266 2591 
L 1606 0 
L 1022 0 
L 56 3347 
L 672 3347 
z
" transform="scale(0.015625)"/>
       <path id="Helvetica-68" d="M 413 4606 
L 975 4606 
L 975 2894 
Q 1175 3147 1334 3250 
Q 1606 3428 2013 3428 
Q 2741 3428 3000 2919 
Q 3141 2641 3141 2147 
L 3141 0 
L 2563 0 
L 2563 2109 
Q 2563 2478 2469 2650 
Q 2316 2925 1894 2925 
Q 1544 2925 1259 2684 
Q 975 2444 975 1775 
L 975 0 
L 413 0 
L 413 4606 
z
" transform="scale(0.015625)"/>
       <path id="Helvetica-4c" d="M 488 4591 
L 1109 4591 
L 1109 547 
L 3434 547 
L 3434 0 
L 488 0 
L 488 4591 
z
" transform="scale(0.015625)"/>
      </defs>
      <use xlink:href="#Helvetica-53"/>
      <use xlink:href="#Helvetica-75" transform="translate(66.699219 0)"/>
      <use xlink:href="#Helvetica-70" transform="translate(122.314453 0)"/>
      <use xlink:href="#Helvetica-65" transform="translate(177.929688 0)"/>
      <use xlink:href="#Helvetica-72" transform="translate(233.544922 0)"/>
      <use xlink:href="#Helvetica-6d" transform="translate(266.845703 0)"/>
      <use xlink:href="#Helvetica-6f" transform="translate(350.146484 0)"/>
      <use xlink:href="#Helvetica-64" transform="translate(405.761719 0)"/>
      <use xlink:href="#Helvetica-65" transform="translate(461.376953 0)"/>
      <use xlink:href="#Helvetica-73" transform="translate(516.992188 0)"/>
      <use xlink:href="#Helvetica-20" transform="translate(566.992188 0)"/>
      <use xlink:href="#Helvetica-77" transform="translate(594.775391 0)"/>
      <use xlink:href="#Helvetica-68" transform="translate(666.992188 0)"/>
      <use xlink:href="#Helvetica-65" transform="translate(722.607422 0)"/>
      <use xlink:href="#Helvetica-6e" transform="translate(778.222656 0)"/>
      <use xlink:href="#Helvetica-20" transform="translate(833.837891 0)"/>
      <use xlink:href="#Helvetica-67" transform="translate(861.621094 0)"/>
      <use xlink:href="#Helvetica-4c" transform="translate(917.236328 0)"/>
      <use xlink:href="#Helvetica-20" transform="translate(972.851562 0)"/>
      <use xlink:href="#Helvetica-3d" transform="translate(1000.634766 0)"/>
      <use xlink:href="#Helvetica-20" transform="translate(1059.033203 0)"/>
      <use xlink:href="#Helvetica-30" transform="translate(1086.816406 0)"/>
      <use xlink:href="#Helvetica-2e" transform="translate(1142.431641 0)"/>
      <use xlink:href="#Helvetica-33" transform="translate(1170.214844 0)"/>
     </g>
    </g>
    <g id="line2d_46">
     <path d="M 463.173716 208.5204 
L 473.173716 208.5204 
L 483.173716 208.5204 
" style="fill: none; stroke: #4682b4; stroke-width: 1.5; stroke-linecap: square"/>
    </g>
    <g id="text_23">
     <!-- Supermodes when gL = 0.8 -->
     <g transform="translate(491.173716 212.0204) scale(0.1 -0.1)">
      <defs>
       <path id="Helvetica-38" d="M 1741 2600 
Q 2113 2600 2322 2808 
Q 2531 3016 2531 3303 
Q 2531 3553 2331 3762 
Q 2131 3972 1722 3972 
Q 1316 3972 1134 3762 
Q 953 3553 953 3272 
Q 953 2956 1187 2778 
Q 1422 2600 1741 2600 
z
M 1775 384 
Q 2166 384 2423 595 
Q 2681 806 2681 1225 
Q 2681 1659 2415 1884 
Q 2150 2109 1734 2109 
Q 1331 2109 1076 1879 
Q 822 1650 822 1244 
Q 822 894 1055 639 
Q 1288 384 1775 384 
z
M 975 2384 
Q 741 2484 609 2619 
Q 363 2869 363 3269 
Q 363 3769 725 4128 
Q 1088 4488 1753 4488 
Q 2397 4488 2762 4148 
Q 3128 3809 3128 3356 
Q 3128 2938 2916 2678 
Q 2797 2531 2547 2391 
Q 2825 2263 2984 2097 
Q 3281 1784 3281 1284 
Q 3281 694 2884 283 
Q 2488 -128 1763 -128 
Q 1109 -128 657 226 
Q 206 581 206 1256 
Q 206 1653 400 1942 
Q 594 2231 975 2384 
z
" transform="scale(0.015625)"/>
      </defs>
      <use xlink:href="#Helvetica-53"/>
      <use xlink:href="#Helvetica-75" transform="translate(66.699219 0)"/>
      <use xlink:href="#Helvetica-70" transform="translate(122.314453 0)"/>
      <use xlink:href="#Helvetica-65" transform="translate(177.929688 0)"/>
      <use xlink:href="#Helvetica-72" transform="translate(233.544922 0)"/>
      <use xlink:href="#Helvetica-6d" transform="translate(266.845703 0)"/>
      <use xlink:href="#Helvetica-6f" transform="translate(350.146484 0)"/>
      <use xlink:href="#Helvetica-64" transform="translate(405.761719 0)"/>
      <use xlink:href="#Helvetica-65" transform="translate(461.376953 0)"/>
      <use xlink:href="#Helvetica-73" transform="translate(516.992188 0)"/>
      <use xlink:href="#Helvetica-20" transform="translate(566.992188 0)"/>
      <use xlink:href="#Helvetica-77" transform="translate(594.775391 0)"/>
      <use xlink:href="#Helvetica-68" transform="translate(666.992188 0)"/>
      <use xlink:href="#Helvetica-65" transform="translate(722.607422 0)"/>
      <use xlink:href="#Helvetica-6e" transform="translate(778.222656 0)"/>
      <use xlink:href="#Helvetica-20" transform="translate(833.837891 0)"/>
      <use xlink:href="#Helvetica-67" transform="translate(861.621094 0)"/>
      <use xlink:href="#Helvetica-4c" transform="translate(917.236328 0)"/>
      <use xlink:href="#Helvetica-20" transform="translate(972.851562 0)"/>
      <use xlink:href="#Helvetica-3d" transform="translate(1000.634766 0)"/>
      <use xlink:href="#Helvetica-20" transform="translate(1059.033203 0)"/>
      <use xlink:href="#Helvetica-30" transform="translate(1086.816406 0)"/>
      <use xlink:href="#Helvetica-2e" transform="translate(1142.431641 0)"/>
      <use xlink:href="#Helvetica-38" transform="translate(1170.214844 0)"/>
     </g>
    </g>
   </g>
  </g>
 </g>
 <defs>
  <clipPath id="p570ec21d3b">
   <rect x="63.11" y="25.44" width="377.203539" height="362.152"/>
  </clipPath>
 </defs>
</svg>
